
<svg xmlns="http://www.w3.org/2000/svg" version="1.1" xmlns:xlink="http://www.w3.org/1999/xlink" preserveAspectRatio="none" x="0px" y="0px" width="1280px" height="720px" viewBox="0 0 1280 720">
<defs>
<linearGradient id="Gradient_1" gradientUnits="userSpaceOnUse" x1="-387.2" y1="-80.925" x2="-387.2" y2="214.325" spreadMethod="pad">
<stop  offset="0%" stop-color="#F2F8FF"/>

<stop  offset="35.68627450980392%" stop-color="#FFFFFF"/>

<stop  offset="100%" stop-color="#94E5FC"/>
</linearGradient>

<linearGradient id="Gradient_2" gradientUnits="userSpaceOnUse" x1="-0.5" y1="339.6625" x2="-0.5" y2="-348.1625" spreadMethod="pad">
<stop  offset="0%" stop-color="#F2FFF8"/>

<stop  offset="83.13725490196079%" stop-color="#2CD0FD"/>
</linearGradient>

<linearGradient id="Gradient_3" gradientUnits="userSpaceOnUse" x1="-232.05" y1="-423.975" x2="-232.05" y2="-128.72500000000002" spreadMethod="pad">
<stop  offset="0%" stop-color="#F2F8FF"/>

<stop  offset="35.68627450980392%" stop-color="#FFFFFF"/>

<stop  offset="100%" stop-color="#94E5FC"/>
</linearGradient>

<linearGradient id="Gradient_4" gradientUnits="userSpaceOnUse" x1="419.2" y1="-267.225" x2="419.2" y2="28.025000000000006" spreadMethod="pad">
<stop  offset="0%" stop-color="#F2F8FF"/>

<stop  offset="35.68627450980392%" stop-color="#FFFFFF"/>

<stop  offset="100%" stop-color="#94E5FC"/>
</linearGradient>

<g id="Symbol_1_0_Layer0_0_FILL">
<path fill="#65B006" stroke="none" d="
M -342.9 264.55
Q -341.8 263.05 -340.05 261.4 -336.3 257.85 -331.35 255.8 -337.35 256 -343.15 256.25
L -343.05 261.1
Q -343.05 261.65 -343 262.2
L -342.9 264.55
M -395.2 258.05
Q -399.95 258.2 -404.6 258.4 -398.85 262.3 -395.2 269.3 -395.15 269.1 -395.05 268.9 -395.15 263.5 -395.2 258.05
M -37.8 249.8
Q -38.25 249.75 -38.7 249.8 -38.15 249.85 -37.55 250.15 -37.7 249.95 -37.8 249.8
M -32.9 249.9
Q -32.8 250.35 -32.8 251
L -32.2 249.9
Q -32.55 249.85 -32.9 249.9
M -77.15 250.6
Q -77.15 250.7 -76 249.85 -75.65 249.6 -75.4 249.45 -76.15 249.45 -76.95 249.45 -77.05 250 -77.15 250.6
M 140.1 250.55
Q 140.05 250.55 139.95 250.55
L 139.95 250.6
Q 139.95 250.65 140.1 250.55
M 504.25 258
L 506.15 255.65
Q 508.35 253.55 511.15 252.3 507.75 252.2 504.1 252.1
L 504.25 258
M 457.6 266.05
L 457.6 266 457.55 266
Q 457.35 264.9 456.65 263.6 456.2 262.8 455.5 261.95 452.05 257.6 445.1 256.25
L 450.45 255.5
Q 456.75 255.65 461.6 259.5 460.6 255.85 454.95 251.25 383.4 250.35 260.75 250.5 194.35 250.6 142.15 250.55 141.8 251.1 141.1 251.95
L 132.2 251.95
Q 131.95 251.25 131.7 250.55 105.4 250.55 82.95 250.5 82.35 251.1 81.65 251.75
L 63.9 251.65
Q 63.2 251.2 62.5 250.5 32.25 250.4 10.2 250.3 9.5 251.1 8.05 252.25
L 3.55 252.3 2.6 252.35 1.1 252.35
Q 0.35 251.85 -0.35 251.1 -0.85 250.6 -1.05 250.2 -18.95 250.05 -30.2 249.9 -30.45 251.25 -31.45 253.65
L -41.85 253.95
Q -42.6 253.75 -43.2 253.4 -44.35 252.8 -43.75 252.25 -42.8 251.45 -39.35 252.35 -39.85 251.95 -40.3 251.45 -41.2 250.25 -40.7 249.85 -40.65 249.8 -40.55 249.75 -55 249.4 -74.55 249.45 -74.35 249.95 -75.9 251.95
L -84.9 251.95
Q -85.25 251.2 -85.45 250.4 -85.55 249.85 -85.5 249.5 -106.95 249.6 -133.65 250.05 -134.45 250.8 -135.45 251.75
L -153.2 251.65
Q -153.9 251.2 -154.6 250.5 -179.55 251.05 -208.55 251.85 -208.8 252.05 -209.05 252.25
L -213.75 252.35 -214.55 252.35 -215.9 252.35
Q -216.1 252.2 -216.25 252.1 -231.75 252.5 -248.3 253.05 -254.3 253.2 -260.45 253.4 -288.7 254.3 -320 255.4 -323.6 255.55 -327.15 255.65
L -329.05 257.85
Q -332.4 262.55 -333.55 266.85
L -326 261.8
Q -316.65 257.3 -307.4 259.5
L -312.45 264.85
Q -317.7 271.4 -318.65 276.55
L -414.1 277.15 -414.1 277.1 -414.15 277.1
Q -414.6 274.6 -416.9 271.45 -417.5 270.65 -418.15 269.9
L -426.5 264.25 -429.55 263.2
Q -431.35 262.65 -433.35 262.25
L -425.15 261.2
Q -415.45 261.3 -408 267.3 -408.45 265.8 -410 263.4 -411.55 261 -413.8 258.7 -577.05 264.45 -579.25 264.45 -610.95 265.1 -638.7 278.2 -639.85 278.75 -641 279.35
L -641 361.65 641 361.65 641 278.55
Q 638.75 277.3 636.3 276.1 611.05 263.6 577.55 257.75 559.7 254.6 539.45 253.4 529.75 252.8 514.15 252.35 513.8 252.8 513.4 253.3 511.15 256.35 510.45 259.2
L 515.4 255.95
Q 521.45 253 527.55 254.45 526 255.95 524.2 258.05 520.75 262.25 520.1 265.6
L 457.6 266.05
M 325.1 266.1
Q 326.8 264.65 328.5 264.2 329.5 263.9 330.95 264
L 334.25 264.55
Q 334.3 264.55 334.35 264.6 334.5 264.6 334.6 264.65 337.25 265.3 341.75 271.15 343.8 273.75 345.35 276.3
L 345.75 276.9
Q 346 277.4 346.1 277.9
L 346.1 278.2
Q 346.15 280.85 339.95 283.65 332.1 287.25 322.95 286.5 319.6 286.2 318.65 284.4 318.3 283.9 317.9 280.1 317.6 276.95 317.7 276.3 318.1 274.75 321.5 270
L 325.1 266.1
M -252 268.8
Q -250.2 268.8 -247.05 270.25 -246.65 270.45 -246.25 270.85 -243.45 273.1 -240.15 282.4 -239.2 285.35 -246.05 286.8 -253.1 288.4 -260.45 286.2 -262.8 285.45 -263.5 284.2 -263.65 283.95 -263.75 283.7 -263.85 283.1 -263.55 279.95 -263.2 277.3 -263 276.8 -262.4 275.65 -258.8 272.35 -254.9 269 -252 268.8
M 470 260.75
L 470.15 260.45
Q 470.1 255.85 470.05 251.45 463.9 251.35 457.35 251.3
L 460 251.75
Q 466.55 254.05 470 260.75 Z"/>

<path fill="#AF7600" stroke="none" d="
M -396.65 184
Q -402.9 180.75 -410.45 176.85 -418 172.95 -561.7 153.3 -608.65 146.9 -641 142.25
L -641 279.35
Q -639.85 278.75 -638.7 278.2 -610.95 265.1 -579.25 264.45 -577.05 264.45 -413.8 258.7 -416.2 256.25 -419.35 253.85
L -410.45 255.4
Q -407.3 256.55 -404.6 258.4 -399.95 258.2 -395.2 258.05 -395.6 230.2 -396.25 200.6 -396.45 191.9 -396.65 184
M 515.5 250.8
Q 514.85 251.45 514.15 252.35 529.75 252.8 539.45 253.4 559.7 254.6 577.55 257.75 546.35 243 503.6 231.95
L 504.1 252.1
Q 507.75 252.2 511.15 252.3 513.15 251.3 515.5 250.8
M 454.95 251.25
Q 454.6 250.95 454.25 250.7
L 457.35 251.3
Q 463.9 251.35 470.05 251.45 469.85 236.65 469.6 224.1 444 218.65 403.85 210.8 364.85 203.15 340.4 196.75 314.35 190.1 274.95 175.2 239.25 161.95 219.4 155.25 219.45 155.3 219.5 155.4 205.1 150.55 194.05 147.25 168 139.45 155.85 136.85 133.15 131.9 116.15 132.85 104.05 133.55 91.85 139.75 84.2 143.55 71.4 152.6 68.25 154.8 42.5 180.3 21.5 201.1 10.35 204.25 -6.05 209 -23.6 204.25 -37 200.7 -55.1 190.2 -75.55 177.35 -85.95 171.4 -104.25 161 -118.45 157.4 -132.1 153.95 -142.7 153.45 -155.6 152.7 -166.85 155.95 -179.35 159.6 -193.95 169.2 -209.9 180.75 -218 186 -244.25 203.2 -266.95 210.15 -295.4 218.85 -323.45 213.6 -333.45 211.75 -344.5 208.1 -343.95 229.25 -343.2 254.8
L -343.15 256.25
Q -337.35 256 -331.35 255.8 -328.7 254.7 -325.75 254.05
L -327.15 255.65
Q -323.6 255.55 -320 255.4 -288.7 254.3 -260.45 253.4 -261.55 252.8 -260.85 252.25 -260.25 251.75 -258.25 252.05 -257.3 252.15 -256.45 252.35 -256.95 251.95 -257.4 251.45 -258.35 250.25 -257.8 249.85 -257.4 249.35 -255.9 249.75 -255.3 249.85 -254.65 250.15 -255.2 249.45 -255.4 248.6 -256.05 247 -254.85 246.7 -253.1 246.4 -252.25 250.15 -252.35 249.55 -252.35 248.8 -252.35 247.55 -251.5 247.65 -250.05 247.75 -249.95 251 -249.6 250.15 -249.1 249.45 -248.25 247.85 -247.6 248.15 -246.6 248.75 -248.3 253.05 -231.75 252.5 -216.25 252.1 -218.9 250.1 -218.3 249.2 -217.9 248.6 -216.65 248.8 -216.1 249 -215.6 249.2 -216 248.7 -216.45 248.15 -217.05 247.1 -216.3 246.8 -215.6 246.5 -214.45 247 -213.9 247.35 -213.5 247.65 -213.9 246.3 -214 244.9 -214.1 242.2 -212.65 242.3 -210.25 242.5 -210.95 247.35 -210.65 246.7 -210.35 246.05 -209.6 244.9 -208.95 245.35 -208.15 246.05 -209.5 249.65 -208.85 249.1 -208.15 248.7 -206.75 247.85 -206.35 248.6 -205.75 249.55 -208.55 251.85 -179.55 251.05 -154.6 250.5 -155.2 249.85 -155.8 249 -157.1 247.1 -156.25 246.5 -155.5 246.05 -154.25 246.6 -153.6 246.9 -153.1 247.2 -154.15 244.7 -152.25 244.3 -150.35 243.95 -148.25 245.85 -149.5 242.7 -147 242.9 -144.6 243.15 -142.5 246.05 -142.25 241.45 -140.5 241.45 -139.2 241.45 -138.4 246.3 -137.95 245.25 -137.45 244.3 -136.4 242.4 -135.95 242.7 -135.25 243.15 -135.75 248.7
L -133.85 247.75
Q -131.85 246.8 -131.65 247.35 -131.5 247.85 -133.65 250.05 -106.95 249.6 -85.5 249.5 -85.5 248.7 -85 248.5 -83.85 248.05 -81.85 249.45 -81.85 248.4 -81.85 247.35 -81.65 245.25 -80.95 245.35 -79.65 245.55 -79.15 248.7 -78.95 247.85 -78.5 247.1 -77.9 245.65 -77.25 245.95 -76.45 246.35 -76.95 249.45 -76.15 249.45 -75.4 249.45 -74.8 249.1 -74.6 249.35 -74.55 249.4 -74.55 249.45 -55 249.4 -40.55 249.75 -40.1 249.4 -38.8 249.75 -38.75 249.75 -38.7 249.8 -38.25 249.75 -37.8 249.8 -38.1 249.25 -38.3 248.6 -38.9 247 -37.75 246.7 -36.05 246.4 -35.2 249.85 -35.25 249.35 -35.25 248.8 -35.25 247.55 -34.4 247.65 -33.2 247.75 -32.9 249.9 -32.55 249.85 -32.2 249.9
L -32 249.45
Q -31.15 247.85 -30.5 248.15 -29.95 248.5 -30.2 249.9 -18.95 250.05 -1.05 250.2 -1.45 249.6 -1.2 249.2 -0.8 248.6 0.5 248.8 1 249 1.55 249.2 1 248.7 0.7 248.15 0.05 247.1 0.8 246.8 1.95 246.3 3.65 247.65 3.2 246.3 3.1 244.9 3 242.2 4.45 242.3 6.9 242.5 6.15 247.35
L 6.8 246.05
Q 7.5 244.9 8.15 245.35 9 246.05 7.6 249.65
L 9 248.7
Q 10.35 247.85 10.75 248.6 11.1 249.2 10.2 250.3 32.25 250.4 62.5 250.5 61.9 249.85 61.3 249 60.05 247.1 60.9 246.5 62.05 245.75 63.9 247.2 62.85 244.7 64.85 244.3 66.75 243.95 68.85 245.85 67.6 242.7 70.1 242.9 72.55 243.15 74.55 246.05 75.05 241.45 76.65 241.45 77.9 241.45 78.75 246.3
L 79.7 244.3
Q 80.75 242.4 81.15 242.7 81.9 243.15 81.35 248.7
L 83.25 247.75
Q 85.25 246.8 85.45 247.35 85.6 247.9 82.95 250.5 105.4 250.55 131.7 250.55 131.65 250.5 131.65 250.4 131.35 248.8 132.1 248.5 133.25 248.05 135.25 249.45 135.25 248.4 135.25 247.35 135.45 245.25 136.2 245.35 137.35 245.55 137.95 248.7 138.2 247.85 138.6 247.1 139.25 245.65 139.85 245.95 140.8 246.4 139.95 250.55 140.05 250.55 140.1 250.55 140.35 250.4 141.1 249.85 142.3 249 142.5 249.35 142.75 249.6 142.15 250.55 194.35 250.6 260.75 250.5 383.4 250.35 454.95 251.25 Z"/>

<path fill="#89610D" stroke="none" d="
M -346.4 111.75
L -346.5 111.9
Q -346.5 112 -346.5 112.05 -346.5 112.15 -346.5 112.2 -346.5 112.3 -346.5 112.35 -346.5 112.45 -346.5 112.5 -346.5 112.6 -346.5 112.65 -346.5 112.75 -346.5 112.8 -346.5 112.9 -346.5 112.95 -346.5 114.05 -346.5 115.35 -346.5 117.45 -346.45 119.95
L -346.4 120.9
Q -346.45 116.3 -346.45 113 -346.45 112.4 -346.4 111.75
M -347.5 12.25
L -346.45 9.6
Q -346.75 10.2 -347 10.8
L -347.45 12
Q -347.5 12.1 -347.55 12.2 -351.75 22.8 -351.45 43.7 -351.25 56.65 -348.6 83.4
L -348.55 83.35
Q -351.2 56.7 -351.4 43.75 -351.7 22.85 -347.5 12.25
M -309.5 51.35
L -310 51.85
Q -314.5 56.75 -318.95 62.1 -319.8 63.1 -320.6 64.1
L -320.7 64.25
Q -319.85 63.2 -318.95 62.15 -314.25 56.5 -309.5 51.35
M -394.1 -10
Q -393.95 -6 -393.75 -1.8 -393.4 5 -392.9 12.25 -391.1 36.95 -396.35 36.3 -399.5 35.9 -411.25 20.65 -414.75 16.2 -418.9 10.25 -421.5 6.55 -424.3 2.3 -428.2 7.45 -433.35 8.4
L -434.4 7.3
Q -429.5 12.85 -425.25 18.2 -408.85 39 -402.45 56.7 -397.7 69.7 -399.2 76.1 -421.4 58.1 -438.95 49.65
L -438.95 49.7
Q -433.5 52.3 -427.35 56 -427.7 61.45 -431.05 67.55 -434.2 65.6 -438.15 63.4 -438.2 63.4 -438.2 63.5 -420.8 73.4 -413.5 80.95 -407.2 87.4 -403.6 97.7 -401.85 102.75 -400.75 108.8 -398.45 121.65 -396.65 184 -396.45 191.9 -396.25 200.6 -395.6 230.2 -395.2 258.05 -395.15 263.5 -395.05 268.9 -395.05 270.35 -395.05 271.75
L -395.05 271.8
Q -394.85 272.2 -394.3 272.2 -393.9 272.2 -393.7 271.75 -392.65 269.85 -391.05 266.1 -389.45 262.1 -388.55 260.3 -388.65 261.9 -388.55 263.65 -388.1 266.8 -387.9 267.55 -387.35 269.95 -386.1 271 -385.4 271.45 -384.95 271 -379.7 264.8 -375.45 261 -375.5 259.15 -375.5 257.35 -376.1 225.2 -377 203.05 -377.15 198.9 -377.35 193.95 -378.2 171.8 -379.3 132.7 -379.9 111.35 -380.45 94.7 -381.15 75.35 -381.7 62.3 -382 53.15 -383.8 30.8 -385.4 10.65 -385.6 -0.8 -385.6 -1.9 -385.55 -2.95 -385.55 -8.1 -385.5 -12.05 -389.95 -9.9 -394.1 -10
M -382.85 -25.1
Q -382.9 -25.05 -382.95 -25 -382.8 -19.5 -382.55 -13.75
L -382.55 -13.7
Q -382.3 -8.1 -381.95 -3.2 -381.25 6.75 -380.25 13.8 -377.4 33.3 -374.05 38.35 -373.9357421875 38.5021484375 -373.85 38.6 -373.925 38.5125 -374 38.4 -377.35 33.35 -380.2 13.85 -381.15 7.3 -381.85 -3.2 -382.35 -10.75 -382.7 -20.3
L -382.85 -25.1
M -434.65 -13.95
Q -434.65 -13.85 -434.6 -13.8 -433.65 -12.2 -432.6 -10.6
L -434.65 -13.95
M 478.5 79.4
Q 478.45 77.55 478.35 75.6 478.3 75.6 478.3 75.65 478.4 77.6 478.5 79.4
M 478.05 68.1
Q 478.15 70.55 478.25 73.05 478.25 72.2 478.2 71.3
L 478.1 68.05 478.05 68.1
M 444.25 75.45
Q 444.25 75.55 444.3 75.7 447.45 80.8 450.95 86.05 448.45 89.4 445.05 90.05 460.15 107.35 465.25 121.6 468.3 130.1 467.35 134.3 457.4 126.3 448.95 121.2 448.85 124.9 446.5 128.8 446.05 128.5 445.5 128.2 454.05 133.35 458.05 137.45 464.2 143.85 466.45 155.75 468.5 167.3 469.6 224.1 469.85 236.65 470.05 251.45 470.1 255.85 470.15 260.45 470.15 261.45 470.2 262.5 470.6 263.05 471 262.45 472.4 260 474.4 254.95
L 474.4 257.05
Q 474.9 260.95 475.95 261.9 476.5 262.45 476.7 261.9 480.45 257.7 483 255.4 482.95 253.5 482.95 251.65 482.7 238.15 482.35 226.9 482.15 222 481.95 217.5 481.35 203.2 480.5 171.5 479.65 141.55 478.9 125.35 478.7 120.2 477.55 104.65 476.5 91.75 476.4 84
L 476.4 76.6
Q 473.35 78 470.75 77.95 471 84.95 471.6 92.6 472.75 108.7 469.25 108.25 467.15 108.05 459.5 98.05 454.35 91.35 446.9 79.7
L 444.25 75.45
M 498.75 111.9
L 498.75 113.2
Q 498.75 113.35 498.75 113.5
L 498.85 116.65
Q 498.9 117.25 498.95 117.85 498.85 115.25 498.8 113.2 498.76875 112.54375 498.75 111.9
M 502.1 156.25
Q 502.15 155.8 502.2 155.4 502.15 155.65 502.1 155.95
L 502.1 156.25 Z"/>

<path fill="#71530D" stroke="none" d="
M -438.95 49.7
Q -437.1 54.3 -437.2 58.1 -437.25 61.25 -438.2 63.35
L -438.15 63.4
Q -434.2 65.6 -431.05 67.55 -427.7 61.45 -427.35 56 -433.5 52.3 -438.95 49.7
M -382.95 -25
Q -383 -25.05 -382.95 -25.1 -385.45 -23.55 -388.65 -23.9 -391.95 -24.25 -394.5 -26.25
L -394.5 -26.2
Q -394.45 -22.6 -394.35 -18.55
L -394.1 -10
Q -389.95 -9.9 -385.5 -12.05 -385.55 -8.1 -385.55 -2.95 -385.6 -1.9 -385.6 -0.8 -385.4 10.65 -383.8 30.8 -382 53.15 -381.7 62.3 -381.15 75.35 -380.45 94.7 -379.9 111.35 -379.3 132.7 -378.2 171.8 -377.35 193.95 -377.15 198.9 -377 203.05 -376.1 225.2 -375.5 257.35 -375.5 259.15 -375.45 261 -375.4 267.25 -375.3 273.95
L -342.75 272.3 -342.7 272.3
Q -342.75 270.75 -342.8 269.25 -342.8 268.9 -342.8 268.6
L -342.9 264.55 -343 262.2
Q -343.05 261.65 -343.05 261.1
L -343.15 256.25 -343.2 254.8
Q -343.95 229.25 -344.5 208.1 -346 150.4 -346.35 124.8
L -346.4 120.9 -346.45 119.95
Q -346.5 117.45 -346.5 115.35 -346.5 114.05 -346.5 112.95 -346.5 112.9 -346.5 112.8 -346.5 112.75 -346.5 112.65 -346.5 112.6 -346.5 112.5 -346.5 112.45 -346.5 112.35 -346.5 112.3 -346.5 112.2 -346.5 112.15 -346.5 112.05 -346.5 112 -346.5 111.9
L -346.4 111.75 -345.7 110.4 -320.7 64.25 -320.6 64.1
Q -319.8 63.1 -318.95 62.1 -314.5 56.75 -310 51.85
L -309.5 51.35 -305.15 46.9
Q -306.5 44.05 -305.95 40.55 -307.95 40.25 -309.55 38.7 -309.7 38.55 -309.85 38.4 -310.55 39.2 -311.3 40.05
L -316.1 45.45
Q -320.15 50.05 -324.8 55.4 -325.55 56.25 -326.25 57.1
L -347 81.5
Q -347.8 82.45 -348.55 83.35
L -348.6 83.4
Q -351.25 56.65 -351.45 43.7 -351.75 22.8 -347.55 12.2 -347.5 12.1 -347.45 12
L -347 10.8
Q -346.75 10.2 -346.45 9.6
L -345.4 6.95 -341.1 -4
Q -340.75 -4.85 -340.4 -5.75
L -336.3 -16.3 -336.3 -16.35
Q -337.1 -19.5 -335.05 -24.05
L -336.85 -23.95
Q -339.5 -23.95 -341.45 -25.4 -343.35 -26.75 -344.4 -28.85 -345.4 -26.6 -346.4 -24.15 -351.6 -11.55 -355.75 0.85 -359.4 11.6 -362.3 22.2 -365.35 33.25 -368 37.6
L -373.15 39.5 -373.8 38.7 -373.85 38.6
Q -373.9357421875 38.5021484375 -374.05 38.35 -377.4 33.3 -380.25 13.8 -381.25 6.75 -381.95 -3.2 -382.3 -8.1 -382.55 -13.7
L -382.55 -13.75
Q -382.8 -19.5 -382.95 -25
M -436.35 -6.3
Q -437.1 -5.15 -437.95 -4.15
L -439.65 -2.35 -440.2 -1.9
Q -441 -1.2 -441.85 -0.65
L -441.85 -0.6 -434.4 7.3 -433.35 8.4
Q -428.2 7.45 -424.3 2.3 -427.3 -2.25 -430.6 -7.4
L -432.6 -10.6
Q -433.65 -12.2 -434.6 -13.8 -434.15 -9.8 -436.35 -6.3
M 448.95 121.15
Q 447.95 120.55 447 120
L 441.4 117.05 441.35 117
Q 441.55 117.55 441.75 118.15
L 442.45 122.6 442.45 122.65 442.3 124.55
Q 442.15 125.35 441.9 126.05
L 441.9 126.1 445.5 128.2
Q 446.05 128.5 446.5 128.8 448.85 124.9 448.95 121.2
L 448.95 121.15
M 444.3 75.7
L 444.25 75.65
Q 444.3 76.2 444.25 76.8
L 443.25 80.1
Q 443.2 80.15 443.2 80.2 443.1 80.3 443.05 80.4
L 441.4 82.55
Q 440.5 83.45 439.45 84.15
L 439.5 84.15 445 90.05 445.05 90.05
Q 448.45 89.4 450.95 86.05 447.45 80.8 444.3 75.7
M 641 53.95
Q 640.5 57.1 639.2 60.35 634.3 72.85 624.85 77.8 618.5 81.05 611.3 80.75 611.4 80.85 611.55 81
L 613.25 83.45
Q 613.75 84.8 613.5 86.2 613.05 88.4 610.05 89.45 610.45 89.65 610.8 89.9
L 613.85 92 618.15 98.15
Q 618.65 99.35 618.95 100.7 620.65 108.05 616.55 116.15 606.75 135.45 578.4 140.4 552.9 144.8 540.8 134.75 540.75 134.75 540.75 134.7 540.1 134.1 539.5 133.5
L 539.25 133.2
Q 536.9 130.8 535.55 128.05 535.4 127.8 535.3 127.55
L 535 126.9
Q 534.8 126.4 534.65 125.95 533.3 121.65 534.45 118.85 532.3 119.1 530.3 117.2 530.3 117.15 530.25 117.15
L 529.85 116.7
Q 529.7 116.5 529.6 116.35
L 528.9 115.15
Q 528.1 113.35 528.45 111.3 528.45 111.25 528.45 111.2 527.65 111 527 110.55
L 526.2 109.95 526.15 109.9
Q 526.1 109.85 526.05 109.8 525.95 109.7 525.9 109.65 523.95 111.8 521.75 114.3
L 515.85 121.1
Q 515.35 121.7 514.85 122.3
L 500.55 139.15 498.95 117.85
Q 498.9 117.25 498.85 116.65
L 498.75 113.5
Q 498.75 113.35 498.75 113.2
L 498.75 111.9 498.75 109.9 501.3 92.6 508.55 73.95
Q 507.95 71.8 509.45 68.85 506.8 69.15 505.15 67.9 504.85 67.7 504.55 67.45 503.7 66.7 503.25 65.75 503.15 65.95 503.1 66.15
L 502.15 68.3
Q 497.65 79.1 493.7 91.85 493.7 91.9 493.7 91.95 492.6 95.55 491.6 99.1 488.35 110.85 485.65 110.9 482.35 110.8 479.85 93.55 479.7 92.55 479.55 91.45
L 478.5 79.4
Q 478.4 77.6 478.3 75.65 478.3 75.6 478.35 75.6
L 478.4 75.55
Q 478.35 74.3 478.25 73.05 478.15 70.55 478.05 68.1
L 478.05 68.05
Q 476.4 69.15 474.25 68.85 472.6 68.65 471.25 67.85 470.85 67.65 470.5 67.35 470.5 72.1 470.7 77.95
L 470.75 77.95
Q 473.35 78 476.4 76.6
L 476.4 84
Q 476.5 91.75 477.55 104.65 478.7 120.2 478.9 125.35 479.65 141.55 480.5 171.5 481.35 203.2 481.95 217.5 482.15 222 482.35 226.9 482.7 238.15 482.95 251.65 482.95 253.5 483 255.4 483.05 259.55 483.1 263.9
L 494.95 263.25 494.95 263.3 504.3 262.75 504.35 262.75
Q 504.3 261.75 504.3 260.8 504.25 259.35 504.25 258
L 504.1 252.1 503.6 231.95
Q 546.35 243 577.55 257.75 611.05 263.6 636.3 276.1 638.75 277.3 641 278.55
L 641 53.95
M 502.2 155.4
Q 502.15 155.8 502.1 156.25
L 502.1 155.95
Q 502.15 155.65 502.2 155.4 Z"/>

<path fill="url(#Gradient_1)" stroke="none" d="
M -446.3 67.4
Q -446.15 68.3 -446.05 69.2
L -445.95 70.9 -446.3 74.2
Q -446.65 75.85 -447.4 77.5 -449 80.95 -452.25 82.2 -455.7 83.55 -458.65 80.95
L -459.7 80
Q -463.95 89.15 -473.9 97.3 -465.95 100.6 -455.65 102.65 -430.15 107.7 -405.35 98.35 -404.45 98 -403.6 97.7 -407.2 87.4 -413.5 80.95 -420.8 73.4 -438.2 63.5 -440.3 67.95 -446.3 67.4
M -399.2 76.1
Q -397.7 69.7 -402.45 56.7 -408.85 39 -425.25 18.2 -427.95 22.7 -429.3 27.65 -430 30.6 -430.15 32.45 -436.5 29.95 -442.3 28.65 -445.4 31.75 -450.05 32.95 -448.6 34.2 -447 36.15 -443 41.15 -440.35 46.5 -439.55 48.1 -438.95 49.65 -421.4 58.1 -399.2 76.1
M -396.35 36.3
Q -391.1 36.95 -392.9 12.25 -393.4 5 -393.75 -1.8 -409.55 1.25 -418.9 10.25 -414.75 16.2 -411.25 20.65 -399.5 35.9 -396.35 36.3
M -362.3 22.2
Q -359.4 11.6 -355.75 0.85 -367.05 -3.95 -381.85 -3.2 -381.15 7.3 -380.2 13.85 -377.35 33.35 -374 38.4 -373.925 38.5125 -373.85 38.6
L -373.8 38.7 -373.15 39.5 -368 37.6
Q -365.35 33.25 -362.3 22.2
M -303.45 49.45
Q -304.5 48.25 -305.15 46.9
L -309.5 51.35
Q -314.25 56.5 -318.95 62.15 -319.85 63.2 -320.7 64.25
L -345.7 110.4
Q -341.35 110.7 -336.75 110.4 -319 109.35 -309 99.6 -304.1 94.75 -302.7 90.05
L -294.3 94.15
Q -283.8 97.8 -273.5 95.9 -263.2 94 -256.6 88.05 -256.2 87.7 -255.85 87.35 -275.5 86.4 -287.1 76.65 -289.35 74.75 -291.05 72.6
L -294.1 68.2 -295.5 65.35
Q -295.9 64.45 -296.2 63.55 -298.5 57 -296.7 52.4 -298.4 52.65 -300 52
L -303.1 49.85
Q -303.1 49.8 -303.15 49.8
L -303.45 49.45
M -308.8 15.3
Q -315.5 14.5 -323 15.55
L -335.6 18.7
Q -338.35 12.55 -345.4 6.95
L -346.45 9.6 -347.5 12.25
Q -351.7 22.85 -351.4 43.75 -351.2 56.7 -348.55 83.35 -347.8 82.45 -347 81.5
L -326.25 57.1
Q -325.55 56.25 -324.8 55.4 -320.15 50.05 -316.1 45.45
L -311.3 40.05
Q -310.55 39.2 -309.85 38.4 -312.9 35.05 -313.1 29.35 -313.2 24.2 -311 19.35 -310 17.1 -308.8 15.3 Z"/>

<path fill="url(#Gradient_2)" stroke="none" d="
M -438.9 11.25
Q -437.9 13.6 -437.6 15.8
L -437.65 19.95 -437.8 20.55
Q -438 21.45 -438.35 22.35 -439.8 26.1 -442.3 28.65 -436.5 29.95 -430.15 32.45 -430 30.6 -429.3 27.65 -427.95 22.7 -425.25 18.2 -429.5 12.85 -434.4 7.3
L -441.85 -0.6
Q -443.8 0.6 -446 1.2 -441.1 5.55 -438.9 11.25
M -335.6 -14.6
Q -336.1 -15.4 -336.3 -16.3
L -340.4 -5.75
Q -340.75 -4.85 -341.1 -4
L -345.4 6.95
Q -338.35 12.55 -335.6 18.7
L -323 15.55
Q -315.5 14.5 -308.8 15.3 -308.55 14.85 -308.2 14.4 -311.95 15.4 -315.6 14.65 -316.5 14.45 -317.3 14.15
L -318.8 13.45
Q -320.65 12.45 -322.1 10.9 -322.1 10.85 -322.15 10.85
L -325.65 4.15
Q -326.05 2.8 -326.25 1.3 -327.05 -4.3 -325.4 -9.3
L -324.45 -11.75
Q -327.35 -10.75 -330.1 -11.2 -330.4 -11.25 -330.65 -11.3 -330.95 -11.35 -331.2 -11.4
L -331.75 -11.55
Q -333.2 -12.05 -334.25 -12.95
L -334.95 -13.7
Q -335.3 -14.1 -335.6 -14.6
M -378.2 -27
Q -378.8 -28 -379.25 -29.1 -380.4 -26.95 -382.5 -25.35 -382.65 -25.2 -382.85 -25.1
L -382.7 -20.3
Q -382.35 -10.75 -381.85 -3.2 -367.05 -3.95 -355.75 0.85 -351.6 -11.55 -346.4 -24.15 -345.4 -26.6 -344.4 -28.85 -344.75 -29.55 -345 -30.25 -348.25 -25.05 -354.45 -22.1 -360.65 -19.15 -366.85 -19.8 -371.05 -20.2 -374.4 -22.7 -374.6 -22.85 -374.8 -23.05
L -375.85 -23.95 -378.2 -27
M -433.8 -15.1
L -433.9 -15.25
Q -434.95 -16.5 -435.45 -17.2 -434.85 -15.55 -434.65 -13.95
L -432.6 -10.6 -430.6 -7.4
Q -427.3 -2.25 -424.3 2.3 -421.5 6.55 -418.9 10.25 -409.55 1.25 -393.75 -1.8 -393.95 -6 -394.1 -10
L -394.35 -18.55
Q -394.45 -22.6 -394.5 -26.2 -394.55 -26.3 -394.65 -26.35 -394.7 -24.6 -394.95 -23.05
L -395.6 -20.2 -395.7 -20.05
Q -396.6 -17.55 -398.2 -15.85
L -398.25 -15.75
Q -399.95 -13.9 -402.55 -13.05 -404.05 -12.55 -405.4 -12.4
L -407.85 -12.4 -409.25 -12.75
Q -409.95 -13 -410.6 -13.4 -413.25 -15.1 -414.4 -19.25 -415.25 -16.4 -417.05 -14.3 -420.6 -9.8 -425.35 -10.2 -426.5 -10.3 -427.6 -10.7
L -433.75 -15.05
Q -433.8 -15.05 -433.8 -15.1
M 439.5 84.15
Q 438.25 84.95 436.8 85.35
L 440.6 90.15
Q 441.05 91.05 441.45 92 443 95.95 441.85 99.1 439.55 104.7 434.1 106.15 434.15 106.2 434.25 106.3 435.6 107.45 436.2 108.25 439.85 113 441.4 117.05
L 447 120
Q 447.95 120.55 448.95 121.15
L 448.95 121.2
Q 457.4 126.3 467.35 134.3 468.3 130.1 465.25 121.6 460.15 107.35 445.05 90.05
L 445 90.05 439.5 84.15
M 444.8 74.65
Q 444.75 74.65 444.75 74.6
L 443.65 73.25
Q 444.1 74.35 444.25 75.45
L 446.9 79.7
Q 454.35 91.35 459.5 98.05 467.15 108.05 469.25 108.25 472.75 108.7 471.6 92.6 471 84.95 470.75 77.95
L 470.7 77.95
Q 470.5 72.1 470.5 67.35 470.45 67.35 470.4 67.3 470.2 74.25 465.25 76 463.55 76.55 462.2 76.5
L 460.75 76.2
Q 459.3 75.7 458.45 74.3
L 457.65 72.6 457.65 72.5
Q 457.6 72.45 457.6 72.4 457.6 72.35 457.6 72.3 457.55 72.25 457.55 72.2
L 457.55 72.15
Q 457.5 72.1 457.5 72.05
L 457.5 72
Q 457.1 72.95 456.7 73.7
L 455.85 75.05
Q 455.75 75.1 455.7 75.15 453.4 78.1 450.25 77.8
L 450.2 77.8
Q 449.95 77.8 449.7 77.75 448.5 77.55 447.4 76.9
L 444.8 74.65
M 512.1 77.1
Q 511.95 77.05 511.8 77.05 509.95 76.55 509.05 75.05 508.85 74.7 508.7 74.3 508.6 74.1 508.55 73.95
L 501.3 92.6 498.75 109.9 498.75 111.9
Q 498.76875 112.54375 498.8 113.2 498.85 115.25 498.95 117.85
L 500.55 139.15 514.85 122.3
Q 515.35 121.7 515.85 121.1
L 521.75 114.3
Q 523.95 111.8 525.9 109.65
L 524.35 107.1
Q 524.2 106.65 524.1 106.2 523.85 105.2 523.8 104.05 523.75 103.9 523.75 103.7 523.65 100.35 525.1 97.2 526.05 95.2 527 94 526.25 94.15 525.6 94.3
L 524.25 94.4
Q 520.35 94.55 517.85 91.65 515.85 89.3 515.3 85.75 515.3 85.55 515.25 85.35 515.2 85.15 515.2 85 515.1 84.05 515.1 83.2
L 515.15 81.45
Q 515.2 80.6 515.4 79.75 515.4 79.65 515.45 79.6 515.45 79.55 515.45 79.5 515.45 79.4 515.5 79.35 515.5 79.3 515.5 79.25 515.55 79.15 515.55 79.1 515.6 79 515.6 78.9 515.65 78.8 515.65 78.75 515.65 78.65 515.7 78.55 515.75 78.5 515.75 78.4
L 516.3 76.75
Q 514.5 77.55 512.7 77.25 512.6 77.2 512.55 77.2 512.45 77.2 512.4 77.2
L 512.1 77.1
M 488.55 71.6
Q 488.4 71.6 488.25 71.6 486.7 71.4 485.35 70.75
L 484.9 70.55
Q 484.25 70.2 483.6 69.7 481.4 68 480.5 65.55 479.35 67.3 478.3 67.9 478.2 68 478.1 68.05
L 478.2 71.3
Q 478.25 72.2 478.25 73.05 478.35 74.3 478.4 75.55
L 478.35 75.6
Q 478.45 77.55 478.5 79.4
L 479.55 91.45
Q 479.7 92.55 479.85 93.55 482.35 110.8 485.65 110.9 488.35 110.85 491.6 99.1 492.6 95.55 493.7 91.95 493.7 91.9 493.7 91.85 497.65 79.1 502.15 68.3
L 503.1 66.15
Q 503.15 65.95 503.25 65.75 503.15 65.6 503.1 65.5 503.05 65.35 503.05 65.3 502.95 65.05 502.9 64.8 500.75 68.15 496.7 70.15 494.7 71.1 492.65 71.45
L 488.55 71.6
M 641 -106.1
Q 637.35 -105.4 633.1 -104.9 623.75 -103.85 612.6 -103.75
L 603.25 -103.85
Q 601.6 -101.2 596.95 -98.15 587.95 -92.2 573.95 -90.3 560 -88.4 545.7 -92.2
L 534.25 -96.3
Q 532.7 -92.45 527.95 -88.45 535.7 -85.65 543.4 -80.9 563.8 -68.3 569.7 -53.6 573.25 -44.8 571.15 -37
L 571.8 -37.65
Q 576.1 -40.7 579.85 -38.25 582.5 -36.7 581.75 -33.25
L 581.95 -33.35
Q 584.3 -33.65 586.7 -32.2 589.2 -30.6 589.75 -28.4 590.6 -24.6 586.4 -21.05 601.95 -17.7 598.65 -2.55 597 5 592.25 11.95 610.1 9.65 625.5 22.35 629.2 25.25 632.1 28.65 639.6 37 641 45.7
L 641 -106.1
M 268.6 -109.85
L 267.25 -113.3
Q 246.75 -109.6 225 -109 181.75 -107.75 176.2 -122.65 173.05 -131.15 185 -137.25 195.6 -142.7 215.25 -144.9 233.95 -147.1 252.65 -145.45 272.4 -143.75 283.1 -138.5
L 286.45 -143.45
Q 291.2 -149.1 298.45 -152.9 321.65 -164.95 360.75 -153.75 360.85 -155.6 361.9 -158.55 364 -164.35 368.6 -169.5 383.4 -185.85 418.1 -188.9 452.85 -192.05 474.6 -180.1 485.5 -174.1 489.4 -167.5
L 506.65 -170.65
Q 527.1 -172.85 543.1 -167.5 559.15 -162.25 563.65 -148.6 565.85 -141.75 564.95 -136
L 576.15 -138.7
Q 591 -141.45 609.15 -141.35 627.5 -141.2 641 -137.6
L 641 -361.6 -641 -361.6 -641 142.25
Q -608.65 146.9 -561.7 153.3 -418 172.95 -410.45 176.85 -402.9 180.75 -396.65 184 -398.45 121.65 -400.75 108.8 -401.85 102.75 -403.6 97.7 -404.45 98 -405.35 98.35 -430.15 107.7 -455.65 102.65 -465.95 100.6 -473.9 97.3 -476.2 99.15 -478.8 101 -492.7 110.9 -509.6 115.3 -527.85 120.15 -543.75 116.75 -561.7 113.1 -573.05 99.55 -574.8 97.4 -576.3 95.3
L -586.95 66.35 -586.4 60.1
Q -586.35 59.6 -586.25 59.15 -583.65 45.75 -572.35 34.4 -577.35 34.75 -580.7 31.15 -581.45 30.3 -582 29.35
L -583.65 23.65 -583.3 20.65
Q -583.2 20.1 -583 19.55 -581.2 13.7 -575.5 9.4 -578.7 9.1 -581 6.6 -582.1 5.4 -582.35 3.8
L -582.4 1.8 -582.2 0.55
Q -581.75 -1.35 -580.5 -2.95 -579.05 -4.6 -578.25 -5.2 -595.6 -8 -605.9 -18.65 -606.7 -19.45 -607.4 -20.3
L -618.35 -53.8 -617.95 -62.35
Q -617.95 -62.7 -617.9 -63.05
L -617.85 -63.25
Q -614.25 -97.1 -580.15 -120.4 -583.1 -125.65 -582.9 -131.55 -582.7 -137.85 -579 -141.85 -573.65 -147.7 -566.4 -146.55 -568.85 -150.35 -569.25 -154.35 -569.65 -158.95 -567.05 -162 -564.2 -165.25 -559.5 -164.2 -555.3 -163.35 -551.6 -159.6 -552 -161.5 -552.45 -165.25 -554.35 -183.2 -546.9 -186.15 -542.45 -187.95 -538.15 -185.2 -534.5 -182.9 -532.15 -178.3 -528.5 -210.3 -500.75 -230.9 -480.8 -245.7 -458.45 -244.35 -443.95 -243.5 -430.8 -236.25
L -430.9 -237.2
Q -431 -240.25 -429.85 -242.65 -428.6 -245.5 -426 -246.25 -422 -247.4 -417.25 -244.25 -417.25 -249.3 -414.65 -252.85 -411.8 -256.85 -406.75 -257.5 -403.1 -257.9 -400.05 -255.5 -397.3 -253.3 -396.05 -249.6 -390.9 -255.9 -380.5 -261.15 -379.85 -261.45 -379.25 -261.75 -381.35 -264.15 -382.65 -266.6
L -384 -270.05
Q -404.6 -266.35 -426.25 -265.75 -469.5 -264.5 -475.05 -279.5 -478.15 -287.95 -466.45 -294 -466.35 -294.05 -466.25 -294.1 -455.65 -299.45 -436 -301.65 -417.3 -303.85 -398.6 -302.2 -378.95 -300.5 -368.25 -295.25
L -364.9 -300.2
Q -360.15 -305.85 -352.9 -309.65 -329.7 -321.7 -290.6 -310.6 -290.5 -312.5 -289.45 -315.3 -287.35 -321.1 -282.75 -326.25 -267.95 -342.5 -233.15 -345.65 -198.5 -348.7 -176.65 -336.85 -165.85 -330.85 -161.85 -324.25
L -144.6 -327.4
Q -124.25 -329.5 -108.3 -324.25 -92.2 -319.1 -87.7 -305.35 -85.65 -299.25 -86.15 -294 -86.2 -293.35 -86.3 -292.75
L -75.1 -295.45
Q -60.25 -298.2 -42.2 -298.1 -22.9 -297.95 -9.1 -294 -6.65 -293.3 -4.4 -292.5 11.7 -286.85 11.7 -277.9 11.7 -265.3 -18.15 -261.65 -27.6 -260.6 -38.75 -260.5
L -48.1 -260.6
Q -49.75 -257.95 -54.3 -255 -63.3 -249.05 -77.3 -247.15 -91.35 -245.15 -105.65 -248.95
L -117.1 -253.05
Q -119 -248.3 -125.7 -243.35 -139.15 -233.6 -163.4 -232.55 -193.55 -231.2 -214.8 -243.05 -221.5 -246.7 -226.45 -251.35
L -230 -255.15
Q -240 -249.45 -256.8 -244.75 -262.3 -243.25 -267.8 -242.1 -249.5 -227.4 -242.9 -210.95 -237.55 -197.4 -240.8 -185.75
L -239.75 -186.7
Q -236.8 -188.8 -233.65 -189.1 -230.3 -189.55 -227.35 -187.75 -223.35 -185.2 -224.5 -179.95
L -224.1 -180.05
Q -220.65 -180.6 -216.95 -178.4 -213.15 -176 -212.35 -172.6 -210.95 -166.4 -217.5 -161.4 -193.75 -156.25 -198.65 -133.1 -201.2 -121.45 -208.45 -110.95 -194.15 -112.85 -178.6 -106.95 -173.15 -104.9 -168.15 -102.05
L -163 -98.95 -157.45 -94.9
Q -146.55 -86.4 -140.05 -74.8 -135.85 -67.15 -134.45 -59.65
L -134.75 -43.05 -135.6 -40
Q -136.1 -38.45 -136.7 -36.9 -144.35 -17.9 -158.75 -10.2 -168.25 -5.25 -179.2 -5.7 -177.6 -4.2 -176.75 -2.5
L -175.95 0.95 -175.95 1.3
Q -176 1.9 -176.1 2.5 -176.7 5.8 -181.15 7.5 -170.2 13.15 -167.7 24.55 -167.5 25.45 -167.35 26.3
L -166.9 31.35 -169.4 43.85
Q -170.2 46 -171.35 48.2 -178 61.2 -192.15 70.85 -207.9 81.6 -229.65 85.35 -244.15 87.9 -255.85 87.35 -256.2 87.7 -256.6 88.05 -263.2 94 -273.5 95.9 -283.8 97.8 -294.3 94.15
L -302.7 90.05
Q -304.1 94.75 -309 99.6 -319 109.35 -336.75 110.4 -341.35 110.7 -345.7 110.4
L -346.4 111.75
Q -346.45 112.4 -346.45 113 -346.45 116.3 -346.4 120.9
L -346.35 124.8
Q -346 150.4 -344.5 208.1 -333.45 211.75 -323.45 213.6 -295.4 218.85 -266.95 210.15 -244.25 203.2 -218 186 -209.9 180.75 -193.95 169.2 -179.35 159.6 -166.85 155.95 -155.6 152.7 -142.7 153.45 -132.1 153.95 -118.45 157.4 -104.25 161 -85.95 171.4 -75.55 177.35 -55.1 190.2 -37 200.7 -23.6 204.25 -6.05 209 10.35 204.25 21.5 201.1 42.5 180.3 68.25 154.8 71.4 152.6 84.2 143.55 91.85 139.75 104.05 133.55 116.15 132.85 133.15 131.9 155.85 136.85 168 139.45 194.05 147.25 205.1 150.55 219.5 155.4 219.45 155.3 219.4 155.25 239.25 161.95 274.95 175.2 314.35 190.1 340.4 196.75 364.85 203.15 403.85 210.8 444 218.65 469.6 224.1 468.5 167.3 466.45 155.75 464.2 143.85 458.05 137.45 454.05 133.35 445.5 128.2
L 441.9 126.1
Q 440.6 129 436.6 128.75 437.35 132.2 435.85 135.25 434.7 137.55 432.7 138.4 430.95 139.05 429.45 138.25
L 427.75 136.95
Q 424.3 144.3 415.25 150.7 406.25 157.1 395.1 160.05 391.7 160.95 388.55 161.4
L 353.6 149.75
Q 353.55 149.75 353.55 149.7 342.45 136.35 344.95 123.25 346.65 114.55 354.05 107.1 352.4 107.2 351.1 106.65
L 348.7 104.9
Q 348.7 104.85 348.65 104.85
L 346.8 101.35
Q 346.35 99.45 347.05 97.3 348.2 93.5 352 90.7 351.85 90.7 351.75 90.65
L 351.55 90.65
Q 349.6 90.25 348.35 88.85 348.35 88.8 348.3 88.8 347.15 87.65 347.5 85.75 347.6 83.95 348.75 82.6
L 350.2 81.15
Q 349 80.95 347.9 80.7
L 341.55 78.7
Q 336 76.35 332.1 72.35 332.1 72.3 332.05 72.3
L 323.95 47.95
Q 324 45.7 324.25 43.3
L 324.6 41
Q 327.8 20.35 348.9 5.75 347 2.25 347.1 -1.6 347.2 -5.7 349.65 -8.35 353.5 -12.2 357.9 -11.4 356.35 -13.8 356.15 -16.55 355.8 -19.55 357.5 -21.45 359.4 -23.55 362.45 -22.95 365.15 -22.4 367.6 -20
L 367.05 -23.55
Q 365.8 -35.35 370.75 -37.3 373.7 -38.5 376.5 -36.7 378.95 -35.1 380.4 -32.05 382.8 -53.3 401 -66.65 414 -76.4 428.6 -75.45 438.15 -74.8 446.7 -70.1
L 446.7 -70.75
Q 446.6 -72.7 447.3 -74.3 448.15 -76.2 449.85 -76.6 452.65 -77.35 455.6 -75.35 455.6 -77.1 456.1 -78.6 445.45 -81.25 436.45 -86.3 429.75 -89.95 424.9 -94.6
L 421.25 -98.4
Q 411.35 -92.7 394.45 -88 360.75 -78.65 325.95 -83.65 291.2 -88.6 275.75 -101.4 270.9 -105.5 268.6 -109.85 Z"/>

<path fill="#237612" stroke="none" d="
M -154.25 246.6
Q -155.5 246.05 -156.25 246.5 -157.1 247.1 -155.8 249 -155.2 249.85 -154.6 250.5 -153.9 251.2 -153.2 251.65
L -135.45 251.75
Q -134.45 250.8 -133.65 250.05 -131.5 247.85 -131.65 247.35 -131.85 246.8 -133.85 247.75
L -135.75 248.7
Q -135.25 243.15 -135.95 242.7 -136.4 242.4 -137.45 244.3 -137.95 245.25 -138.4 246.3 -139.2 241.45 -140.5 241.45 -142.25 241.45 -142.5 246.05 -144.6 243.15 -147 242.9 -149.5 242.7 -148.25 245.85 -150.35 243.95 -152.25 244.3 -154.15 244.7 -153.1 247.2 -153.6 246.9 -154.25 246.6
M -141.45 247.2
Q -141.2 244.4 -140.15 244.6 -138.4 244.9 -138.3 249.95 -138.05 248.9 -137.75 247.85 -137.25 245.65 -136.7 245.65 -136.3 245.65 -136.6 247.95 -136.7 249 -137 250.15
L -136.95 250.15
Q -136.4 249.75 -135.65 249.35 -134.3 248.5 -133.95 248.8 -133.55 249.05 -134.7 250.1 -135.4 250.7 -136.6 251.55
L -151.95 251.55
Q -152.4 251 -152.8 250.45 -153.05 250.1 -153.3 249.75 -154.55 248.05 -153.8 248.15 -152.55 248.25 -149.3 250.15 -149.95 249.35 -150.45 248.4 -151.5 246.5 -150.55 246.3 -149.6 246.05 -147.3 248.05 -146.15 249.1 -145.2 250.15 -145.65 248.9 -145.95 247.75 -146.35 245.35 -145.2 245.55 -143.4 245.85 -141.55 250.15 -141.65 248.7 -141.45 247.2
M -43.2 253.4
Q -42.6 253.75 -41.85 253.95
L -31.45 253.65
Q -30.45 251.25 -30.2 249.9 -29.95 248.5 -30.5 248.15 -31.15 247.85 -32 249.45
L -32.2 249.9 -32.8 251
Q -32.8 250.35 -32.9 249.9 -33.2 247.75 -34.4 247.65 -35.25 247.55 -35.25 248.8 -35.25 249.35 -35.2 249.85 -36.05 246.4 -37.75 246.7 -38.9 247 -38.3 248.6 -38.1 249.25 -37.8 249.8 -37.7 249.95 -37.55 250.15 -38.15 249.85 -38.7 249.8 -38.75 249.75 -38.8 249.75 -40.1 249.4 -40.55 249.75 -40.65 249.8 -40.7 249.85 -41.2 250.25 -40.3 251.45 -39.85 251.95 -39.35 252.35 -42.8 251.45 -43.75 252.25 -44.35 252.8 -43.2 253.4
M -77.25 245.95
Q -77.9 245.65 -78.5 247.1 -78.95 247.85 -79.15 248.7 -79.65 245.55 -80.95 245.35 -81.65 245.25 -81.85 247.35 -81.85 248.4 -81.85 249.45 -83.85 248.05 -85 248.5 -85.5 248.7 -85.5 249.5 -85.55 249.85 -85.45 250.4 -85.25 251.2 -84.9 251.95
L -75.9 251.95
Q -74.35 249.95 -74.55 249.45 -74.55 249.4 -74.6 249.35 -74.8 249.1 -75.4 249.45 -75.65 249.6 -76 249.85 -77.15 250.7 -77.15 250.6 -77.05 250 -76.95 249.45 -76.45 246.35 -77.25 245.95
M -77.8 247.75
Q -77.25 247.75 -77.35 249.45 -77.4 250.3 -77.65 251.55
L -76.85 250.8
Q -75.9 250.05 -75.65 250.15 -75.15 250.4 -76.5 251.85
L -83.35 251.85
Q -83.65 251.2 -83.95 250.6 -84.2 249.8 -84.15 249.5 -84.15 249.2 -83.95 249.2 -83.65 249.2 -83.2 249.5 -82.5 249.9 -81.45 251 -81.45 250.25 -81.4 249.5 -81.4 249.2 -81.35 248.9 -81.15 246.8 -80.5 246.9 -79.65 247 -79.55 249.5 -79.55 250 -79.55 250.7 -79.3 250.1 -79.05 249.5 -79 249.35 -78.95 249.2 -78.2 247.75 -77.8 247.75
M -248.3 253.05
Q -246.6 248.75 -247.6 248.15 -248.25 247.85 -249.1 249.45 -249.6 250.15 -249.95 251 -250.05 247.75 -251.5 247.65 -252.35 247.55 -252.35 248.8 -252.35 249.55 -252.25 250.15 -253.1 246.4 -254.85 246.7 -256.05 247 -255.4 248.6 -255.2 249.45 -254.65 250.15 -255.3 249.85 -255.9 249.75 -257.4 249.35 -257.8 249.85 -258.35 250.25 -257.4 251.45 -256.95 251.95 -256.45 252.35 -257.3 252.15 -258.25 252.05 -260.25 251.75 -260.85 252.25 -261.55 252.8 -260.45 253.4 -254.3 253.2 -248.3 253.05
M -213.15 246.6
Q -213.6 243.65 -212.65 243.75 -211.15 243.85 -211.4 249.65 -211.05 249 -210.75 248.5 -210 247.2 -209.7 247.35 -209.4 247.35 -209.9 249.35 -210.1 250.25 -210.45 251.2 -209.8 250.7 -209.3 250.25 -208 249.45 -207.8 249.75 -207.45 250.2 -209.25 251.9 -209.45 252 -209.6 252.15
L -213.75 252.35 -209.05 252.25
Q -208.8 252.05 -208.55 251.85 -205.75 249.55 -206.35 248.6 -206.75 247.85 -208.15 248.7 -208.85 249.1 -209.5 249.65 -208.15 246.05 -208.95 245.35 -209.6 244.9 -210.35 246.05 -210.65 246.7 -210.95 247.35 -210.25 242.5 -212.65 242.3 -214.1 242.2 -214 244.9 -213.9 246.3 -213.5 247.65 -213.9 247.35 -214.45 247 -215.6 246.5 -216.3 246.8 -217.05 247.1 -216.45 248.15 -216 248.7 -215.6 249.2 -216.1 249 -216.65 248.8 -217.9 248.6 -218.3 249.2 -218.9 250.1 -216.25 252.1 -216.1 252.2 -215.9 252.35
L -214.55 252.35
Q -214.7 252.2 -214.85 252.05 -215.4 251.5 -215.9 251 -217.15 249.55 -216.55 249.55 -215.4 249.55 -214.2 250.8 -214.65 249.95 -214.95 249.1 -215.6 247.35 -215.15 247.2 -214.75 247.1 -213.6 248.4 -213.05 248.9 -212.65 249.55 -212.95 248.05 -213.15 246.6
M 3.95 246.6
Q 3.5 243.65 4.45 243.75 5.95 243.85 5.75 249.65
L 6.35 248.5
Q 7.1 247.2 7.4 247.35 7.8 247.35 7 250.25 6.85 250.7 6.7 251.2
L 7.85 250.25
Q 9.1 249.45 9.3 249.75 9.45 249.9 9.3 250.3 8.95 250.9 7.5 252.15
L 3.55 252.3 8.05 252.25
Q 9.5 251.1 10.2 250.3 11.1 249.2 10.75 248.6 10.35 247.85 9 248.7
L 7.6 249.65
Q 9 246.05 8.15 245.35 7.5 244.9 6.8 246.05
L 6.15 247.35
Q 6.9 242.5 4.45 242.3 3 242.2 3.1 244.9 3.2 246.3 3.65 247.65 1.95 246.3 0.8 246.8 0.05 247.1 0.7 248.15 1 248.7 1.55 249.2 1 249 0.5 248.8 -0.8 248.6 -1.2 249.2 -1.45 249.6 -1.05 250.2 -0.85 250.6 -0.35 251.1 0.35 251.85 1.1 252.35
L 2.6 252.35
Q 1.85 251.65 1.2 251 0.8 250.55 0.6 250.25 0.15 249.55 0.6 249.55 1.45 249.55 2.3 250.25 2.6 250.45 2.9 250.8 2.75 250.5 2.65 250.25 2.35 249.65 2.15 249.1 1.55 247.35 1.95 247.2 2.7 247.1 4.45 249.55 4.15 248.05 3.95 246.6
M 83.25 247.75
L 81.35 248.7
Q 81.9 243.15 81.15 242.7 80.75 242.4 79.7 244.3
L 78.75 246.3
Q 77.9 241.45 76.65 241.45 75.05 241.45 74.55 246.05 72.55 243.15 70.1 242.9 67.6 242.7 68.85 245.85 66.75 243.95 64.85 244.3 62.85 244.7 63.9 247.2 62.05 245.75 60.9 246.5 60.05 247.1 61.3 249 61.9 249.85 62.5 250.5 63.2 251.2 63.9 251.65
L 81.65 251.75
Q 82.35 251.1 82.95 250.5 85.6 247.9 85.45 247.35 85.25 246.8 83.25 247.75
M 81.35 249.35
Q 82.7 248.5 83.15 248.8 83.6 249.1 81.9 250.5 81.3 250.95 80.5 251.55
L 65.2 251.55
Q 64.75 251.05 64.35 250.5 64.05 250.1 63.8 249.75 62.55 248.05 63.3 248.15 64.55 248.25 67.8 250.15 67.2 249.35 66.65 248.4 65.6 246.5 66.55 246.3 68.1 245.95 71.9 250.15 71.5 248.9 71.15 247.75 70.75 245.35 71.9 245.55 73.7 245.85 75.6 250.15 75.5 248.7 75.7 247.2 75.9 244.4 76.95 244.6 78.65 244.9 78.85 249.95 79.05 248.9 79.35 247.85 79.9 245.65 80.4 245.65 81.15 245.65 80.1 250.15
L 81.35 249.35
M 136.2 245.35
Q 135.45 245.25 135.25 247.35 135.25 248.4 135.25 249.45 133.25 248.05 132.1 248.5 131.35 248.8 131.65 250.4 131.65 250.5 131.7 250.55 131.95 251.25 132.2 251.95
L 141.1 251.95
Q 141.8 251.1 142.15 250.55 142.75 249.6 142.5 249.35 142.3 249 141.1 249.85 140.35 250.4 140.1 250.55 139.95 250.65 139.95 250.6
L 139.95 250.55
Q 140.8 246.4 139.85 245.95 139.25 245.65 138.6 247.1 138.2 247.85 137.95 248.7 137.35 245.55 136.2 245.35
M 141.45 250.15
Q 141.65 250.25 141.55 250.55 141.4 251 140.6 251.85
L 133.75 251.85
Q 133.45 251.2 133.15 250.6
L 133.15 250.55
Q 132.7 249.2 133.15 249.2 133.9 249.2 135.25 250.55 135.45 250.75 135.65 251 135.65 250.8 135.65 250.55 135.65 249.75 135.75 248.9 136 246.8 136.6 246.9 137.65 247 137.55 250.55 137.55 250.6 137.55 250.7 137.6 250.65 137.6 250.55 137.9 249.9 138.2 249.2 138.9 247.75 139.35 247.75 140.1 247.75 139.65 250.55 139.55 251 139.45 251.55
L 140.3 250.8
Q 140.5 250.65 140.65 250.55 141.3 250.05 141.45 250.15 Z"/>

<path fill="#11481B" stroke="none" d="
M -140.15 244.6
Q -141.2 244.4 -141.45 247.2 -141.65 248.7 -141.55 250.15 -143.4 245.85 -145.2 245.55 -146.35 245.35 -145.95 247.75 -145.65 248.9 -145.2 250.15 -146.15 249.1 -147.3 248.05 -149.6 246.05 -150.55 246.3 -151.5 246.5 -150.45 248.4 -149.95 249.35 -149.3 250.15 -152.55 248.25 -153.8 248.15 -154.55 248.05 -153.3 249.75 -153.05 250.1 -152.8 250.45 -152.4 251 -151.95 251.55
L -136.6 251.55
Q -135.4 250.7 -134.7 250.1 -133.55 249.05 -133.95 248.8 -134.3 248.5 -135.65 249.35 -136.4 249.75 -136.95 250.15
L -137 250.15
Q -136.7 249 -136.6 247.95 -136.3 245.65 -136.7 245.65 -137.25 245.65 -137.75 247.85 -138.05 248.9 -138.3 249.95 -138.4 244.9 -140.15 244.6
M -77.35 249.45
Q -77.25 247.75 -77.8 247.75 -78.2 247.75 -78.95 249.2 -79 249.35 -79.05 249.5 -79.3 250.1 -79.55 250.7 -79.55 250 -79.55 249.5 -79.65 247 -80.5 246.9 -81.15 246.8 -81.35 248.9 -81.4 249.2 -81.4 249.5 -81.45 250.25 -81.45 251 -82.5 249.9 -83.2 249.5 -83.65 249.2 -83.95 249.2 -84.15 249.2 -84.15 249.5 -84.2 249.8 -83.95 250.6 -83.65 251.2 -83.35 251.85
L -76.5 251.85
Q -75.15 250.4 -75.65 250.15 -75.9 250.05 -76.85 250.8
L -77.65 251.55
Q -77.4 250.3 -77.35 249.45
M -212.65 243.75
Q -213.6 243.65 -213.15 246.6 -212.95 248.05 -212.65 249.55 -213.05 248.9 -213.6 248.4 -214.75 247.1 -215.15 247.2 -215.6 247.35 -214.95 249.1 -214.65 249.95 -214.2 250.8 -215.4 249.55 -216.55 249.55 -217.15 249.55 -215.9 251 -215.4 251.5 -214.85 252.05 -214.7 252.2 -214.55 252.35
L -213.75 252.35 -209.6 252.15
Q -209.45 252 -209.25 251.9 -207.45 250.2 -207.8 249.75 -208 249.45 -209.3 250.25 -209.8 250.7 -210.45 251.2 -210.1 250.25 -209.9 249.35 -209.4 247.35 -209.7 247.35 -210 247.2 -210.75 248.5 -211.05 249 -211.4 249.65 -211.15 243.85 -212.65 243.75
M 4.45 243.75
Q 3.5 243.65 3.95 246.6 4.15 248.05 4.45 249.55 2.7 247.1 1.95 247.2 1.55 247.35 2.15 249.1 2.35 249.65 2.65 250.25 2.75 250.5 2.9 250.8 2.6 250.45 2.3 250.25 1.45 249.55 0.6 249.55 0.15 249.55 0.6 250.25 0.8 250.55 1.2 251 1.85 251.65 2.6 252.35
L 3.55 252.3 7.5 252.15
Q 8.95 250.9 9.3 250.3 9.45 249.9 9.3 249.75 9.1 249.45 7.85 250.25
L 6.7 251.2
Q 6.85 250.7 7 250.25 7.8 247.35 7.4 247.35 7.1 247.2 6.35 248.5
L 5.75 249.65
Q 5.95 243.85 4.45 243.75
M 83.15 248.8
Q 82.7 248.5 81.35 249.35
L 80.1 250.15
Q 81.15 245.65 80.4 245.65 79.9 245.65 79.35 247.85 79.05 248.9 78.85 249.95 78.65 244.9 76.95 244.6 75.9 244.4 75.7 247.2 75.5 248.7 75.6 250.15 73.7 245.85 71.9 245.55 70.75 245.35 71.15 247.75 71.5 248.9 71.9 250.15 68.1 245.95 66.55 246.3 65.6 246.5 66.65 248.4 67.2 249.35 67.8 250.15 64.55 248.25 63.3 248.15 62.55 248.05 63.8 249.75 64.05 250.1 64.35 250.5 64.75 251.05 65.2 251.55
L 80.5 251.55
Q 81.3 250.95 81.9 250.5 83.6 249.1 83.15 248.8
M 141.55 250.55
Q 141.65 250.25 141.45 250.15 141.3 250.05 140.65 250.55 140.5 250.65 140.3 250.8
L 139.45 251.55
Q 139.55 251 139.65 250.55 140.1 247.75 139.35 247.75 138.9 247.75 138.2 249.2 137.9 249.9 137.6 250.55 137.6 250.65 137.55 250.7 137.55 250.6 137.55 250.55 137.65 247 136.6 246.9 136 246.8 135.75 248.9 135.65 249.75 135.65 250.55 135.65 250.8 135.65 251 135.45 250.75 135.25 250.55 133.9 249.2 133.15 249.2 132.7 249.2 133.15 250.55
L 133.15 250.6
Q 133.45 251.2 133.75 251.85
L 140.6 251.85
Q 141.4 251 141.55 250.55 Z"/>

<path fill="#318A0A" stroke="none" d="
M -312.45 264.85
L -307.4 259.5
Q -316.65 257.3 -326 261.8
L -333.55 266.85
Q -332.4 262.55 -329.05 257.85
L -327.15 255.65 -325.75 254.05
Q -328.7 254.7 -331.35 255.8 -336.3 257.85 -340.05 261.4 -341.8 263.05 -342.9 264.55
L -342.8 268.6
Q -342.8 268.9 -342.8 269.25 -342.75 270.75 -342.7 272.3
L -342.75 272.3 -375.3 273.95
Q -375.4 267.25 -375.45 261 -379.7 264.8 -384.95 271 -385.4 271.45 -386.1 271 -387.35 269.95 -387.9 267.55 -388.1 266.8 -388.55 263.65 -388.65 261.9 -388.55 260.3 -389.45 262.1 -391.05 266.1 -392.65 269.85 -393.7 271.75 -393.9 272.2 -394.3 272.2 -394.85 272.2 -395.05 271.8
L -395.05 271.75
Q -395.05 270.35 -395.05 268.9 -395.15 269.1 -395.2 269.3 -398.85 262.3 -404.6 258.4 -407.3 256.55 -410.45 255.4
L -419.35 253.85
Q -416.2 256.25 -413.8 258.7 -411.55 261 -410 263.4 -408.45 265.8 -408 267.3 -415.45 261.3 -425.15 261.2
L -433.35 262.25
Q -431.35 262.65 -429.55 263.2
L -426.5 264.25 -418.15 269.9
Q -417.5 270.65 -416.9 271.45 -414.6 274.6 -414.15 277.1
L -414.1 277.1 -414.1 277.15 -318.65 276.55
Q -317.7 271.4 -312.45 264.85
M -512.55 8.9
Q -513.15 8.05 -513.8 8.25 -513.95 8.3 -514.1 8.4 -514.95 8.85 -515.4 10.4 -516.45 12 -517.1 13.95
L -518.4 21.35 -518.4 21.4
Q -518.55 26.4 -517.35 30.85
L -517.1 31.7
Q -517 32.1 -516.85 32.55 -515.25 37 -510.75 40.6 -510.7 40.65 -510.65 40.7 -505.9 44.5 -501.3 44.6 -500.75 44.7 -500.35 44.1 -499.95 43.35 -499.65 42.55 -496.75 35.15 -500.75 25.4 -502.25 21.5 -506.25 16.9 -511.25 10.9 -512.55 8.9
M -225.05 -31.45
Q -225.15 -28.8 -223.35 -26.8 -221.7 -24.95 -218.95 -24.3 -214.35 -23.05 -209.5 -24.4 -204.55 -25.65 -201.4 -29.25 -198.65 -32.3 -196.7 -36.25 -195.4 -38.6 -194.8 -39.95 -194.25 -41.1 -194 -42.05
L -193.65 -43.75
Q -193.4 -45 -194.6 -45 -209.5 -47 -217.15 -42.25 -225.05 -37.45 -225.05 -31.45
M -293.1 -125.55
Q -292.9 -125.05 -292.65 -124.5
L -291.9 -122.95
Q -291.7 -122.55 -291.45 -122.15 -291.2 -121.5 -290.9 -120.85
L -290.35 -119.7 -288.3 -116.85
Q -287.1 -115.55 -285.55 -114.55 -283.95 -113.35 -281.35 -112.85 -279.95 -112.55 -276.95 -112 -269.25 -110.2 -265.25 -107.9 -264.3 -107.3 -263.9 -108.55 -263.6 -109.9 -264.1 -112.1 -264.2 -112.55 -265.15 -115.8 -266.75 -120.1 -270.1 -124.7 -276.1 -132.6 -287 -131.75 -288.4 -131.65 -290.35 -130.8 -292.25 -130.05 -293.1 -129.15 -293.15 -129.2 -293.2 -129.2
L -293.35 -129.05
Q -293.85 -128.5 -293.65 -127.35 -293.55 -126.6 -293.1 -125.55
M -272.3 -162.3
L -272.85 -169.95
Q -272.9 -170.25 -272.95 -170.55
L -272.95 -170.6
Q -273 -170.75 -273.05 -170.9
L -273.15 -171.1 -273.15 -171.05
Q -273.3 -171.2 -273.45 -171.35 -273.9 -171.65 -274.4 -171.45 -287.2 -165.9 -294.05 -156.85 -298.9 -151.3 -298.9 -145.1 -299 -142.35 -297.1 -136.9 -297 -136.55 -296.75 -136.3
L -296.8 -136.3
Q -296.75 -136.25 -296.7 -136.2 -296.2 -135.7 -295.2 -135.85 -295.05 -135.85 -294.1 -136.05 -293.55 -136.2 -292.8 -136.4
L -285.85 -138.9
Q -284.1 -139.65 -282.8 -140.45 -278.1 -143.3 -275.45 -148.05 -275.05 -148.8 -274.7 -149.6
L -272.3 -162.3
M -440.5 -150.75
Q -440.7 -150.75 -440.9 -150.65
L -441.1 -150.45
Q -448.65 -149.3 -453.2 -147.5 -459.3 -145.1 -463.8 -140.7 -467.55 -136.9 -469.65 -130.6 -471.55 -124.95 -471.55 -118.95 -471.55 -118.2 -470.95 -118 -469.25 -117.15 -465.45 -117.55 -463.35 -117.9 -459.8 -118.5 -453.8 -119.35 -448.35 -125.05 -447.25 -126.2 -446.25 -127.5
L -441.85 -136.4 -440.1 -145
Q -439.75 -147 -439.4 -149.4
L -439.4 -150.05 -439.3 -150.05
Q -439.1 -150.15 -439.2 -150.45 -439.25 -150.55 -439.3 -150.55 -439.5 -150.8 -439.65 -150.7
L -440.05 -150.7 -440.5 -150.8 -440.5 -150.75
M -410.95 -191.9
Q -412.1 -192.5 -415.05 -191.4 -419.35 -189.4 -420.1 -189.2 -428.6 -186.15 -434.3 -181.1 -438.6 -177.25 -441.2 -170.3 -444.05 -162.65 -442.05 -157.3
L -441.85 -154.65
Q -441.65 -153.6 -440.6 -153.4 -437.65 -153.1 -430.6 -156.75 -425.35 -159.6 -423.55 -160.65 -421.7 -161.85 -420.1 -163.1
L -417.15 -165.6 -411.05 -176.4
Q -410.9 -176.85 -410.75 -177.35 -409.8 -180.5 -410 -185.2 -410 -189.65 -410.25 -190.95 -410.3 -191.15 -410.35 -191.25 -410.45 -191.65 -410.95 -191.9
M -335.35 -190.8
Q -330.9 -190.8 -326.5 -193.3 -322.4 -195.85 -319.9 -199.7 -319.35 -200.6 -318.9 -201.6
L -317.15 -208.65 -317.15 -208.7
Q -317.05 -209.95 -316.95 -212.95 -316.95 -215.1 -316.95 -218.1
L -316.95 -218.15
Q -316.95 -218.6 -317.3 -218.9 -317.3 -218.95 -317.35 -218.95 -317.9 -219.25 -318.3 -219.15 -327.25 -216.95 -333.95 -211.8 -342.45 -205.4 -341.3 -197.7 -341.75 -193.4 -340.9 -192.15 -340.75 -191.85 -340.5 -191.65 -339.75 -190.95 -338.25 -190.8 -338.2 -190.8 -337.15 -190.8
L -336.5 -190.8
Q -336 -190.8 -335.35 -190.8
M -494.35 -11.9
Q -497.7 -12 -500.05 -11.5 -507.4 -9.7 -513.25 1
L -514.1 1.95
Q -514.55 2.5 -514.1 3.1 -514.05 3.2 -514 3.3 -513.7 3.8 -513.05 3.65 -510 2.9 -503.9 3.2 -497.8 3.55 -494.8 2.9 -491 2.05 -487.2 -2.55 -485.65 -4.65 -481.95 -10.55 -481.75 -10.9 -481.95 -11.3
L -482 -11.4
Q -482.05 -11.5 -482.15 -11.6
L -482.2 -11.65
Q -482.95 -12.35 -485.2 -12.1 -487.85 -11.8 -488.7 -11.8 -492.45 -11.9 -494.35 -11.9
M -516.15 -77.95
Q -516.3 -78.8 -516.5 -79.35 -516.85 -80.2 -517.8 -80.1 -527.05 -79.05 -535.85 -72.6 -545.7 -65.6 -547.1 -56.95
L -547.3 -56
Q -547.4 -55.1 -548.15 -51.6 -548.55 -48.35 -547.95 -47.3 -547.1 -45.95 -544.35 -46.25 -542.9 -46.45 -540.45 -47.1 -533.95 -48.15 -528.6 -51.2 -522.6 -54.55 -519.35 -59.6 -518.65 -60.7 -518.1 -61.9
L -516.1 -70 -516.1 -70.05
Q -516.1 -70.3 -516.05 -70.55
L -516.15 -77.95
M -527.65 -119.65
Q -528.9 -120.1 -531.1 -120.3 -533.45 -120.5 -534.6 -120.75 -539.95 -121.15 -540.9 -120.4 -542.25 -119.35 -540.45 -115.45 -540.15 -114.85 -539.85 -114.25 -539 -112.6 -538 -111.2 -537.9 -111.05 -537.75 -110.85
L -537.75 -110.75
Q -536.35 -108.55 -534.4 -106.35 -533.6 -105.5 -532.75 -104.7
L -521.15 -98.9 -518.5 -98.7
Q -516.85 -98.65 -514.95 -98.75 -510.1 -99.1 -509.8 -100.65 -509.7 -101.6 -510.55 -103.6 -511.6 -105.7 -511.9 -106.45 -513.05 -108.95 -516.3 -112.45 -520.95 -117.35 -527.65 -119.65
M -499.4 -201.15
Q -500.35 -200.1 -499.95 -198.4 -499.8 -197.85 -498.95 -196.1
L -498.35 -194.8
Q -497.4 -192.75 -496 -191
L -492.1 -187.4
Q -490.8 -186.5 -489.2 -185.75 -486.5 -184.6 -482.8 -184.9 -479.55 -185.3 -476.5 -186.8 -473.9 -188.05 -473.55 -189.55 -473.35 -190.8 -474.8 -193.3 -478.6 -199.7 -485.45 -202.25 -487.3 -202.95 -489.2 -203.1 -493.3 -203.9 -497.5 -202.15 -498.65 -201.7 -499.3 -201.05 -499.35 -201.1 -499.4 -201.15
M -365.1 -210.7
L -365.05 -210.2
Q -364.5 -205.25 -361.9 -201.85 -361.6 -201.5 -361.3 -201.15 -361.25 -201.15 -361.25 -201.1
L -357.8 -198.6
Q -355.7 -197.7 -352.85 -197.4
L -351.95 -197.2
Q -351.1 -197.1 -349.5 -197.3 -347.95 -197.3 -346.8 -197.7
L -345.75 -197.95
Q -345.2 -197.95 -345.2 -198.35 -344.15 -201.5 -345.4 -205.7 -346.35 -209.25 -348.55 -212.3 -350.9 -215.6 -355.3 -218.75 -359.4 -221.75 -363.25 -223.35 -364.2 -223.75 -364.45 -222.7 -364.55 -221.75 -364.65 -220.85
L -365.15 -212.05
Q -365.2 -211.6 -365.15 -211.2 -365.15 -210.95 -365.1 -210.7
M 474.4 257.05
L 474.4 254.95
Q 472.4 260 471 262.45 470.6 263.05 470.2 262.5 470.15 261.45 470.15 260.45
L 470 260.75
Q 466.55 254.05 460 251.75
L 457.35 251.3 454.25 250.7
Q 454.6 250.95 454.95 251.25 460.6 255.85 461.6 259.5 456.75 255.65 450.45 255.5
L 445.1 256.25
Q 452.05 257.6 455.5 261.95 456.2 262.8 456.65 263.6 457.35 264.9 457.55 266
L 457.6 266 457.6 266.05 520.1 265.6
Q 520.75 262.25 524.2 258.05 526 255.95 527.55 254.45 521.45 253 515.4 255.95
L 510.45 259.2
Q 511.15 256.35 513.4 253.3 513.8 252.8 514.15 252.35 514.85 251.45 515.5 250.8 513.15 251.3 511.15 252.3 508.35 253.55 506.15 255.65
L 504.25 258
Q 504.25 259.35 504.3 260.8 504.3 261.75 504.35 262.75
L 504.3 262.75 494.95 263.3 494.95 263.25 483.1 263.9
Q 483.05 259.55 483 255.4 480.45 257.7 476.7 261.9 476.5 262.45 475.95 261.9 474.9 260.95 474.4 257.05
M 391.3 91.4
Q 389.55 94.15 389.4 98.55 389.3 102.55 390.45 105.8 390.8 106.95 391.5 108
L 393.1 109.95 394.1 110.85
Q 394.3 111.05 394.5 111.2 397.5 113.7 400.55 113.85 401 113.85 401.2 113.4 403.85 108.35 401 101.1 399.95 98.7 397.3 95.55 394.05 91.65 393.2 90.4 392.8 89.9 392.4 90 392.3 90 392.25 90.1
L 392.25 90.05
Q 391.75 90.25 391.3 91.4
M 370.65 47.25
L 370.55 47.85
Q 370.4 48.5 370 50.8 369.7 52.9 370.1 53.65 370.65 54.5 372.4 54.25 373.35 54.15 374.95 53.75 384.4 52.05 388.8 45.55 389.25 44.9 389.6 44.15
L 390.9 39.2
Q 390.85 39.15 390.9 39.1 390.9 38.9 390.9 38.7 391 37.15 391 35.95
L 390.85 33.55
Q 390.75 32.95 390.6 32.6
L 390.55 32.55
Q 390.35 32.1 389.85 32.1 383.75 32.85 377.9 37.05 371.45 41.65 370.65 47.25
M 393.65 14.9
Q 393.1 13.5 390.7 10.9 387.65 7.65 383.35 6.25 382.9 6.15 378.85 5.55 375.35 5.2 374.75 5.75 373.75 6.45 375.05 9.15 375.1 9.25 375.15 9.4 375.85 10.85 376.7 12 376.95 12.4 377.2 12.8
L 378.9 14.85 378.95 14.9
Q 383.15 19.5 387.55 19.8 388.8 19.95 390.05 19.95 394.35 20.1 395 18.85
L 394.95 18.85
Q 395 18.75 395 18.65 395.1 18.05 394.6 16.75 393.85 15.4 393.65 14.9
M 411.05 76.65
Q 409.4 76.85 408.85 76.85 406.35 76.75 405.1 76.75 402.9 76.65 401.4 77.05 396.7 78.2 392.7 85.25
L 392.15 85.9
Q 391.95 86.2 392.15 86.6 392.25 86.7 392.3 86.8 392.35 86.8 392.4 86.85 392.65 87 392.9 86.95 394.9 86.4 398.9 86.75 402.9 86.95 404.9 86.5 407.3 86 409.8 82.95 410.55 82 413.3 77.7 413.4 77.55 413.35 77.35 413.3 77.15 413.05 76.9
L 413.05 76.95
Q 412.6 76.45 411.05 76.65
M 602.05 55.95
Q 602.05 55.1 601.3 55.1 591.55 53.85 586.6 56.9 581.45 59.85 581.35 63.95 581.35 67.5 585.35 68.65 588.5 69.5 591.65 68.65 594.8 67.7 596.9 65.4 598.9 63.3 599.95 60.8 601.8 57.2 602.05 55.95
M 540.9 -1.7
Q 539.95 -1.6 538.7 -1.1 537.2 -0.55 536.7 0.05 536.5 0.3 536.5 0.75
L 536.5 1.1
Q 536.55 1.65 536.9 2.4 537.2 3.2 537.95 4.6 539.1 7.75 541.75 9.65 542.9 10.35 544.6 10.7 545.5 10.9 547.4 11.2 552.35 12.35 555.1 13.95 555.7 14.25 555.9 13.5 556.25 12.55 555.1 8.8 554.25 5.85 551.95 2.9 548.15 -2.25 540.9 -1.7
M 549.7 -27.65
Q 549.4 -27.75 549.1 -27.65 540.6 -24.1 536.3 -18.1 533 -14.55 533 -10.45 533 -8.95 534.2 -5.1 534.5 -4.25 535.55 -4.35
L 537.1 -4.75
Q 541.3 -6 543.65 -7.4 545.2 -8.35 546.4 -9.6
L 548.45 -12.45
Q 551.5 -18.1 550.05 -27.05 550.05 -27.3 549.9 -27.45 549.85 -27.6 549.7 -27.65
M 521.25 -58.25
Q 521.25 -59.15 520.4 -58.95 514.55 -57.5 510.1 -54.15 504.55 -49.8 505.3 -44.9 504.85 -42.25 505.6 -41.2 506.05 -40.5 507.3 -40.35 507.9 -40.25 509.3 -40.35 512.1 -40.35 514.95 -42.05 517.7 -43.65 519.25 -46.15 520 -47.3 520.45 -48.8
L 521.05 -52.05
Q 521.25 -53.6 521.25 -58.25
M 496.25 -58.65
Q 493.55 -60.65 490.9 -61.7 490.4 -61.9 490.15 -61.15
L 490.15 -61.1
Q 489.55 -56.15 489.65 -53.8
L 489.65 -53.75
Q 489.7 -52.95 489.85 -52.15
L 490.75 -49.45
Q 491.3 -48.15 492.25 -47.1 493.1 -46.1 494.5 -45.5
L 498.35 -44.55
Q 499.2 -44.35 499.95 -44.55 501 -44.55 501.7 -44.9
L 502.45 -45 502.75 -45.3
Q 503.4 -47.3 502.65 -50.15 501.95 -52.45 500.55 -54.45 499.1 -56.55 496.25 -58.65
M 425.15 -7.6
Q 422.75 -5.1 421.35 -0.9 420.1 2.8 420.1 6.7 420.1 7.2 420.4 7.3 421.6 7.85 424.1 7.55 425.45 7.4 427.75 6.9 431.65 6.5 435.25 2.7 438.15 -0.25 439.45 -4.75 439.7 -5.5 439.95 -6.9
L 441.1 -13.25 441.1 -13.3 441 -13.7 441.1 -13.7
Q 441.2 -13.8 441.2 -13.9
L 441.2 -13.95
Q 441.1 -14.15 440.9 -14.15
L 440.7 -14.05 440.35 -14.15 440.35 -14.1
Q 440.25 -14.05 440.15 -14
L 439.95 -13.9
Q 435.15 -13.15 432.1 -12 428.1 -10.55 425.15 -7.6
M 444.5 -33.95
Q 441.65 -31.45 439.95 -26.95 438.05 -22 439.35 -18.4
L 439.55 -16.65
Q 439.55 -16.6 439.55 -16.55
L 439.5 -16.55
Q 439.55 -16.45 439.6 -16.4 439.7 -15.9 440.25 -15.9 442.25 -15.7 446.9 -18.1 448.5 -18.95 449.85 -19.75
L 455.7 -23.9 459.5 -30.3
Q 459.7 -30.9 459.9 -31.55 460.55 -33.85 460.35 -36.7 460.35 -39.85 460.15 -40.6 459.7 -41.75 457.1 -40.7 454.25 -39.45 453.7 -39.3 448.05 -37.2 444.5 -33.95
M 401.75 -44.75
Q 402 -44.05 402.45 -43 404.25 -39 408.55 -37.1 412.25 -35.45 416.75 -37.75 418.55 -38.6 418.75 -39.55 418.75 -39.65 418.75 -39.8 418.8 -40 418.75 -40.2
L 418.7 -40.2
Q 418.55 -40.9 417.9 -42.05 415.4 -46.15 410.95 -47.85
L 408.55 -48.35
Q 405.7 -48.9 403.1 -47.85 402.3 -47.5 401.9 -47.05 401.85 -47.1 401.8 -47.15 401.45 -46.7 401.4 -46.15 401.4 -46 401.4 -45.85 401.45 -45.6 401.5 -45.35 401.55 -45.2 401.75 -44.75 Z"/>

<path fill="#6EBD24" stroke="none" d="
M -406.75 -257.5
Q -411.8 -256.85 -414.65 -252.85 -417.25 -249.3 -417.25 -244.25 -422 -247.4 -426 -246.25 -428.6 -245.5 -429.85 -242.65 -431 -240.25 -430.9 -237.2
L -430.8 -236.25
Q -443.95 -243.5 -458.45 -244.35 -480.8 -245.7 -500.75 -230.9 -528.5 -210.3 -532.15 -178.3 -534.5 -182.9 -538.15 -185.2 -542.45 -187.95 -546.9 -186.15 -554.35 -183.2 -552.45 -165.25 -552 -161.5 -551.6 -159.6 -555.3 -163.35 -559.5 -164.2 -564.2 -165.25 -567.05 -162 -569.65 -158.95 -569.25 -154.35 -568.85 -150.35 -566.4 -146.55 -573.65 -147.7 -579 -141.85 -582.7 -137.85 -582.9 -131.55 -583.1 -125.65 -580.15 -120.4 -614.25 -97.1 -617.85 -63.25
L -617.9 -63.05
Q -617.95 -62.7 -617.95 -62.35
L -618.35 -53.8 -607.4 -20.3
Q -606.7 -19.45 -605.9 -18.65 -595.6 -8 -578.25 -5.2 -579.05 -4.6 -580.5 -2.95 -581.75 -1.35 -582.2 0.55
L -582.4 1.8 -582.35 3.8
Q -582.1 5.4 -581 6.6 -578.7 9.1 -575.5 9.4 -581.2 13.7 -583 19.55 -583.2 20.1 -583.3 20.65
L -583.65 23.65 -582 29.35
Q -581.45 30.3 -580.7 31.15 -577.35 34.75 -572.35 34.4 -583.65 45.75 -586.25 59.15 -586.35 59.6 -586.4 60.1
L -586.95 66.35 -576.3 95.3
Q -574.8 97.4 -573.05 99.55 -561.7 113.1 -543.75 116.75 -527.85 120.15 -509.6 115.3 -492.7 110.9 -478.8 101 -476.2 99.15 -473.9 97.3 -463.95 89.15 -459.7 80
L -458.65 80.95
Q -455.7 83.55 -452.25 82.2 -449 80.95 -447.4 77.5 -446.65 75.85 -446.3 74.2
L -445.95 70.9 -446.05 69.2
Q -446.15 68.3 -446.3 67.4 -440.3 67.95 -438.2 63.5 -438.2 63.4 -438.15 63.4
L -438.2 63.35
Q -437.25 61.25 -437.2 58.1 -437.1 54.3 -438.95 49.7
L -438.95 49.65
Q -439.55 48.1 -440.35 46.5 -443 41.15 -447 36.15 -448.6 34.2 -450.05 32.95 -445.4 31.75 -442.3 28.65 -439.8 26.1 -438.35 22.35 -438 21.45 -437.8 20.55
L -437.65 19.95 -437.6 15.8
Q -437.9 13.6 -438.9 11.25 -441.1 5.55 -446 1.2 -443.8 0.6 -441.85 -0.6
L -441.85 -0.65
Q -441 -1.2 -440.2 -1.9
L -439.65 -2.35 -437.95 -4.15
Q -437.1 -5.15 -436.35 -6.3 -434.15 -9.8 -434.6 -13.8 -434.65 -13.85 -434.65 -13.95 -434.85 -15.55 -435.45 -17.2 -434.95 -16.5 -433.9 -15.25
L -433.8 -15.1
Q -433.8 -15.05 -433.75 -15.05
L -427.6 -10.7
Q -426.5 -10.3 -425.35 -10.2 -420.6 -9.8 -417.05 -14.3 -415.25 -16.4 -414.4 -19.25 -413.25 -15.1 -410.6 -13.4 -409.95 -13 -409.25 -12.75
L -407.85 -12.4 -405.4 -12.4
Q -404.05 -12.55 -402.55 -13.05 -399.95 -13.9 -398.25 -15.75
L -398.2 -15.85
Q -396.6 -17.55 -395.7 -20.05
L -395.6 -20.2 -394.95 -23.05
Q -394.7 -24.6 -394.65 -26.35 -394.55 -26.3 -394.5 -26.2
L -394.5 -26.25
Q -391.95 -24.25 -388.65 -23.9 -385.45 -23.55 -382.95 -25.1 -383 -25.05 -382.95 -25 -382.9 -25.05 -382.85 -25.1 -382.65 -25.2 -382.5 -25.35 -380.4 -26.95 -379.25 -29.1 -378.8 -28 -378.2 -27
L -375.85 -23.95 -374.8 -23.05
Q -374.6 -22.85 -374.4 -22.7 -371.05 -20.2 -366.85 -19.8 -360.65 -19.15 -354.45 -22.1 -348.25 -25.05 -345 -30.25 -344.75 -29.55 -344.4 -28.85 -343.35 -26.75 -341.45 -25.4 -339.5 -23.95 -336.85 -23.95
L -335.05 -24.05
Q -337.1 -19.5 -336.3 -16.35
L -336.3 -16.3
Q -336.1 -15.4 -335.6 -14.6 -335.3 -14.1 -334.95 -13.7
L -334.25 -12.95
Q -333.2 -12.05 -331.75 -11.55
L -331.2 -11.4
Q -330.95 -11.35 -330.65 -11.3 -330.4 -11.25 -330.1 -11.2 -327.35 -10.75 -324.45 -11.75
L -325.4 -9.3
Q -327.05 -4.3 -326.25 1.3 -326.05 2.8 -325.65 4.15
L -322.15 10.85
Q -322.1 10.85 -322.1 10.9 -320.65 12.45 -318.8 13.45
L -317.3 14.15
Q -316.5 14.45 -315.6 14.65 -311.95 15.4 -308.2 14.4 -308.55 14.85 -308.8 15.3 -310 17.1 -311 19.35 -313.2 24.2 -313.1 29.35 -312.9 35.05 -309.85 38.4 -309.7 38.55 -309.55 38.7 -307.95 40.25 -305.95 40.55 -306.5 44.05 -305.15 46.9 -304.5 48.25 -303.45 49.45
L -303.15 49.8
Q -303.1 49.8 -303.1 49.85
L -300 52
Q -298.4 52.65 -296.7 52.4 -298.5 57 -296.2 63.55 -295.9 64.45 -295.5 65.35
L -294.1 68.2 -291.05 72.6
Q -289.35 74.75 -287.1 76.65 -275.5 86.4 -255.85 87.35 -244.15 87.9 -229.65 85.35 -207.9 81.6 -192.15 70.85 -178 61.2 -171.35 48.2 -170.2 46 -169.4 43.85
L -166.9 31.35 -167.35 26.3
Q -167.5 25.45 -167.7 24.55 -170.2 13.15 -181.15 7.5 -176.7 5.8 -176.1 2.5 -176 1.9 -175.95 1.3
L -175.95 0.95 -176.75 -2.5
Q -177.6 -4.2 -179.2 -5.7 -168.25 -5.25 -158.75 -10.2 -144.35 -17.9 -136.7 -36.9 -136.1 -38.45 -135.6 -40
L -134.75 -43.05 -134.45 -59.65
Q -135.85 -67.15 -140.05 -74.8 -146.55 -86.4 -157.45 -94.9
L -163 -98.95 -168.15 -102.05
Q -173.15 -104.9 -178.6 -106.95 -194.15 -112.85 -208.45 -110.95 -201.2 -121.45 -198.65 -133.1 -193.75 -156.25 -217.5 -161.4 -210.95 -166.4 -212.35 -172.6 -213.15 -176 -216.95 -178.4 -220.65 -180.6 -224.1 -180.05
L -224.5 -179.95
Q -223.35 -185.2 -227.35 -187.75 -230.3 -189.55 -233.65 -189.1 -236.8 -188.8 -239.75 -186.7
L -240.8 -185.75
Q -237.55 -197.4 -242.9 -210.95 -249.5 -227.4 -267.8 -242.1 -274.65 -247.6 -283.15 -252.85 -318.1 -274.5 -354.55 -269.15 -368 -267.15 -379.25 -261.75 -379.85 -261.45 -380.5 -261.15 -390.9 -255.9 -396.05 -249.6 -397.3 -253.3 -400.05 -255.5 -403.1 -257.9 -406.75 -257.5
M -365.05 -210.2
L -365.1 -210.7
Q -365.15 -210.95 -365.15 -211.2 -365.2 -211.6 -365.15 -212.05
L -364.65 -220.85
Q -364.55 -221.75 -364.45 -222.7 -364.2 -223.75 -363.25 -223.35 -359.4 -221.75 -355.3 -218.75 -350.9 -215.6 -348.55 -212.3 -346.35 -209.25 -345.4 -205.7 -344.15 -201.5 -345.2 -198.35 -345.2 -197.95 -345.75 -197.95
L -346.8 -197.7
Q -347.95 -197.3 -349.5 -197.3 -351.1 -197.1 -351.95 -197.2
L -352.85 -197.4
Q -355.7 -197.7 -357.8 -198.6
L -361.25 -201.1
Q -361.25 -201.15 -361.3 -201.15 -361.6 -201.5 -361.9 -201.85 -364.5 -205.25 -365.05 -210.2
M -499.95 -198.4
Q -500.35 -200.1 -499.4 -201.15 -499.35 -201.1 -499.3 -201.05 -498.65 -201.7 -497.5 -202.15 -493.3 -203.9 -489.2 -203.1 -487.3 -202.95 -485.45 -202.25 -478.6 -199.7 -474.8 -193.3 -473.35 -190.8 -473.55 -189.55 -473.9 -188.05 -476.5 -186.8 -479.55 -185.3 -482.8 -184.9 -486.5 -184.6 -489.2 -185.75 -490.8 -186.5 -492.1 -187.4
L -496 -191
Q -497.4 -192.75 -498.35 -194.8
L -498.95 -196.1
Q -499.8 -197.85 -499.95 -198.4
M -531.1 -120.3
Q -528.9 -120.1 -527.65 -119.65 -520.95 -117.35 -516.3 -112.45 -513.05 -108.95 -511.9 -106.45 -511.6 -105.7 -510.55 -103.6 -509.7 -101.6 -509.8 -100.65 -510.1 -99.1 -514.95 -98.75 -516.85 -98.65 -518.5 -98.7
L -521.15 -98.9 -532.75 -104.7
Q -533.6 -105.5 -534.4 -106.35 -536.35 -108.55 -537.75 -110.75
L -537.75 -110.85
Q -537.9 -111.05 -538 -111.2 -539 -112.6 -539.85 -114.25 -540.15 -114.85 -540.45 -115.45 -542.25 -119.35 -540.9 -120.4 -539.95 -121.15 -534.6 -120.75 -533.45 -120.5 -531.1 -120.3
M -516.5 -79.35
Q -516.3 -78.8 -516.15 -77.95
L -516.05 -70.55
Q -516.1 -70.3 -516.1 -70.05
L -516.1 -70 -518.1 -61.9
Q -518.65 -60.7 -519.35 -59.6 -522.6 -54.55 -528.6 -51.2 -533.95 -48.15 -540.45 -47.1 -542.9 -46.45 -544.35 -46.25 -547.1 -45.95 -547.95 -47.3 -548.55 -48.35 -548.15 -51.6 -547.4 -55.1 -547.3 -56
L -547.1 -56.95
Q -545.7 -65.6 -535.85 -72.6 -527.05 -79.05 -517.8 -80.1 -516.85 -80.2 -516.5 -79.35
M -500.05 -11.5
Q -497.7 -12 -494.35 -11.9 -492.45 -11.9 -488.7 -11.8 -487.85 -11.8 -485.2 -12.1 -482.95 -12.35 -482.2 -11.65
L -482.15 -11.6
Q -482.05 -11.5 -482 -11.4
L -481.95 -11.3
Q -481.75 -10.9 -481.95 -10.55 -485.65 -4.65 -487.2 -2.55 -491 2.05 -494.8 2.9 -497.8 3.55 -503.9 3.2 -510 2.9 -513.05 3.65 -513.7 3.8 -514 3.3 -514.05 3.2 -514.1 3.1 -514.55 2.5 -514.1 1.95
L -513.25 1
Q -507.4 -9.7 -500.05 -11.5
M -326.5 -193.3
Q -330.9 -190.8 -335.35 -190.8 -336 -190.8 -336.5 -190.8
L -337.15 -190.8
Q -338.2 -190.8 -338.25 -190.8 -339.75 -190.95 -340.5 -191.65 -340.75 -191.85 -340.9 -192.15 -341.75 -193.4 -341.3 -197.7 -342.45 -205.4 -333.95 -211.8 -327.25 -216.95 -318.3 -219.15 -317.9 -219.25 -317.35 -218.95 -317.3 -218.95 -317.3 -218.9 -316.95 -218.6 -316.95 -218.15
L -316.95 -218.1
Q -316.95 -215.1 -316.95 -212.95 -317.05 -209.95 -317.15 -208.7
L -317.15 -208.65 -318.9 -201.6
Q -319.35 -200.6 -319.9 -199.7 -322.4 -195.85 -326.5 -193.3
M -415.05 -191.4
Q -412.1 -192.5 -410.95 -191.9 -410.45 -191.65 -410.35 -191.25 -410.3 -191.15 -410.25 -190.95 -410 -189.65 -410 -185.2 -409.8 -180.5 -410.75 -177.35 -410.9 -176.85 -411.05 -176.4
L -417.15 -165.6 -420.1 -163.1
Q -421.7 -161.85 -423.55 -160.65 -425.35 -159.6 -430.6 -156.75 -437.65 -153.1 -440.6 -153.4 -441.65 -153.6 -441.85 -154.65
L -442.05 -157.3
Q -444.05 -162.65 -441.2 -170.3 -438.6 -177.25 -434.3 -181.1 -428.6 -186.15 -420.1 -189.2 -419.35 -189.4 -415.05 -191.4
M -440.9 -150.65
Q -440.7 -150.75 -440.5 -150.75
L -440.5 -150.8 -440.05 -150.7 -439.65 -150.7
Q -439.5 -150.8 -439.3 -150.55 -439.25 -150.55 -439.2 -150.45 -439.1 -150.15 -439.3 -150.05
L -439.4 -150.05 -439.4 -149.4
Q -439.75 -147 -440.1 -145
L -441.85 -136.4 -446.25 -127.5
Q -447.25 -126.2 -448.35 -125.05 -453.8 -119.35 -459.8 -118.5 -463.35 -117.9 -465.45 -117.55 -469.25 -117.15 -470.95 -118 -471.55 -118.2 -471.55 -118.95 -471.55 -124.95 -469.65 -130.6 -467.55 -136.9 -463.8 -140.7 -459.3 -145.1 -453.2 -147.5 -448.65 -149.3 -441.1 -150.45
L -440.9 -150.65
M -272.85 -169.95
L -272.3 -162.3 -274.7 -149.6
Q -275.05 -148.8 -275.45 -148.05 -278.1 -143.3 -282.8 -140.45 -284.1 -139.65 -285.85 -138.9
L -292.8 -136.4
Q -293.55 -136.2 -294.1 -136.05 -295.05 -135.85 -295.2 -135.85 -296.2 -135.7 -296.7 -136.2 -296.75 -136.25 -296.8 -136.3
L -296.75 -136.3
Q -297 -136.55 -297.1 -136.9 -299 -142.35 -298.9 -145.1 -298.9 -151.3 -294.05 -156.85 -287.2 -165.9 -274.4 -171.45 -273.9 -171.65 -273.45 -171.35 -273.3 -171.2 -273.15 -171.05
L -273.15 -171.1 -273.05 -170.9
Q -273 -170.75 -272.95 -170.6
L -272.95 -170.55
Q -272.9 -170.25 -272.85 -169.95
M -292.65 -124.5
Q -292.9 -125.05 -293.1 -125.55 -293.55 -126.6 -293.65 -127.35 -293.85 -128.5 -293.35 -129.05
L -293.2 -129.2
Q -293.15 -129.2 -293.1 -129.15 -292.25 -130.05 -290.35 -130.8 -288.4 -131.65 -287 -131.75 -276.1 -132.6 -270.1 -124.7 -266.75 -120.1 -265.15 -115.8 -264.2 -112.55 -264.1 -112.1 -263.6 -109.9 -263.9 -108.55 -264.3 -107.3 -265.25 -107.9 -269.25 -110.2 -276.95 -112 -279.95 -112.55 -281.35 -112.85 -283.95 -113.35 -285.55 -114.55 -287.1 -115.55 -288.3 -116.85
L -290.35 -119.7 -290.9 -120.85
Q -291.2 -121.5 -291.45 -122.15 -291.7 -122.55 -291.9 -122.95
L -292.65 -124.5
M -223.35 -26.8
Q -225.15 -28.8 -225.05 -31.45 -225.05 -37.45 -217.15 -42.25 -209.5 -47 -194.6 -45 -193.4 -45 -193.65 -43.75
L -194 -42.05
Q -194.25 -41.1 -194.8 -39.95 -195.4 -38.6 -196.7 -36.25 -198.65 -32.3 -201.4 -29.25 -204.55 -25.65 -209.5 -24.4 -214.35 -23.05 -218.95 -24.3 -221.7 -24.95 -223.35 -26.8
M -513.8 8.25
Q -513.15 8.05 -512.55 8.9 -511.25 10.9 -506.25 16.9 -502.25 21.5 -500.75 25.4 -496.75 35.15 -499.65 42.55 -499.95 43.35 -500.35 44.1 -500.75 44.7 -501.3 44.6 -505.9 44.5 -510.65 40.7 -510.7 40.65 -510.75 40.6 -515.25 37 -516.85 32.55 -517 32.1 -517.1 31.7
L -517.35 30.85
Q -518.55 26.4 -518.4 21.4
L -518.4 21.35 -517.1 13.95
Q -516.45 12 -515.4 10.4 -514.95 8.85 -514.1 8.4 -513.95 8.3 -513.8 8.25
M 349.65 -8.35
Q 347.2 -5.7 347.1 -1.6 347 2.25 348.9 5.75 327.8 20.35 324.6 41
L 324.25 43.3
Q 324 45.7 323.95 47.95
L 332.05 72.3
Q 332.1 72.3 332.1 72.35 336 76.35 341.55 78.7
L 347.9 80.7
Q 349 80.95 350.2 81.15
L 348.75 82.6
Q 347.6 83.95 347.5 85.75 347.15 87.65 348.3 88.8 348.35 88.8 348.35 88.85 349.6 90.25 351.55 90.65
L 351.75 90.65
Q 351.85 90.7 352 90.7 348.2 93.5 347.05 97.3 346.35 99.45 346.8 101.35
L 348.65 104.85
Q 348.7 104.85 348.7 104.9
L 351.1 106.65
Q 352.4 107.2 354.05 107.1 346.65 114.55 344.95 123.25 342.45 136.35 353.55 149.7 353.55 149.75 353.6 149.75
L 388.55 161.4
Q 391.7 160.95 395.1 160.05 406.25 157.1 415.25 150.7 424.3 144.3 427.75 136.95
L 429.45 138.25
Q 430.95 139.05 432.7 138.4 434.7 137.55 435.85 135.25 437.35 132.2 436.6 128.75 440.6 129 441.9 126.1
L 441.9 126.05
Q 442.15 125.35 442.3 124.55
L 442.45 122.65 442.45 122.6 441.75 118.15
Q 441.55 117.55 441.35 117
L 441.4 117.05
Q 439.85 113 436.2 108.25 435.6 107.45 434.25 106.3 434.15 106.2 434.1 106.15 439.55 104.7 441.85 99.1 443 95.95 441.45 92 441.05 91.05 440.6 90.15
L 436.8 85.35
Q 438.25 84.95 439.5 84.15
L 439.45 84.15
Q 440.5 83.45 441.4 82.55
L 443.05 80.4
Q 443.1 80.3 443.2 80.2 443.2 80.15 443.25 80.1
L 444.25 76.8
Q 444.3 76.2 444.25 75.65
L 444.3 75.7
Q 444.25 75.55 444.25 75.45 444.1 74.35 443.65 73.25
L 444.75 74.6
Q 444.75 74.65 444.8 74.65
L 447.4 76.9
Q 448.5 77.55 449.7 77.75 449.95 77.8 450.2 77.8
L 450.25 77.8
Q 453.4 78.1 455.7 75.15 455.75 75.1 455.85 75.05
L 456.7 73.7
Q 457.1 72.95 457.5 72
L 457.5 72.05
Q 457.5 72.1 457.55 72.15
L 457.55 72.2
Q 457.55 72.25 457.6 72.3 457.6 72.35 457.6 72.4 457.6 72.45 457.65 72.5
L 457.65 72.6 458.45 74.3
Q 459.3 75.7 460.75 76.2
L 462.2 76.5
Q 463.55 76.55 465.25 76 470.2 74.25 470.4 67.3 470.45 67.35 470.5 67.35 470.85 67.65 471.25 67.85 472.6 68.65 474.25 68.85 476.4 69.15 478.05 68.05
L 478.05 68.1 478.1 68.05
Q 478.2 68 478.3 67.9 479.35 67.3 480.5 65.55 481.4 68 483.6 69.7 484.25 70.2 484.9 70.55
L 485.35 70.75
Q 486.7 71.4 488.25 71.6 488.4 71.6 488.55 71.6
L 492.65 71.45
Q 494.7 71.1 496.7 70.15 500.75 68.15 502.9 64.8 502.95 65.05 503.05 65.3 503.05 65.35 503.1 65.5 503.15 65.6 503.25 65.75 503.7 66.7 504.55 67.45 504.85 67.7 505.15 67.9 506.8 69.15 509.45 68.85 507.95 71.8 508.55 73.95 508.6 74.1 508.7 74.3 508.85 74.7 509.05 75.05 509.95 76.55 511.8 77.05 511.95 77.05 512.1 77.1
L 512.4 77.2
Q 512.45 77.2 512.55 77.2 512.6 77.2 512.7 77.25 514.5 77.55 516.3 76.75
L 515.75 78.4
Q 515.75 78.5 515.7 78.55 515.65 78.65 515.65 78.75 515.65 78.8 515.6 78.9 515.6 79 515.55 79.1 515.55 79.15 515.5 79.25 515.5 79.3 515.5 79.35 515.45 79.4 515.45 79.5 515.45 79.55 515.45 79.6 515.4 79.65 515.4 79.75 515.2 80.6 515.15 81.45
L 515.1 83.2
Q 515.1 84.05 515.2 85 515.2 85.15 515.25 85.35 515.3 85.55 515.3 85.75 515.85 89.3 517.85 91.65 520.35 94.55 524.25 94.4
L 525.6 94.3
Q 526.25 94.15 527 94 526.05 95.2 525.1 97.2 523.65 100.35 523.75 103.7 523.75 103.9 523.8 104.05 523.85 105.2 524.1 106.2 524.2 106.65 524.35 107.1
L 525.9 109.65
Q 525.95 109.7 526.05 109.8 526.1 109.85 526.15 109.9
L 526.2 109.95 527 110.55
Q 527.65 111 528.45 111.2 528.45 111.25 528.45 111.3 528.1 113.35 528.9 115.15
L 529.6 116.35
Q 529.7 116.5 529.85 116.7
L 530.25 117.15
Q 530.3 117.15 530.3 117.2 532.3 119.1 534.45 118.85 533.3 121.65 534.65 125.95 534.8 126.4 535 126.9
L 535.3 127.55
Q 535.4 127.8 535.55 128.05 536.9 130.8 539.25 133.2
L 539.5 133.5
Q 540.1 134.1 540.75 134.7 540.75 134.75 540.8 134.75 552.9 144.8 578.4 140.4 606.75 135.45 616.55 116.15 620.65 108.05 618.95 100.7 618.65 99.35 618.15 98.15
L 613.85 92 610.8 89.9
Q 610.45 89.65 610.05 89.45 613.05 88.4 613.5 86.2 613.75 84.8 613.25 83.45
L 611.55 81
Q 611.4 80.85 611.3 80.75 618.5 81.05 624.85 77.8 634.3 72.85 639.2 60.35 640.5 57.1 641 53.95
L 641 45.7
Q 639.6 37 632.1 28.65 629.2 25.25 625.5 22.35 610.1 9.65 592.25 11.95 597 5 598.65 -2.55 601.95 -17.7 586.4 -21.05 590.6 -24.6 589.75 -28.4 589.2 -30.6 586.7 -32.2 584.3 -33.65 581.95 -33.35
L 581.75 -33.25
Q 582.5 -36.7 579.85 -38.25 576.1 -40.7 571.8 -37.65
L 571.15 -37
Q 573.25 -44.8 569.7 -53.6 563.8 -68.3 543.4 -80.9 535.7 -85.65 527.95 -88.45 512.5 -93.95 496.7 -91.65 477.65 -88.9 469.45 -78.8 468.65 -81.25 466.85 -82.6 464.85 -84.3 462.45 -83.95 459.2 -83.55 457.3 -81 456.5 -79.9 456.1 -78.6 455.6 -77.1 455.6 -75.35 452.65 -77.35 449.85 -76.6 448.15 -76.2 447.3 -74.3 446.6 -72.7 446.7 -70.75
L 446.7 -70.1
Q 438.15 -74.8 428.6 -75.45 414 -76.4 401 -66.65 382.8 -53.3 380.4 -32.05 378.95 -35.1 376.5 -36.7 373.7 -38.5 370.75 -37.3 365.8 -35.35 367.05 -23.55
L 367.6 -20
Q 365.15 -22.4 362.45 -22.95 359.4 -23.55 357.5 -21.45 355.8 -19.55 356.15 -16.55 356.35 -13.8 357.9 -11.4 353.5 -12.2 349.65 -8.35
M 402.45 -43
Q 402 -44.05 401.75 -44.75 401.55 -45.2 401.5 -45.35 401.45 -45.6 401.4 -45.85 401.4 -46 401.4 -46.15 401.45 -46.7 401.8 -47.15 401.85 -47.1 401.9 -47.05 402.3 -47.5 403.1 -47.85 405.7 -48.9 408.55 -48.35
L 410.95 -47.85
Q 415.4 -46.15 417.9 -42.05 418.55 -40.9 418.7 -40.2
L 418.75 -40.2
Q 418.8 -40 418.75 -39.8 418.75 -39.65 418.75 -39.55 418.55 -38.6 416.75 -37.75 412.25 -35.45 408.55 -37.1 404.25 -39 402.45 -43
M 439.95 -26.95
Q 441.65 -31.45 444.5 -33.95 448.05 -37.2 453.7 -39.3 454.25 -39.45 457.1 -40.7 459.7 -41.75 460.15 -40.6 460.35 -39.85 460.35 -36.7 460.55 -33.85 459.9 -31.55 459.7 -30.9 459.5 -30.3
L 455.7 -23.9 449.85 -19.75
Q 448.5 -18.95 446.9 -18.1 442.25 -15.7 440.25 -15.9 439.7 -15.9 439.6 -16.4 439.55 -16.45 439.5 -16.55
L 439.55 -16.55
Q 439.55 -16.6 439.55 -16.65
L 439.35 -18.4
Q 438.05 -22 439.95 -26.95
M 421.35 -0.9
Q 422.75 -5.1 425.15 -7.6 428.1 -10.55 432.1 -12 435.15 -13.15 439.95 -13.9
L 440.15 -14
Q 440.25 -14.05 440.35 -14.1
L 440.35 -14.15 440.7 -14.05 440.9 -14.15
Q 441.1 -14.15 441.2 -13.95
L 441.2 -13.9
Q 441.2 -13.8 441.1 -13.7
L 441 -13.7 441.1 -13.3 441.1 -13.25 439.95 -6.9
Q 439.7 -5.5 439.45 -4.75 438.15 -0.25 435.25 2.7 431.65 6.5 427.75 6.9 425.45 7.4 424.1 7.55 421.6 7.85 420.4 7.3 420.1 7.2 420.1 6.7 420.1 2.8 421.35 -0.9
M 490.9 -61.7
Q 493.55 -60.65 496.25 -58.65 499.1 -56.55 500.55 -54.45 501.95 -52.45 502.65 -50.15 503.4 -47.3 502.75 -45.3
L 502.45 -45 501.7 -44.9
Q 501 -44.55 499.95 -44.55 499.2 -44.35 498.35 -44.55
L 494.5 -45.5
Q 493.1 -46.1 492.25 -47.1 491.3 -48.15 490.75 -49.45
L 489.85 -52.15
Q 489.7 -52.95 489.65 -53.75
L 489.65 -53.8
Q 489.55 -56.15 490.15 -61.1
L 490.15 -61.15
Q 490.4 -61.9 490.9 -61.7
M 520.4 -58.95
Q 521.25 -59.15 521.25 -58.25 521.25 -53.6 521.05 -52.05
L 520.45 -48.8
Q 520 -47.3 519.25 -46.15 517.7 -43.65 514.95 -42.05 512.1 -40.35 509.3 -40.35 507.9 -40.25 507.3 -40.35 506.05 -40.5 505.6 -41.2 504.85 -42.25 505.3 -44.9 504.55 -49.8 510.1 -54.15 514.55 -57.5 520.4 -58.95
M 549.1 -27.65
Q 549.4 -27.75 549.7 -27.65 549.85 -27.6 549.9 -27.45 550.05 -27.3 550.05 -27.05 551.5 -18.1 548.45 -12.45
L 546.4 -9.6
Q 545.2 -8.35 543.65 -7.4 541.3 -6 537.1 -4.75
L 535.55 -4.35
Q 534.5 -4.25 534.2 -5.1 533 -8.95 533 -10.45 533 -14.55 536.3 -18.1 540.6 -24.1 549.1 -27.65
M 538.7 -1.1
Q 539.95 -1.6 540.9 -1.7 548.15 -2.25 551.95 2.9 554.25 5.85 555.1 8.8 556.25 12.55 555.9 13.5 555.7 14.25 555.1 13.95 552.35 12.35 547.4 11.2 545.5 10.9 544.6 10.7 542.9 10.35 541.75 9.65 539.1 7.75 537.95 4.6 537.2 3.2 536.9 2.4 536.55 1.65 536.5 1.1
L 536.5 0.75
Q 536.5 0.3 536.7 0.05 537.2 -0.55 538.7 -1.1
M 601.3 55.1
Q 602.05 55.1 602.05 55.95 601.8 57.2 599.95 60.8 598.9 63.3 596.9 65.4 594.8 67.7 591.65 68.65 588.5 69.5 585.35 68.65 581.35 67.5 581.35 63.95 581.45 59.85 586.6 56.9 591.55 53.85 601.3 55.1
M 408.85 76.85
Q 409.4 76.85 411.05 76.65 412.6 76.45 413.05 76.95
L 413.05 76.9
Q 413.3 77.15 413.35 77.35 413.4 77.55 413.3 77.7 410.55 82 409.8 82.95 407.3 86 404.9 86.5 402.9 86.95 398.9 86.75 394.9 86.4 392.9 86.95 392.65 87 392.4 86.85 392.35 86.8 392.3 86.8 392.25 86.7 392.15 86.6 391.95 86.2 392.15 85.9
L 392.7 85.25
Q 396.7 78.2 401.4 77.05 402.9 76.65 405.1 76.75 406.35 76.75 408.85 76.85
M 390.7 10.9
Q 393.1 13.5 393.65 14.9 393.85 15.4 394.6 16.75 395.1 18.05 395 18.65 395 18.75 394.95 18.85
L 395 18.85
Q 394.35 20.1 390.05 19.95 388.8 19.95 387.55 19.8 383.15 19.5 378.95 14.9
L 378.9 14.85 377.2 12.8
Q 376.95 12.4 376.7 12 375.85 10.85 375.15 9.4 375.1 9.25 375.05 9.15 373.75 6.45 374.75 5.75 375.35 5.2 378.85 5.55 382.9 6.15 383.35 6.25 387.65 7.65 390.7 10.9
M 370.55 47.85
L 370.65 47.25
Q 371.45 41.65 377.9 37.05 383.75 32.85 389.85 32.1 390.35 32.1 390.55 32.55
L 390.6 32.6
Q 390.75 32.95 390.85 33.55
L 391 35.95
Q 391 37.15 390.9 38.7 390.9 38.9 390.9 39.1 390.85 39.15 390.9 39.2
L 389.6 44.15
Q 389.25 44.9 388.8 45.55 384.4 52.05 374.95 53.75 373.35 54.15 372.4 54.25 370.65 54.5 370.1 53.65 369.7 52.9 370 50.8 370.4 48.5 370.55 47.85
M 389.4 98.55
Q 389.55 94.15 391.3 91.4 391.75 90.25 392.25 90.05
L 392.25 90.1
Q 392.3 90 392.4 90 392.8 89.9 393.2 90.4 394.05 91.65 397.3 95.55 399.95 98.7 401 101.1 403.85 108.35 401.2 113.4 401 113.85 400.55 113.85 397.5 113.7 394.5 111.2 394.3 111.05 394.1 110.85
L 393.1 109.95 391.5 108
Q 390.8 106.95 390.45 105.8 389.3 102.55 389.4 98.55 Z"/>

<path fill="url(#Gradient_3)" stroke="none" d="
M -352.9 -309.65
Q -360.15 -305.85 -364.9 -300.2
L -368.25 -295.25
Q -378.95 -300.5 -398.6 -302.2 -417.3 -303.85 -436 -301.65 -455.65 -299.45 -466.25 -294.1 -466.35 -294.05 -466.45 -294 -478.15 -287.95 -475.05 -279.5 -469.5 -264.5 -426.25 -265.75 -404.6 -266.35 -384 -270.05
L -382.65 -266.6
Q -381.35 -264.15 -379.25 -261.75 -368 -267.15 -354.55 -269.15 -318.1 -274.5 -283.15 -252.85 -274.65 -247.6 -267.8 -242.1 -262.3 -243.25 -256.8 -244.75 -240 -249.45 -230 -255.15
L -226.45 -251.35
Q -221.5 -246.7 -214.8 -243.05 -193.55 -231.2 -163.4 -232.55 -139.15 -233.6 -125.7 -243.35 -119 -248.3 -117.1 -253.05
L -105.65 -248.95
Q -91.35 -245.15 -77.3 -247.15 -63.3 -249.05 -54.3 -255 -49.75 -257.95 -48.1 -260.6
L -38.75 -260.5
Q -27.6 -260.6 -18.15 -261.65 11.7 -265.3 11.7 -277.9 11.7 -286.85 -4.4 -292.5 -6.65 -293.3 -9.1 -294 -22.9 -297.95 -42.2 -298.1 -60.25 -298.2 -75.1 -295.45
L -86.3 -292.75
Q -86.2 -293.35 -86.15 -294 -85.65 -299.25 -87.7 -305.35 -92.2 -319.1 -108.3 -324.25 -124.25 -329.5 -144.6 -327.4
L -161.85 -324.25
Q -165.85 -330.85 -176.65 -336.85 -198.5 -348.7 -233.15 -345.65 -267.95 -342.5 -282.75 -326.25 -287.35 -321.1 -289.45 -315.3 -290.5 -312.5 -290.6 -310.6 -329.7 -321.7 -352.9 -309.65 Z"/>

<path fill="#B47C56" stroke="none" d="
M -247.05 270.25
Q -250.2 268.8 -252 268.8 -254.9 269 -258.8 272.35 -262.4 275.65 -263 276.8 -263.2 277.3 -263.55 279.95 -263.85 283.1 -263.75 283.7 -263.65 283.95 -263.5 284.2 -262.8 285.45 -260.45 286.2 -253.1 288.4 -246.05 286.8 -239.2 285.35 -240.15 282.4 -243.45 273.1 -246.25 270.85 -246.65 270.45 -247.05 270.25
M 328.5 264.2
Q 326.8 264.65 325.1 266.1
L 321.5 270
Q 318.1 274.75 317.7 276.3 317.6 276.95 317.9 280.1 318.3 283.9 318.65 284.4 319.6 286.2 322.95 286.5 332.1 287.25 339.95 283.65 346.15 280.85 346.1 278.2
L 346.1 277.9
Q 346 277.4 345.75 276.9
L 345.35 276.3
Q 343.8 273.75 341.75 271.15 337.25 265.3 334.6 264.65 334.5 264.6 334.35 264.6 334.3 264.55 334.25 264.55
L 330.95 264
Q 329.5 263.9 328.5 264.2 Z"/>

<path fill="url(#Gradient_4)" stroke="none" d="
M 267.25 -113.3
L 268.6 -109.85
Q 270.9 -105.5 275.75 -101.4 291.2 -88.6 325.95 -83.65 360.75 -78.65 394.45 -88 411.35 -92.7 421.25 -98.4
L 424.9 -94.6
Q 429.75 -89.95 436.45 -86.3 445.45 -81.25 456.1 -78.6 456.5 -79.9 457.3 -81 459.2 -83.55 462.45 -83.95 464.85 -84.3 466.85 -82.6 468.65 -81.25 469.45 -78.8 477.65 -88.9 496.7 -91.65 512.5 -93.95 527.95 -88.45 532.7 -92.45 534.25 -96.3
L 545.7 -92.2
Q 560 -88.4 573.95 -90.3 587.95 -92.2 596.95 -98.15 601.6 -101.2 603.25 -103.85
L 612.6 -103.75
Q 623.75 -103.85 633.1 -104.9 637.35 -105.4 641 -106.1
L 641 -137.6
Q 627.5 -141.2 609.15 -141.35 591 -141.45 576.15 -138.7
L 564.95 -136
Q 565.85 -141.75 563.65 -148.6 559.15 -162.25 543.1 -167.5 527.1 -172.85 506.65 -170.65
L 489.4 -167.5
Q 485.5 -174.1 474.6 -180.1 452.85 -192.05 418.1 -188.9 383.4 -185.85 368.6 -169.5 364 -164.35 361.9 -158.55 360.85 -155.6 360.75 -153.75 321.65 -164.95 298.45 -152.9 291.2 -149.1 286.45 -143.45
L 283.1 -138.5
Q 272.4 -143.75 252.65 -145.45 233.95 -147.1 215.25 -144.9 195.6 -142.7 185 -137.25 173.05 -131.15 176.2 -122.65 181.75 -107.75 225 -109 246.75 -109.6 267.25 -113.3 Z"/>
</g>
</defs>

<g transform="matrix( 1, 0, 0, 1, 641,360.65) ">
<g transform="matrix( 1, 0, 0, 1, 0,0) ">
<use xlink:href="#Symbol_1_0_Layer0_0_FILL"/>
</g>
</g>
</svg>
