<?xml version="1.0" encoding="UTF-8" standalone="no"?>
<!-- Created with Inkscape (http://www.inkscape.org/) -->

<svg
   xmlns:dc="http://purl.org/dc/elements/1.1/"
   xmlns:cc="http://creativecommons.org/ns#"
   xmlns:rdf="http://www.w3.org/1999/02/22-rdf-syntax-ns#"
   xmlns:svg="http://www.w3.org/2000/svg"
   xmlns="http://www.w3.org/2000/svg"
   xmlns:sodipodi="http://sodipodi.sourceforge.net/DTD/sodipodi-0.dtd"
   xmlns:inkscape="http://www.inkscape.org/namespaces/inkscape"
   width="66"
   height="66"
   id="svg4211"
   version="1.1"
   inkscape:version="0.92.3 (2405546, 2018-03-11)"
   sodipodi:docname="bar_previous.svg">
  <defs
     id="defs4213">
    <filter
       style="color-interpolation-filters:sRGB"
       inkscape:label="Drop Shadow"
       id="filter632">
      <feFlood
         flood-opacity="0.498039"
         flood-color="rgb(0,0,0)"
         result="flood"
         id="feFlood622" />
      <feComposite
         in="flood"
         in2="SourceGraphic"
         operator="in"
         result="composite1"
         id="feComposite624" />
      <feGaussianBlur
         in="composite1"
         stdDeviation="4.5"
         result="blur"
         id="feGaussianBlur626" />
      <feOffset
         dx="-2.5"
         dy="17"
         result="offset"
         id="feOffset628" />
      <feComposite
         in="SourceGraphic"
         in2="offset"
         operator="over"
         result="composite2"
         id="feComposite630" />
    </filter>
  </defs>
  <sodipodi:namedview
     id="base"
     pagecolor="#959595"
     bordercolor="#666666"
     borderopacity="1.0"
     inkscape:pageopacity="0"
     inkscape:pageshadow="2"
     inkscape:zoom="7.9195959"
     inkscape:cx="44.490952"
     inkscape:cy="18.601907"
     inkscape:document-units="px"
     inkscape:current-layer="layer1"
     showgrid="false"
     fit-margin-top="0"
     fit-margin-left="0"
     fit-margin-right="0"
     fit-margin-bottom="0"
     inkscape:window-width="1920"
     inkscape:window-height="1024"
     inkscape:window-x="0"
     inkscape:window-y="0"
     inkscape:window-maximized="1" />
  <metadata
     id="metadata4216">
    <rdf:RDF>
      <cc:Work
         rdf:about="">
        <dc:format>image/svg+xml</dc:format>
        <dc:type
           rdf:resource="http://purl.org/dc/dcmitype/StillImage" />
        <dc:title />
        <dc:date>2015</dc:date>
        <dc:creator>
          <cc:Agent>
            <dc:title>Timothée Giet</dc:title>
          </cc:Agent>
        </dc:creator>
        <cc:license
           rdf:resource="http://creativecommons.org/licenses/by-sa/4.0/" />
      </cc:Work>
      <cc:License
         rdf:about="http://creativecommons.org/licenses/by-sa/4.0/">
        <cc:permits
           rdf:resource="http://creativecommons.org/ns#Reproduction" />
        <cc:permits
           rdf:resource="http://creativecommons.org/ns#Distribution" />
        <cc:requires
           rdf:resource="http://creativecommons.org/ns#Notice" />
        <cc:requires
           rdf:resource="http://creativecommons.org/ns#Attribution" />
        <cc:permits
           rdf:resource="http://creativecommons.org/ns#DerivativeWorks" />
        <cc:requires
           rdf:resource="http://creativecommons.org/ns#ShareAlike" />
      </cc:License>
    </rdf:RDF>
  </metadata>
  <g
     inkscape:label="Calque 1"
     inkscape:groupmode="layer"
     id="layer1"
     transform="translate(-483.10616,-391.492)">
    <g
       id="g67"
       transform="matrix(-0.16160963,0,0,0.1791388,510.09459,387.56433)"
       style="filter:url(#filter632)">
      <g
         id="g4199"
         transform="matrix(1.1057504,0,0,1.9438698,89.816637,-253.83262)">
        <g
           transform="matrix(1.0578303,0,0,1.0578303,-403.62028,-451.18526)"
           id="use4197">
          <path
             style="fill:#ffffff;stroke:none"
             inkscape:connector-curvature="0"
             id="path5536"
             d="m 138.55,573.95 q -6.05,0 -8.6,6.1 -2.55,6.05 1.3,11.25 l 38.9,51.7 q 2.2,2.95 2.2,6.75 0,3.85 -2.2,6.75 l -38.9,51.7 q -3.85,5.15 -1.3,11.2 2.55,6.1 8.6,6.1 h 209.5 q 3.8,0 6.6,-2.9 l 59.4,-63.4 q 2.95,-3.1 2.95,-7.6 0,-4.5 -2.95,-7.6 L 351.3,576.9 q -2.85,-2.95 -6.6,-2.95 z" />
        </g>
      </g>
      <g
         id="g4203"
         transform="matrix(1.1057504,0,0,1.9438698,89.816637,-253.83262)">
        <g
           transform="matrix(1.0578303,0,0,1.0578303,-403.62028,-451.18526)"
           id="use4201">
          <path
             style="fill:#2792c1;stroke:none"
             inkscape:connector-curvature="0"
             id="path5544"
             d="m 149.9,581.55 q -5.45,0 -6.85,3.3 -1.45,3.35 2.05,7.95 l 39.2,50.85 q 2,2.65 2,6.1 0,3.45 -2,6.1 l -40.7,54 q -2.75,4.05 -0.7,6.4 1.7,1.9 5.5,1.9 l 196.1,-0.2 q 3.4,0 5.9,-2.65 l 53.5,-57.05 q 2.65,-2.75 2.65,-6.85 0,-4.05 -2.65,-6.85 L 347.4,584.2 q -2.5,-2.65 -5.95,-2.65 z" />
        </g>
      </g>
      <g
         transform="matrix(1.1696963,0,0,2.0562844,-356.48665,-1130.878)"
         id="use4205">
        <path
           style="fill:#2c9ec6;stroke:none"
           inkscape:connector-curvature="0"
           id="path5540"
           d="m 156.3,704.15 q -2.55,3.95 -0.65,6.25 1.6,1.85 5.15,1.85 l 181.45,-0.15 q 3.15,0 5.45,-2.6 L 397.2,653.55 194,651.2 Z" />
      </g>
    </g>
  </g>
</svg>
