<?xml version="1.0" encoding="UTF-8" standalone="no"?>
<!-- Created with Inkscape (http://www.inkscape.org/) -->

<svg
   xmlns:dc="http://purl.org/dc/elements/1.1/"
   xmlns:cc="http://creativecommons.org/ns#"
   xmlns:rdf="http://www.w3.org/1999/02/22-rdf-syntax-ns#"
   xmlns:svg="http://www.w3.org/2000/svg"
   xmlns="http://www.w3.org/2000/svg"
   xmlns:xlink="http://www.w3.org/1999/xlink"
   xmlns:sodipodi="http://sodipodi.sourceforge.net/DTD/sodipodi-0.dtd"
   xmlns:inkscape="http://www.inkscape.org/namespaces/inkscape"
   width="66"
   height="66"
   id="svg4211"
   version="1.1"
   inkscape:version="0.92.3 (2405546, 2018-03-11)"
   sodipodi:docname="bar_home.svg">
  <defs
     id="defs4213">
    <linearGradient
       id="Gradient_3"
       gradientUnits="userSpaceOnUse"
       x1="90.75"
       y1="176.4875"
       x2="134.35"
       y2="20.01249999999999"
       spreadMethod="pad">
      <stop
         offset="0%"
         stop-color="#00C37E"
         id="stop12" />
      <stop
         offset="1.1764705882352942%"
         stop-color="#08C57A"
         id="stop14" />
      <stop
         offset="11.372549019607844%"
         stop-color="#3BCF5E"
         id="stop16" />
      <stop
         offset="21.568627450980394%"
         stop-color="#68D845"
         id="stop18" />
      <stop
         offset="32.15686274509804%"
         stop-color="#8FE02F"
         id="stop20" />
      <stop
         offset="43.13725490196079%"
         stop-color="#AEE61E"
         id="stop22" />
      <stop
         offset="54.509803921568626%"
         stop-color="#C6EB11"
         id="stop24" />
      <stop
         offset="66.66666666666667%"
         stop-color="#D8EE07"
         id="stop26" />
      <stop
         offset="79.6078431372549%"
         stop-color="#E2F002"
         id="stop28" />
      <stop
         offset="95.29411764705883%"
         stop-color="#E5F100"
         id="stop30" />
    </linearGradient>
    <linearGradient
       id="Gradient_2"
       gradientUnits="userSpaceOnUse"
       x1="-30.475"
       y1="102.7"
       x2="33.775"
       y2="-127.8"
       spreadMethod="pad">
      <stop
         offset="11.372549019607844%"
         stop-color="#840D99"
         id="stop17" />
      <stop
         offset="39.6078431372549%"
         stop-color="#B825AA"
         id="stop19" />
      <stop
         offset="64.70588235294117%"
         stop-color="#DF36B6"
         id="stop21" />
      <stop
         offset="85.09803921568627%"
         stop-color="#F641BE"
         id="stop23" />
      <stop
         offset="97.25490196078431%"
         stop-color="#FF45C1"
         id="stop25" />
    </linearGradient>
    <linearGradient
       inkscape:collect="always"
       xlink:href="#Gradient_2"
       id="linearGradient69"
       gradientUnits="userSpaceOnUse"
       x1="-30.475"
       y1="102.7"
       x2="33.775"
       y2="-127.8"
       spreadMethod="pad" />
  </defs>
  <sodipodi:namedview
     id="base"
     pagecolor="#8d8d8d"
     bordercolor="#666666"
     borderopacity="1.0"
     inkscape:pageopacity="0"
     inkscape:pageshadow="2"
     inkscape:zoom="11.2"
     inkscape:cx="6.6267324"
     inkscape:cy="34.566395"
     inkscape:document-units="px"
     inkscape:current-layer="layer1"
     showgrid="false"
     fit-margin-top="0"
     fit-margin-left="0"
     fit-margin-right="0"
     fit-margin-bottom="0"
     inkscape:window-width="1920"
     inkscape:window-height="1024"
     inkscape:window-x="0"
     inkscape:window-y="0"
     inkscape:window-maximized="1"
     showguides="false" />
  <metadata
     id="metadata4216">
    <rdf:RDF>
      <cc:Work
         rdf:about="">
        <dc:format>image/svg+xml</dc:format>
        <dc:type
           rdf:resource="http://purl.org/dc/dcmitype/StillImage" />
        <dc:title />
        <dc:date>2015</dc:date>
        <dc:creator>
          <cc:Agent>
            <dc:title>Timothée Giet</dc:title>
          </cc:Agent>
        </dc:creator>
        <cc:license
           rdf:resource="http://creativecommons.org/licenses/by-sa/4.0/" />
      </cc:Work>
      <cc:License
         rdf:about="http://creativecommons.org/licenses/by-sa/4.0/">
        <cc:permits
           rdf:resource="http://creativecommons.org/ns#Reproduction" />
        <cc:permits
           rdf:resource="http://creativecommons.org/ns#Distribution" />
        <cc:requires
           rdf:resource="http://creativecommons.org/ns#Notice" />
        <cc:requires
           rdf:resource="http://creativecommons.org/ns#Attribution" />
        <cc:permits
           rdf:resource="http://creativecommons.org/ns#DerivativeWorks" />
        <cc:requires
           rdf:resource="http://creativecommons.org/ns#ShareAlike" />
      </cc:License>
    </rdf:RDF>
  </metadata>
  <g
     inkscape:label="Calque 1"
     inkscape:groupmode="layer"
     id="layer1"
     transform="translate(-341.9925,-499.36546)">
    <g
       transform="matrix(0.35767842,0,0,0.35767842,374.98663,532.35596)"
       id="g219">
      <g
         id="g211">
        <g
           id="use209">
          <path
             style="fill:url(#linearGradient69);stroke:none"
             inkscape:connector-curvature="0"
             id="path65"
             d="m 71.3,-35.45 q -2.45,-3.25 -5.05,-6.35 -16.3,-19.3 -39.4,-32.85 -27.6,-16.15 -53.7,-17.45 -28.6,-1.6 -47,15.75 -12.55,13.8 -15.9,34.55 -0.4,2.35 -0.65,4.8 -2.3,21.85 5.2,46.5 7.25,23.7 21.5,43.1 Q -49,72.65 -31.45,81.8 -9.3,93.25 13.8,92.2 35.3,91.3 53.65,80.1 71.4,69.3 81.55,51.95 91.8,34 90.9,14.05 90,-10.55 71.3,-35.45 Z" />
        </g>
      </g>
      <g
         transform="matrix(0.71168518,0,0,0.71168518,-5.4,-7)"
         id="g217">
        <g
           id="g215">
          <g
             id="use213">
            <path
               style="fill:#ffffff;stroke:none"
               inkscape:connector-curvature="0"
               id="path71"
               d="m 3.6,-62.25 -2.85,0.5 -1.85,1.05 -63.35,54.15 q -2.45,2.15 -2.65,5.4 -0.2,3.15 1.85,5.6 2.25,2.35 5.5,2.55 3.25,0.3 5.65,-1.9 l 5.5,-4.6 v 45.35 q 0,8.05 5.8,13.7 5.75,5.7 14,5.7 h 11.75 q 3.3,0 5.55,-2.25 2.35,-2.25 2.35,-5.5 V 21 q 0,-1.7 1.2,-2.75 1.15,-1.2 2.85,-1.2 h 17.4 q 1.7,0 2.85,1.2 1.2,1.05 1.2,2.75 v 35.65 q 0,1.05 0.2,1.55 l 0.15,0.9 q 0.5,2.7 2.75,4.4 2.15,1.75 5,1.75 H 36 q 8.15,0 14,-5.7 5.8,-5.65 5.8,-13.7 V 0.5 l 5.4,4.6 q 2.45,2 5.15,2 3.55,0 6,-2.65 Q 74.5,2 74.3,-1.15 74.1,-4.4 71.65,-6.55 L 8.2,-60.8 l -1.85,-0.95 -0.7,-0.2 z" />
          </g>
        </g>
      </g>
    </g>
  </g>
</svg>
