<?xml version="1.0" encoding="UTF-8"?>
<svg width="75mm" height="75mm" enable-background="new" version="1.1" viewBox="0 0 75 75" xmlns="http://www.w3.org/2000/svg">
 <title>smiley1</title>
 <g transform="translate(-7.5 -7.5)">
  <g transform="matrix(1.7442 0 0 1.7442 11.954 -16.536)">
   <path d="m8.4376 37.441c0.24873 1.0404 0.99701 1.7811 2.2021 2.2477l16.614-9.73e-4c1.3202-0.47758 1.9355-1.162 2.2015-2.2467" color="#000000" color-rendering="auto" enable-background="accumulate" fill="none" image-rendering="auto" shape-rendering="auto" solid-color="#000000" stroke="#606060" stroke-linecap="round" stroke-linejoin="round" stroke-width="1.9096" style="isolation:auto;mix-blend-mode:normal"/>
   <path d="m14.887 45.008c0.06151 1.586 1.959 3.4023 3.9723 3.2427 2.0777-0.12511 3.9171-1.4471 4.0533-2.9184v-5.5937l-8.2689-0.16214z" fill="#ea495f" fill-rule="evenodd"/>
   <path d="m16.184 42.255h5.5942c0.16607 2.4488-0.8512 3.4194-2.7566 3.4017-1.9054-0.01774-2.9266-1.0882-2.8376-3.4017z" fill="#f26a7a" fill-rule="evenodd"/>
   <g fill="none" shape-rendering="auto" stroke-linecap="round" stroke-linejoin="round">
    <path d="m18.947 43.467-5.39e-4 -3.2972" color="#000000" color-rendering="auto" enable-background="accumulate" image-rendering="auto" solid-color="#000000" stroke="#9a2400" stroke-width="2.1582" style="isolation:auto;mix-blend-mode:normal"/>
    <path d="m22.968 44.098c0 2.2207-1.8007 4.021-4.0214 4.021-2.2207-1.4e-5 -4.0212-1.8003-4.0212-4.021v-4.5341h8.0426z" color="#000000" color-rendering="auto" enable-background="accumulate" image-rendering="auto" solid-color="#000000" stroke="#9a2400" stroke-width="1.6187" style="isolation:auto;mix-blend-mode:normal"/>
    <path d="m9.8031 30.217c0.31308-1.4342 1.4528-2.9407 2.4853-3.4997 1.0323-0.55899 2.7485-0.78363 3.1954 0.2536" color="#000000" color-rendering="auto" enable-background="accumulate" image-rendering="auto" solid-color="#000000" stroke="#606060" stroke-width="1.6232" style="isolation:auto;mix-blend-mode:normal"/>
    <path d="m28.09 30.217c-0.31308-1.4342-1.4528-2.9407-2.4853-3.4997-1.0323-0.55899-2.7485-0.78363-3.1954 0.2536" color="#000000" color-rendering="auto" enable-background="accumulate" image-rendering="auto" solid-color="#000000" stroke="#606060" stroke-width="1.6232" style="isolation:auto;mix-blend-mode:normal"/>
   </g>
  </g>
 </g>
</svg>
