<?xml version="1.0" encoding="UTF-8"?>
<svg width="75mm" height="75mm" enable-background="new" version="1.1" viewBox="0 0 75 75" xmlns="http://www.w3.org/2000/svg">
 <title>smiley1</title>
 <g transform="translate(-7.5 -7.5)">
  <g transform="matrix(3.4939 0 0 3.69 -1.8678 -1010.9)" stroke="#606060" stroke-linecap="round" stroke-linejoin="round">
   <path d="m11.72 284.88c0 0.38786-0.35471 0.70521-0.82766 0.70521-0.43354 0-0.78825-0.31735-0.78825-0.70521 0-0.42313 0.35471-0.74047 0.78825-0.74047 0.47295 0 0.82766 0.31734 0.82766 0.74047z" fill="#606060" fill-rule="evenodd" stroke-width=".48462px"/>
   <path d="m16.725 284.88c0 0.38786-0.39412 0.70521-0.82766 0.70521-0.43354 0-0.78825-0.31735-0.78825-0.70521 0-0.42313 0.35471-0.74047 0.78825-0.74047 0.43354 0 0.82766 0.31734 0.82766 0.74047z" fill="#606060" fill-rule="evenodd" stroke-width=".48462px"/>
   <g fill="none">
    <path d="m17.198 290.39c-1.0641-0.70516-2.3647-1.1283-3.7835-1.1283-1.4188 0-2.7194 0.42312-3.7836 1.1283" stroke-width="1.0065px"/>
    <path d="m10.301 281.78 2.2071 1.6925" stroke-width=".74557px"/>
    <path d="m16.528 281.78-2.2465 1.6925" stroke-width=".74557px"/>
   </g>
  </g>
 </g>
</svg>
