<?xml version="1.0" encoding="UTF-8"?>
<svg width="75mm" height="75mm" enable-background="new" version="1.1" viewBox="0 0 75 75" xmlns="http://www.w3.org/2000/svg">
 <title>smiley1</title>
 <g transform="translate(-7.5 -7.5)">
  <g transform="matrix(.76622 0 0 .76622 -9.676 -157.25)">
   <g stroke="#606060">
    <path d="m93.381 248.49c0.71913-10.786-7.7305-16-15.641-14.202" fill="none" stroke-linecap="round" stroke-linejoin="round" stroke-width="2.8765"/>
    <path d="m47.178 247.95c0.71913-3.7751 4.3147-6.292 9.708-5.9325" fill="none" stroke-linecap="round" stroke-linejoin="round" stroke-width="2.8764px"/>
    <path d="m92.842 274.37c-13.124-0.1797-16.719 1.618-21.933 3.4156-5.0338 1.4382-11.326 2.8764-27.686 1.618 5.7529 9.8879 16.54 16 28.045 16 13.483 0 25.528-8.2699 30.382-20.674-3.236-0.1797-6.2923-0.3594-8.8092-0.3594z" fill="#fff" fill-rule="evenodd" stroke-width="2.2213"/>
   </g>
   <path d="m31.358 256.76h80.001" fill="none" stroke="#808080" stroke-linecap="round" stroke-linejoin="round" stroke-width="2.8764px"/>
   <g fill-rule="evenodd">
    <path d="m78.279 251h17.439c2.1573 0 3.9551 1.7978 3.9551 3.9551v7.371c0 6.472-6.6518 8.8092-8.8092 8.8092h-7.7305c-2.1573 0-8.6292-2.8765-8.6292-8.8092v-7.371c0-2.1573 1.618-3.9551 3.7751-3.9551z" fill="#404040"/>
    <path d="m46.998 251h17.438c2.1573 0 3.7754 1.7978 3.7754 3.9551v7.371c0 6.472-6.472 8.8092-8.6294 8.8092h-7.7304c-2.1573 0-8.8091-2.8765-8.8091-8.8092v-7.371c0-2.1573 1.7978-3.9551 3.9551-3.9551z" fill="#404040"/>
    <path d="m81.336 254.42c-1.7978 0-3.236 1.2585-3.236 3.0563v0.71879c0.71913 0.17969 1.618 0.17969 2.3371 0.17969 3.7754 0 7.1912-1.618 8.6294-3.9551h-7.7305z" fill="#fff"/>
    <path d="m50.054 254.42c-1.7978 0-3.4158 1.2585-3.4158 3.0563v0.71879c0.89887 0.17969 1.618 0.17969 2.5169 0.17969 3.7753 0 7.0113-1.618 8.4495-3.9551h-7.5507z" fill="#fff"/>
   </g>
  </g>
 </g>
</svg>
