<?xml version="1.0" encoding="UTF-8"?>
<svg width="260" height="300" version="1.1" viewBox="0 0 260 300" xmlns="http://www.w3.org/2000/svg">
 <g>
  <g fill-rule="evenodd">
   <path d="m135.98 265.13c19.001-41.341 85.778-73.781 88.528-69.155 2.6239 4.4139-36.86 62.518-88.528 69.155z" fill="#469832"/>
   <path d="m140.27 262.21c17.161-35.578 78.092-67.096 80.73-63.512 2.668 3.6252-34.292 55.469-80.73 63.512z" fill="#54c63a"/>
   <path d="m115.69 161.82c5.5957 23.649 12.154 86.603 11.665 101.28-0.43988 13.204-7.9562 31.77-7.9562 31.77-1.5626 0.39036 4.3879 4.8775 13.276 2.589 4.5203-1.1639 8.8194-20.248 8.3434-38.589-0.41036-15.813-6.4226-77.292-10.594-95.531-0.47728-2.0869-14.734-1.5156-14.734-1.5156z" fill="#469832"/>
   <path d="m122.83 167.29c3.4134 21.828 7.8077 79.824 7.5095 93.369-0.26833 12.188-6.9243 32.038-6.9243 32.038-0.95323 0.36032 3.5549 3.4945 8.8252 0.63676 3.1956-1.7327 7.2377-20.399 6.2292-36.25-0.92474-14.533-4.4933-71.529-7.0378-88.364-0.29115-1.9263-8.6018-1.4299-8.6018-1.4299z" fill="#54c63a"/>
  </g>
  <g transform="translate(-1.2869)" fill="#d7bb7a" fill-rule="evenodd">
   <path d="m177.35 234.5c-7.0244 1.521-19.648-22.298-22.889-33.181-3.2412-10.883-6.5497-38.85-2.2244-40.988 4.7887-2.3662 16.581 17.048 21.101 30.348 4.5202 13.3 8.2728 35.107 4.0126 43.821z"/>
   <path d="m85.219 22.132c7.0244-1.521 19.648 22.298 22.889 33.181 3.2412 10.883 6.5497 38.85 2.2244 40.988-4.7887 2.3662-16.581-17.048-21.101-30.348-4.5202-13.3-8.2728-35.107-4.0126-43.821z"/>
   <path d="m148.3 242.8c-7.1788-0.34883-13.207-26.624-13.521-37.975s3.7287-39.222 8.4598-40.167c5.2379-1.0462 11.603 20.759 12.527 34.775s-1.0955 36.052-7.4658 43.366z"/>
   <path d="m114.27 13.827c7.1788 0.34883 13.207 26.624 13.521 37.975 0.31401 11.351-3.7287 39.222-8.4598 40.167-5.2379 1.0462-11.603-20.759-12.527-34.775-0.9239-14.017 1.0955-36.052 7.4658-43.366z"/>
   <path d="m118.09 243.3c-6.8439-2.195-5.8664-29.135-3.2318-40.18 2.6346-11.046 13.753-36.92 18.567-36.609 5.3302 0.3451 5.8351 23.055 3.0997 36.833-2.7354 13.778-10.389 34.54-18.435 39.956z"/>
   <path d="m144.48 13.323c6.8439 2.1949 5.8664 29.135 3.2318 40.18-2.6346 11.046-13.753 36.92-18.567 36.609-5.3302-0.34511-5.8351-23.055-3.0997-36.833 2.7354-13.778 10.389-34.54 18.435-39.956z"/>
   <path d="m88.78 235.97c-6.0426-3.8915 1.8741-29.66 7.2778-39.648 5.4036-9.9874 22.84-32.103 27.41-30.556 5.0593 1.7129-0.3307 23.779-6.5389 36.38-6.2082 12.601-18.975 30.674-28.149 33.823z"/>
   <path d="m173.79 20.657c6.0426 3.8915-1.8741 29.66-7.2778 39.648-5.4036 9.9874-22.84 32.103-27.41 30.556-5.0593-1.7129 0.33071-23.779 6.5389-36.38 6.2082-12.601 18.975-30.674 28.149-33.823z"/>
   <path d="m62.365 221.3c-4.8295-5.3228 9.4869-28.165 17.291-36.413 7.8044-8.2485 30.371-25.097 34.384-22.42 4.4436 2.964-6.474 22.883-15.732 33.448-9.258 10.565-26.267 24.718-35.944 25.385z"/>
   <path d="m200.21 35.327c4.8295 5.3228-9.4869 28.165-17.291 36.413-7.8044 8.2485-30.371 25.097-34.384 22.42-4.4436-2.964 6.474-22.883 15.732-33.448 9.258-10.565 26.267-24.718 35.944-25.385z"/>
   <path d="m40.646 200.29c-3.2873-6.3914 16.453-24.75 26.127-30.697 9.6734-5.9475 35.831-16.382 39.015-12.757 3.525 4.0131-12.176 20.428-23.853 28.237-11.677 7.8084-31.77 17.077-41.289 15.218z"/>
   <path d="m221.93 56.334c3.2873 6.3914-16.453 24.75-26.127 30.697-9.6734 5.9475-35.831 16.382-39.015 12.757-3.525-4.0131 12.176-20.428 23.853-28.237 11.677-7.8084 31.77-17.077 41.289-15.218z"/>
   <path d="m25.105 174.38c-1.521-7.0244 22.298-19.648 33.181-22.889 10.883-3.2412 38.85-6.5497 40.988-2.2244 2.3662 4.7887-17.048 16.581-30.348 21.101-13.3 4.5202-35.107 8.2728-43.821 4.0126z"/>
   <path d="m237.47 82.246c1.521 7.0244-22.298 19.648-33.181 22.889-10.883 3.2412-38.85 6.5497-40.988 2.2244-2.3662-4.7887 17.048-16.581 30.348-21.101 13.3-4.5202 35.107-8.2728 43.821-4.0126z"/>
   <path d="m16.8 145.33c0.34883-7.1788 26.624-13.207 37.975-13.521 11.351-0.31401 39.222 3.7287 40.167 8.4598 1.0462 5.2379-20.759 11.603-34.775 12.527-14.017 0.9239-36.052-1.0955-43.366-7.4658z"/>
   <path d="m245.77 111.3c-0.34883 7.1788-26.624 13.207-37.975 13.521s-39.222-3.7287-40.167-8.4598c-1.0462-5.2379 20.759-11.603 34.775-12.527s36.052 1.0955 43.366 7.4658z"/>
   <path d="m16.297 115.12c2.1949-6.8439 29.135-5.8664 40.18-3.2318 11.046 2.6346 36.92 13.753 36.609 18.567-0.34511 5.3302-23.055 5.8351-36.833 3.0997-13.778-2.7354-34.54-10.389-39.956-18.435z"/>
   <path d="m246.28 141.51c-2.195 6.8439-29.135 5.8664-40.18 3.2318-11.046-2.6346-36.92-13.753-36.609-18.567 0.3451-5.3302 23.055-5.8351 36.833-3.0997 13.778 2.7354 34.54 10.389 39.956 18.435z"/>
   <path d="m23.63 85.806c3.8915-6.0426 29.66 1.8741 39.648 7.2778 9.9874 5.4036 32.103 22.84 30.556 27.41-1.7129 5.0593-23.779-0.33071-36.38-6.5389-12.601-6.2082-30.674-18.975-33.823-28.149z"/>
   <path d="m238.94 170.82c-3.8915 6.0426-29.66-1.8741-39.648-7.2778s-32.103-22.84-30.556-27.41c1.7129-5.0593 23.779 0.33071 36.38 6.5389 12.601 6.2082 30.674 18.975 33.823 28.149z"/>
   <path d="m38.3 59.391c5.3228-4.8295 28.165 9.4869 36.413 17.291 8.2485 7.8044 25.097 30.371 22.42 34.384-2.964 4.4436-22.883-6.474-33.448-15.732-10.565-9.258-24.718-26.267-25.385-35.944z"/>
   <path d="m224.27 197.24c-5.3228 4.8295-28.165-9.4869-36.413-17.291-8.2485-7.8044-25.097-30.371-22.42-34.384 2.964-4.4436 22.883 6.474 33.448 15.732 10.565 9.258 24.718 26.267 25.385 35.944z"/>
   <path d="m58.848 37.628c6.3914-3.2873 24.75 16.453 30.697 26.127 5.9475 9.6734 16.382 35.831 12.757 39.015-4.0131 3.525-20.428-12.176-28.237-23.853-7.8084-11.677-17.077-31.77-15.218-41.289z"/>
   <path d="m202.88 219.16c-6.3914 3.2873-24.75-16.453-30.697-26.127s-16.382-35.831-12.757-39.015c4.0131-3.525 20.428 12.176 28.237 23.853 7.8084 11.677 17.077 31.77 15.218 41.289z"/>
  </g>
  <g transform="translate(-1.2869)" fill="#f5eede" fill-rule="evenodd">
   <path d="m174.57 229.18c-5.9403 1.4037-16.355-19.375-18.982-28.893-2.6273-9.5184-5.1436-34.028-1.4742-35.946 4.0626-2.1234 13.819 14.798 17.501 26.424 3.6824 11.627 6.6339 30.727 2.9547 38.415z"/>
   <path d="m88.002 27.444c5.9403-1.4037 16.355 19.375 18.982 28.893 2.6273 9.5184 5.1436 34.028 1.4742 35.946-4.0626 2.1234-13.819-14.798-17.501-26.424-3.6824-11.627-6.6339-30.727-2.9547-38.415z"/>
   <path d="m146.99 236.95c-6.1012-0.18158-10.783-22.947-10.857-32.821-0.0742-9.8741 3.8388-34.2 7.8796-35.103 4.4738-0.9996 9.5182 17.87 10.066 30.054 0.54773 12.184-1.5448 31.397-7.0884 37.87z"/>
   <path d="m115.58 19.678c6.1012 0.18159 10.783 22.947 10.857 32.821 0.0742 9.8741-3.8388 34.2-7.8796 35.103-4.4738 0.9996-9.5182-17.87-10.066-30.054-0.54773-12.184 1.5448-31.397 7.0884-37.87z"/>
   <path d="m118.34 237.31c-5.8463-1.7545-4.4764-24.956-1.9924-34.513s12.56-32.041 16.696-31.867c4.5801 0.19236 4.5688 19.725 1.9445 31.635s-9.6182 29.927-16.648 34.745z"/>
   <path d="m144.24 19.316c5.8463 1.7545 4.4764 24.956 1.9924 34.513-2.4839 9.5568-12.56 32.041-16.696 31.867-4.5801-0.19236-4.5688-19.725-1.9445-31.635 2.6243-11.91 9.6182-29.927 16.648-34.745z"/>
   <path d="m90.569 230.25c-5.193-3.2078 2.1353-25.264 7.0081-33.853 4.8728-8.5883 20.424-27.699 24.375-26.46 4.3742 1.3712-0.69201 20.235-6.3095 31.06-5.6175 10.825-17.036 26.418-25.074 29.253z"/>
   <path d="m172.01 26.381c5.193 3.2078-2.1353 25.264-7.0081 33.853-4.8728 8.5883-20.424 27.699-24.375 26.46-4.3742-1.3712 0.69201-20.235 6.3095-31.06s17.036-26.418 25.074-29.253z"/>
   <path d="m65.574 216.23c-4.1858-4.4426 8.6015-23.851 15.531-30.885 6.9296-7.0345 26.897-21.469 30.393-19.25 3.8703 2.4566-5.9057 19.367-14.133 28.369-8.2278 9.0024-23.293 21.108-31.791 21.766z"/>
   <path d="m197 40.393c4.1858 4.4426-8.6015 23.851-15.531 30.885-6.9296 7.0345-26.897 21.469-30.393 19.25-3.8703-2.4566 5.9057-19.367 14.133-28.369s23.293-21.108 31.791-21.766z"/>
   <path d="m45.058 196.23c-2.8933-5.3746 14.481-20.812 22.996-25.813 8.5141-5.0013 31.537-13.776 34.34-10.727 3.1026 3.3746-10.717 17.178-20.994 23.744-10.277 6.5662-27.963 14.36-36.341 12.796z"/>
   <path d="m217.52 60.397c2.8933 5.3746-14.481 20.812-22.996 25.813s-31.537 13.776-34.34 10.727c-3.1026-3.3746 10.717-17.178 20.994-23.744s27.963-14.36 36.341-12.796z"/>
   <path d="m30.418 171.6c-1.4037-5.9403 19.375-16.355 28.893-18.982 9.5184-2.6273 34.028-5.1436 35.946-1.4742 2.1234 4.0626-14.798 13.819-26.424 17.501-11.627 3.6824-30.727 6.6339-38.415 2.9547z"/>
   <path d="m232.16 85.029c1.4037 5.9403-19.375 16.355-28.893 18.982-9.5184 2.6273-34.028 5.1436-35.946 1.4742-2.1234-4.0626 14.798-13.819 26.424-17.501 11.627-3.6824 30.727-6.6339 38.415-2.9547z"/>
   <path d="m22.652 144.02c0.18159-6.1012 22.947-10.783 32.821-10.857 9.8741-0.0742 34.2 3.8388 35.103 7.8796 0.9996 4.4738-17.87 9.5182-30.054 10.066-12.184 0.54773-31.397-1.5448-37.87-7.0884z"/>
   <path d="m239.92 112.61c-0.18158 6.1012-22.947 10.783-32.821 10.857-9.8741 0.0742-34.2-3.8388-35.103-7.8796-0.9996-4.4738 17.87-9.5182 30.054-10.066 12.184-0.54773 31.397 1.5448 37.87 7.0884z"/>
   <path d="m22.289 115.36c1.7545-5.8463 24.956-4.4764 34.513-1.9924 9.5568 2.4839 32.041 12.56 31.867 16.696-0.19236 4.5801-19.725 4.5688-31.635 1.9445-11.91-2.6243-29.927-9.6182-34.745-16.648z"/>
   <path d="m240.28 141.26c-1.7545 5.8463-24.956 4.4764-34.513 1.9924s-32.041-12.56-31.867-16.696c0.19236-4.5801 19.725-4.5688 31.635-1.9445s29.927 9.6182 34.745 16.648z"/>
   <path d="m29.355 87.595c3.2078-5.193 25.264 2.1353 33.853 7.0081 8.5883 4.8728 27.699 20.424 26.46 24.375-1.3712 4.3742-20.235-0.69201-31.06-6.3095s-26.418-17.036-29.253-25.074z"/>
   <path d="m233.22 169.03c-3.2078 5.193-25.264-2.1353-33.853-7.0081-8.5883-4.8728-27.699-20.424-26.46-24.375 1.3712-4.3742 20.235 0.69201 31.06 6.3095s26.418 17.036 29.253 25.074z"/>
   <path d="m43.367 62.601c4.4426-4.1858 23.851 8.6015 30.885 15.531 7.0345 6.9296 21.469 26.897 19.25 30.393-2.4566 3.8703-19.367-5.9057-28.369-14.133-9.0024-8.2278-21.108-23.293-21.766-31.791z"/>
   <path d="m219.21 194.03c-4.4426 4.1858-23.851-8.6015-30.885-15.531-7.0345-6.9296-21.469-26.897-19.25-30.393 2.4566-3.8703 19.367 5.9057 28.369 14.133 9.0024 8.2278 21.108 23.293 21.766 31.791z"/>
   <path d="m62.911 42.04c5.3746-2.8933 20.812 14.481 25.813 22.996s13.776 31.537 10.727 34.34c-3.3746 3.1026-17.178-10.717-23.744-20.994-6.5662-10.277-14.36-27.963-12.796-36.341z"/>
   <path d="m198.82 214.74c-5.3746 2.8933-20.812-14.481-25.813-22.996-5.0013-8.5141-13.776-31.537-10.727-34.34 3.3746-3.1026 17.178 10.717 23.744 20.994 6.5662 10.277 14.36 27.963 12.796 36.341z"/>
  </g>
  <path d="m173.93 129.88a43.929 43.929 0 0 1-43.929 43.929 43.929 43.929 0 0 1-43.929-43.929 43.929 43.929 0 0 1 43.929-43.929 43.929 43.929 0 0 1 43.929 43.929z" color="#000000" fill="#da9b09"/>
  <circle cx="130" cy="129.88" r="41.037" color="#000000" fill="#f3cd44"/>
  <path d="m104.07 126.77c3.9926-9.8742 15.426-7.273 18.326-0.39779-0.69337-5.0713-5.1286-8.1046-9.7102-7.994-4.5815 0.11059-8.1596 3.3679-8.616 8.3918z" fill="#c06c09" fill-rule="evenodd"/>
  <path d="m156.83 126.77c-3.9926-9.8742-15.426-7.273-18.326-0.39779 0.69337-5.0713 5.1286-8.1046 9.7102-7.994 4.5815 0.11059 8.1596 3.3679 8.616 8.3918z" fill="#c06c09" fill-rule="evenodd"/>
  <g fill="#ec9710" fill-rule="evenodd">
   <path d="m113.22 142.67c8.4275 12.299 29.224 9.3429 34.524 0.74939-2.4419 10.313-9.6671 15.103-17.951 14.769-8.2844-0.33384-13.764-6.462-16.573-15.519z"/>
   <path d="m114.77 141.62c-2.9292 1.1012-2.3764 0.94962-4.4685 3.1558 1.9818-1.1839 3.8853-2.0569 5.449-1.5807 0.85324-0.41833-0.16878-1.0062-0.98058-1.5751z"/>
   <path d="m146.52 142.13c2.9292 1.1012 2.3764 0.94962 4.4685 3.1558-1.9818-1.1839-3.8853-2.0569-5.449-1.5807-0.85324-0.41833 0.16878-1.0062 0.98058-1.5751z"/>
  </g>
  <path d="m128.72 261.71c-23.443-38.994-93.389-63.874-95.613-58.973-2.1213 4.6763 43.528 58.073 95.613 58.973z" fill="#469832" fill-rule="evenodd"/>
  <path d="m124.14 259.28c-20.979-33.469-85.013-58.077-87.24-54.224-2.252 3.8973 40.199 51.35 87.24 54.224z" fill="#54c63a" fill-rule="evenodd"/>
 </g>
</svg>
