<?xml version="1.0" encoding="UTF-8"?>
<svg width="260" height="300" version="1.1" viewBox="0 0 260 300" xmlns="http://www.w3.org/2000/svg" xmlns:xlink="http://www.w3.org/1999/xlink">
 <defs>
  <linearGradient id="linearGradient4753">
   <stop stop-color="#ef7e13" offset="0"/>
   <stop stop-color="#f39e4d" offset="1"/>
  </linearGradient>
  <linearGradient id="linearGradient4759" x1="108.38" x2="108.65" y1="84.354" y2="91.302" gradientUnits="userSpaceOnUse" xlink:href="#linearGradient4753"/>
  <linearGradient id="linearGradient4767" x1="151.56" x2="152.23" y1="86.193" y2="90.484" gradientUnits="userSpaceOnUse" xlink:href="#linearGradient4753"/>
 </defs>
 <g>
  <g fill="#a06d27" fill-rule="evenodd">
   <path d="m36.775 134.03s-11.433 2.8915-12.314 4.78c-0.88121 1.8886 6.2129 2.9874 6.2129 2.9874s2.2465-5.7625 6.1009-7.7674z"/>
   <path d="m35.573 151.32s-8.4129 8.2636-8.2211 10.339c0.19178 2.0752 6.8714-0.55452 6.8714-0.55452s-0.96704-6.1088 1.3497-9.7843z"/>
   <path d="m34.946 142.53s-10.258 5.8177-10.607 7.8722c-0.34925 2.0546 6.7824 1.2342 6.7824 1.2342s0.63919-6.1518 3.8245-9.1064z"/>
   <path d="m123.84 161.86c-14.714-12.261-58.037-23.994-66.599-24.642-6.6343-0.50218-21.851-10.915-26.756-3.9674-4.9045 6.9481-0.83796 28.081 2.4317 31.76 3.2697 3.6784 11.225 0.93713 13.677 2.572 2.4523 1.6348 37.593 17.834 51.039 18.074 9.4343 0.16798 26.207-23.796 26.207-23.796z"/>
  </g>
  <path d="m123.84 161.86c-19.627-15.44-59.482-21.104-66.599-21.463-6.6449-0.33529-19.539-12.36-24.444-5.4124-4.9045 6.9481-0.25996 23.457 3.0097 27.136 3.2697 3.6784 8.913 0.67114 11.365 2.306 2.4523 1.6348 31.235 17.834 51.039 18.074 9.4351 0.11406 25.629-20.64 25.629-20.64z" fill="#e7b46d" fill-rule="evenodd"/>
  <g fill="#a06d27" fill-rule="evenodd">
   <path d="m224.21 134.03s11.433 2.8915 12.314 4.78c0.8812 1.8886-6.2129 2.9874-6.2129 2.9874s-2.2465-5.7625-6.1009-7.7674z"/>
   <path d="m225.41 151.32s8.4129 8.2636 8.2211 10.339c-0.19178 2.0752-6.8714-0.55452-6.8714-0.55452s0.96704-6.1088-1.3497-9.7843z"/>
   <path d="m226.04 142.53s10.258 5.8177 10.607 7.8722c0.34925 2.0546-6.7824 1.2342-6.7824 1.2342s-0.63919-6.1518-3.8245-9.1064z"/>
   <path d="m137.14 161.86c14.714-12.261 58.037-23.994 66.599-24.642 6.6344-0.50218 21.851-10.915 26.756-3.9674 4.9045 6.9481 0.83796 28.081-2.4317 31.76-3.2697 3.6784-11.225 0.93713-13.677 2.572-2.4523 1.6348-37.593 17.834-51.039 18.074-9.4343 0.16798-26.207-23.796-26.207-23.796z"/>
  </g>
  <path d="m137.14 161.86c19.627-15.44 59.482-21.104 66.599-21.463 6.6449-0.33529 19.539-12.36 24.444-5.4124 4.9045 6.9481 0.25996 23.457-3.0097 27.136-3.2697 3.6784-8.913 0.67114-11.365 2.306-2.4523 1.6348-31.235 17.834-51.039 18.074-9.4351 0.11406-25.629-20.64-25.629-20.64z" fill="#e7b46d" fill-rule="evenodd"/>
  <path d="m210.41 138.82s10.963-4.345 12.783-3.3292c1.8197 1.0158-3.2901 6.058-3.2901 6.058s-5.1937-3.3584-9.4925-2.7288z" fill="#a06d27" fill-rule="evenodd"/>
  <g>
   <path d="m172.51 216.21c0 32.169-28.431 32.358-42.506 32.358s-42.506-1.5197-42.506-32.358 19.031-54.358 42.506-54.358 42.506 22.19 42.506 54.358z" color="#000000" fill="#a06d27"/>
   <path d="m168.5 212.74c0 31.562-25.751 31.748-38.499 31.748s-38.499-1.491-38.499-31.748c-2e-6 -30.257 17.237-53.334 38.499-53.334s38.499 21.771 38.499 53.334z" color="#000000" fill="#e7b46d"/>
   <ellipse cx="129.91" cy="85.416" rx="83.088" ry="77.308" color="#000000" fill="#a85824"/>
   <ellipse cx="129.91" cy="84.405" rx="78.429" ry="73.407" color="#000000" fill="#e2884e"/>
   <path d="m174.12 101c-1.1558 9.0597 6.1082 14.242-1.4614 23.709-7.5695 9.4672-28.817 28.606-42.656 28.606s-35.573-17.899-43.643-27.366c-8.0695-9.4671-2.1308-18.686-2.4748-24.949-1.7612-32.063 17.571-48.54 46.118-48.315 29.191 0.23059 48.343 15.197 44.118 48.315z" color="#000000" fill="#a06d27"/>
  </g>
  <g fill-rule="evenodd">
   <path d="m96.72 64.174c-3.0653-5.3132-9.8091-17.983-18.392-17.166s-13.161 13.849-6.1307 22.888c2.861 3.6784 13.487 4.9045 17.37 5.9263 3.8827 1.0218 7.1524-11.648 7.1524-11.648z" fill="#a06d27"/>
   <path d="m97.655 69.572c-2.3934-4.1485-11.659-20.041-18.36-19.403-6.7014 0.63823-10.276 10.813-4.7867 17.87 2.2338 2.872 16.531 5.8294 19.562 6.6272 3.0316 0.79779 3.5845-5.0948 3.5845-5.0948z" fill="#edb566"/>
   <path d="m83.605 56.774c4.2915 0 11.563 11.719 7.3568 13.079-3.1392 1.0145-7.0273-0.37785-11.444-1.4305-3.2604-0.77706-2.6566-10.218 4.0871-11.648z" fill="#f3cc97"/>
  </g>
  <path d="m171.65 101.35c-1.0713 8.3974 4.8442 12.996-2.172 21.772-7.0161 8.775-26.71 26.515-39.538 26.515-12.828 0-32.973-16.591-40.452-25.366-7.4796-8.775-2.7924-16.707-3.1113-22.512-1.6324-29.719 17.104-46.422 43.564-46.213 27.057 0.21373 45.626 15.108 41.71 45.805z" color="#000000" fill="#e7b46d"/>
  <g fill-rule="evenodd">
   <path d="m163.28 64.174c3.0653-5.3132 9.809-17.983 18.392-17.166s13.161 13.849 6.1306 22.888c-2.861 3.6784-13.487 4.9045-17.37 5.9263-3.8828 1.0218-7.1524-11.648-7.1524-11.648z" fill="#a06d27"/>
   <path d="m162.34 69.572c2.3934-4.1485 11.659-20.041 18.36-19.403 6.7014 0.63823 10.276 10.813 4.7867 17.87-2.2338 2.872-16.531 5.8294-19.562 6.6272-3.0316 0.79779-3.5845-5.0948-3.5845-5.0948z" fill="#edb566"/>
   <path d="m176.39 56.774c-4.2915 0-11.563 11.719-7.3568 13.079 3.1392 1.0145 7.0273-0.37785 11.444-1.4305 3.2604-0.77706 2.6566-10.218-4.0871-11.648z" fill="#f3cc97"/>
  </g>
  <g fill="#a06d27">
   <path d="m119.57 68.057c-1.9543-3.9447-18.705-8.9621-25.136 6.1307 3.6265-4.0764 6.2461-6.5479 11.444-7.5611 4.7656-0.92902 8.4336-0.72515 13.692 1.4305z" fill-rule="evenodd"/>
   <path d="m140.43 68.057c1.9543-3.9447 18.705-8.9621 25.136 6.1307-3.6265-4.0764-6.246-6.5479-11.444-7.5611-4.7656-0.92902-8.4336-0.72515-13.692 1.4305z" fill-rule="evenodd"/>
   <path d="m117.68 88.776c0 6.3891-4.8949 11.568-10.933 11.568-6.0381 0-10.422-4.9526-10.422-11.342 0-6.3891 4.4739-11.236 10.933-11.342 5.1064-0.0838 10.422 4.7257 10.422 11.115z" color="#000000"/>
  </g>
  <g>
   <path d="m117.68 89.923c0 5.756-4.8949 10.422-10.933 10.422-6.0381 0-10.422-4.4618-10.422-10.218 0-5.756 4.4739-10.122 10.933-10.218 5.1064-0.0755 10.422 4.2574 10.422 10.013z" color="#000000" fill="#f7eade"/>
   <path d="m107.25 79.91c-1.096 0.0162-2.1282 0.16406-3.0976 0.41211a8.4807 7.6122 0 0 0-3.543 6.1777 8.4807 7.6122 0 0 0 8.4805 7.6113 8.4807 7.6122 0 0 0 8.3418-6.2793c-1.0891-4.6821-5.7148-7.9879-10.182-7.9219z" color="#000000" fill="url(#linearGradient4759)"/>
   <ellipse cx="109.4" cy="85.734" rx="4.2915" ry="4.0871" color="#000000" fill="#372a1e"/>
   <ellipse cx="111.24" cy="89.105" rx="1.5327" ry="1.4305" color="#000000" fill="#fff"/>
   <path d="m114.16 110.27c-0.45198 2.5074 0.98788 2.1785 3.0333 4.6249s8.0639 10.397 12.356 10.397c4.2918 0 10.52-8.0675 12.453-10.397s3.9336-2.4334 3.6133-4.3359-6.9271-4.8652-16.018-4.8652-15.171 3.0988-15.438 4.5762z" color="#000000" fill="#744f1c"/>
   <path d="m142.32 88.776c0 6.3891 4.8949 11.569 10.933 11.569 6.0381 0 10.422-4.9526 10.422-11.342 0-6.3891-4.4739-11.236-10.933-11.342-5.1064-0.0838-10.422 4.7257-10.422 11.115z" color="#000000" fill="#a06d27"/>
   <path d="m142.32 89.923c0 5.756 4.8949 10.422 10.933 10.422 6.0381 0 10.422-4.4618 10.422-10.218 0-5.756-4.4739-10.122-10.933-10.218-5.1064-0.0755-10.422 4.2574-10.422 10.013z" color="#000000" fill="#f7eade"/>
   <path d="m152.75 79.91c1.096 0.0162 2.1282 0.16406 3.0976 0.41211a8.4807 7.6122 0 0 1 3.543 6.1777 8.4807 7.6122 0 0 1-8.4805 7.6113 8.4807 7.6122 0 0 1-8.3418-6.2793c1.0891-4.6821 5.7148-7.9879 10.182-7.9219z" color="#000000" fill="url(#linearGradient4767)"/>
   <ellipse transform="scale(-1,1)" cx="-150.6" cy="85.734" rx="4.2915" ry="4.0871" color="#000000" fill="#372a1e"/>
   <ellipse transform="scale(-1,1)" cx="-148.76" cy="89.105" rx="1.5327" ry="1.4305" color="#000000" fill="#fff"/>
  </g>
  <g fill="#a06d27" fill-rule="evenodd">
   <path d="m102.41 129.02c12.642 5.1531 18.66 5.4946 26.919 5.4946s25.45-3.6365 26.63-4.71-11.893 8.942-25.715 9.5861c-13.822 0.64413-27.834-10.371-27.834-10.371z"/>
   <path d="m104.31 127.15c-2.4565 0.7225-5.3465 2.7455-5.3465 2.7455s-2.023-0.86701-1.445-1.445c0.578-0.57801 6.7915-1.3005 6.7915-1.3005z"/>
   <path d="m153.41 127.15c2.4565 0.7225 5.3465 2.7455 5.3465 2.7455s2.023-0.86701 1.445-1.445c-0.578-0.57801-6.7916-1.3005-6.7916-1.3005z"/>
  </g>
  <g fill="#a85824" fill-rule="evenodd">
   <path d="m95.045 112.73c-25.547-1.734-50.79 4.624-58.089 17.34 16.727-16.473 51.266-14.81 58.089-17.34z"/>
   <path d="m97.045 118.73c-21.734-1.734-43.21 4.624-49.419 17.34 14.231-16.473 43.614-14.81 49.419-17.34z"/>
   <path d="m99.045 124.73c-16.777-1.734-33.355 4.624-38.148 17.34 10.985-16.473 33.667-14.81 38.148-17.34z"/>
   <path d="m164.96 112.73c25.547-1.734 50.79 4.624 58.089 17.34-16.727-16.473-51.266-14.81-58.089-17.34z"/>
   <path d="m162.96 118.73c21.734-1.734 43.21 4.624 49.419 17.34-14.231-16.473-43.614-14.81-49.419-17.34z"/>
   <path d="m160.96 124.73c16.777-1.734 33.355 4.624 38.148 17.34-10.985-16.473-33.667-14.81-38.148-17.34z"/>
  </g>
  <path d="m122.49 245.31c-7.3568 17.575-6.2504 36.297-7.8852 39.566-1.6348 3.2697-15.122 8.1742-22.888 8.1742-7.7655 0-16.348-8.5829-15.94-10.626 0.40871-2.0436 1.746-34.096 15.572-54.668 4.867 9.484 31.141 17.554 31.141 17.554z" fill="#a06d27" fill-rule="evenodd"/>
  <path d="m122.49 242.75c-7.7617 9.5481-9.3719 37.36-10.776 40.481-1.4037 3.1206-13.273 6.3564-19.941 6.3564-6.6676 0-12.592-7.9025-12.241-9.8529 0.35093-1.9504 5.2473-42.569 15.978-53.252 10.841-10.794 25.632 6.8333 26.98 16.268z" fill="#e7b46d" fill-rule="evenodd"/>
  <g fill="#a06d27" fill-rule="evenodd">
   <path d="m95.828 281.79s-3.468 11.271-2.312 13.005 5.78-3.757 5.78-3.757-3.757-4.913-3.468-9.248z"/>
   <path d="m84.242 280.07s-7.2658 9.2883-6.8056 11.321c0.46023 2.0326 6.7408-1.4441 6.7408-1.4441s-1.7539-5.931 0.06478-9.8767z"/>
   <path d="m79.489 273.08s-8.8718 7.7689-8.799 9.8516c0.07276 2.0828 6.8919-0.16056 6.8919-0.16056s-0.61602-6.1542 1.9071-9.691z"/>
   <path d="m111.48 277.39s7.2658 9.2883 6.8056 11.321c-0.46022 2.0326-6.7408-1.4441-6.7408-1.4441s1.7539-5.931-0.0648-9.8767z"/>
   <path d="m137.51 245.31c7.3568 17.575 6.2504 36.297 7.8852 39.566 1.6348 3.2697 15.122 8.1742 22.888 8.1742s16.348-8.5829 15.94-10.626-1.746-34.096-15.572-54.668c-4.867 9.484-31.141 17.554-31.141 17.554z"/>
  </g>
  <path d="m137.51 242.75c7.7617 9.5481 9.3719 37.36 10.776 40.481 1.4037 3.1206 13.273 6.3564 19.941 6.3564s12.592-7.9025 12.241-9.8529-5.2473-42.569-15.978-53.252c-10.841-10.794-25.632 6.8333-26.98 16.268z" fill="#e7b46d" fill-rule="evenodd"/>
  <g fill="#a06d27" fill-rule="evenodd">
   <path d="m164.17 281.79s3.468 11.271 2.312 13.005c-1.156 1.734-5.78-3.757-5.78-3.757s3.757-4.913 3.468-9.248z"/>
   <path d="m175.76 280.07s7.2658 9.2883 6.8056 11.321c-0.46023 2.0326-6.7408-1.4441-6.7408-1.4441s1.7539-5.931-0.0648-9.8767z"/>
   <path d="m180.51 273.08s8.8718 7.7689 8.799 9.8516c-0.0728 2.0828-6.8919-0.16056-6.8919-0.16056s0.61603-6.1542-1.9071-9.691z"/>
   <path d="m148.52 277.39s-7.2658 9.2883-6.8056 11.321c0.46022 2.0326 6.7408-1.4441 6.7408-1.4441s-1.7539-5.931 0.0648-9.8767z"/>
  </g>
  <ellipse cx="130" cy="214.6" rx="27.6" ry="24.421" color="#000000" fill="#ecc88e"/>
  <path d="m50.575 138.82s-10.963-4.345-12.783-3.3292c-1.8197 1.0158 3.2901 6.058 3.2901 6.058s5.1937-3.3584 9.4925-2.7288z" fill="#a06d27" fill-rule="evenodd"/>
  <ellipse cx="110.68" cy="92.229" rx=".76633" ry=".71524" color="#000000" fill="#fff"/>
  <ellipse transform="scale(-1,1)" cx="-149.25" cy="92.229" rx=".76633" ry=".71524" color="#000000" fill="#fff"/>
 </g>
</svg>
