<?xml version="1.0" encoding="UTF-8"?>
<svg width="75mm" height="75mm" enable-background="new" version="1.1" viewBox="0 0 75 75" xmlns="http://www.w3.org/2000/svg">
 <title>smiley1</title>
 <g transform="translate(-7.5 -7.5)">
  <path d="m22.92 24.71 17.195-10.638 18.758 1.9699 8.2068 11.425-3.1264 16.941-12.115 8.2736-3.1264 7.4857 2.7356 7.4857-8.2068 8.2736-12.506-1.9699v-8.2736l1.5632-3.1519-1.954-6.6977 3.5172-18.123-7.816 3.5458z" fill="#86a9de" fill-rule="evenodd"/>
  <path d="m70.491 30.94c-0.56644 7.683-3.6914 16.427-9.7963 20.935-1.1651 0.81318-2.7404 1.6363-4.7602 2.4343-1.3837 0.54667-2.3919 1.1253-2.6215 1.8779-0.12671 1.2461-0.11845 2.3672-0.48294 3.408-0.23007 0.64916-0.34496 1.0664-0.34496 1.2519 0 0.09275 0.46543 0.48717 0.89686 1.4606 2.0138 4.5434-0.2459 10.547-3.5874 13.632-0.52786 0.48729-1.7218 1.121-3.6564 1.8083-2.8946 1.0283-5.4731 1.5301-7.7267 1.5301-2.3456 0-4.4302-0.59244-6.2779-1.7388-2.3377-1.4503-3.5184-3.4312-3.5184-5.9813-8e-6 -1.0664 0.24312-2.2296 0.75887-3.4775 0.40413-0.97781 1.1998-1.8906 1.2418-2.9907 0.01569-0.41175-0.91845-0.50863-1.5177-1.1128-0.37117-0.3742-0.48292-1.6924-0.48292-3.8253-8e-6 -3.7557 1.2694-9.5131 3.0355-17.457-0.79837-0.62166-2.2505 0.73397-2.7595 1.0433-1.6954 1.0306-2.8323 2.0865-3.6564 2.0865-0.59086 0-0.75608-0.71361-0.82786-1.0433-1.7084-7.4059-2.7243-13.006-4.8982-19.196 4.5108-8.3357 20.743-14.67 28.906-14.814 6.8362-0.4126 15.012 1.8793 18.558 7.1637 1.0785 1.656 1.9321 3.7324 2.6215 6.19 0.59834 2.1328 0.89681 4.4049 0.89686 6.8159m-6.2779 2.782c-5e-5 -1.9474-0.01541-3.0385-0.06901-3.2689-1.7869-7.6984-8.0717-11.576-18.834-11.545-3.8173 0.01079-6.7785 1.0093-9.7963 1.9474-3.72 1.1564-6.0828 3.3941-7.6577 5.2858-0.58684 0.70491-0.89685 1.3447-0.89685 1.9474 0 1.2519 0.45012 4.217 1.3108 8.9024 0.05925 0.32244 0.22977 1.3818 0.82786 1.1128 5.7394-2.5815 9.1754-4.6599 11.107-4.6599 2.0696 0 3.7391 0.54444 5.0361 1.5997 1.3246 1.0777 2.0006 2.6198 2.0006 4.6599-0.88776 3.1844-3.2972 3.2721-5.864 3.2689-0.18394 0-1.0128 0.0011-2.4836-0.06956-1.4271-0.06858-2.2306-0.13909-2.4146-0.13909-0.55192 0-0.84371 1.0858-1.2418 3.1993-0.8201 4.354-1.1728 7.4531-1.1728 12.171 0 0.32458 0.08855 0.69708 0.27595 1.1128 0.27244 0.60437 0.5979 0.90415 0.96584 0.90415 0.13802 0 1.6515-0.34359 4.5532-0.9737 0.08976-0.01953 1.5165-0.19459 4.2773-0.5564 1.8385-0.24094 3.3157-0.37558 3.5874-1.0433 0.51154-1.2571 0.29144-3.3147 0.75887-5.8422 0.04751-0.25685 1.2212-0.37558 3.1045-0.62595 2.3021-0.30605 4.6222-1.5996 6.9678-3.8253 2.3456-2.2256 3.93-4.5679 4.7602-7.0246 0.59563-1.7627 0.89681-3.9412 0.89686-6.5377m-14.763 32.202c-2.5e-5 -0.92734-0.45758-1.7136-1.3108-2.4343-0.84923-0.71732-1.7477-1.1128-2.7595-1.1128-1.8857 0-4.1683 0.63698-6.8298 1.9474-3.2715 1.6107-4.8982 3.5239-4.8982 5.7031 0 0.78823 0.16913 1.2614 0.48292 1.4606 0.92851 0.58932 1.9269 1.044 3.0355 1.2519 0.86968 0.16313 1.6557 0.20866 2.3456 0.20866 1.3798 1.1e-5 3.0367-0.20287 4.9672-0.62595 1.243-0.27244 2.3634-1.2248 3.4494-2.782 0.98398-1.4108 1.5177-2.5965 1.5177-3.6166" fill="#375480"/>
 </g>
</svg>
