<?xml version="1.0" encoding="UTF-8" standalone="no"?>
<!-- Created with Inkscape (http://www.inkscape.org/) -->

<svg
   xmlns:dc="http://purl.org/dc/elements/1.1/"
   xmlns:cc="http://creativecommons.org/ns#"
   xmlns:rdf="http://www.w3.org/1999/02/22-rdf-syntax-ns#"
   xmlns:svg="http://www.w3.org/2000/svg"
   xmlns="http://www.w3.org/2000/svg"
   xmlns:sodipodi="http://sodipodi.sourceforge.net/DTD/sodipodi-0.dtd"
   xmlns:inkscape="http://www.inkscape.org/namespaces/inkscape"
   width="75mm"
   height="75mm"
   viewBox="0 0 74.999997 74.999997"
   version="1.1"
   id="svg8"
   inkscape:version="0.92.3 (2405546, 2018-03-11)"
   sodipodi:docname="question_mark_new.svg"
   style="enable-background:new">
  <title
     id="title12">smiley1</title>
  <defs
     id="defs2" />
  <sodipodi:namedview
     id="base"
     pagecolor="#ffffff"
     bordercolor="#666666"
     borderopacity="1.0"
     inkscape:pageopacity="0.0"
     inkscape:pageshadow="2"
     inkscape:zoom="1.4305139"
     inkscape:cx="-167.70752"
     inkscape:cy="128.88069"
     inkscape:document-units="mm"
     inkscape:current-layer="layer3"
     showgrid="false"
     inkscape:window-width="1920"
     inkscape:window-height="1024"
     inkscape:window-x="0"
     inkscape:window-y="0"
     inkscape:window-maximized="1"
     units="mm"
     inkscape:pagecheckerboard="false"
     fit-margin-top="0"
     fit-margin-left="0"
     fit-margin-right="0"
     fit-margin-bottom="0">
    <inkscape:grid
       type="xygrid"
       id="grid10"
       originx="-7.4999985"
       dotted="false"
       units="mm"
       spacingx="4.9999998"
       spacingy="4.9999998"
       empspacing="2"
       originy="-7.5000012" />
  </sodipodi:namedview>
  <metadata
     id="metadata5">
    <rdf:RDF>
      <cc:Work
         rdf:about="">
        <dc:format>image/svg+xml</dc:format>
        <dc:type
           rdf:resource="http://purl.org/dc/dcmitype/StillImage" />
        <dc:title>smiley1</dc:title>
        <cc:license
           rdf:resource="http://creativecommons.org/licenses/by-nc-sa/4.0/" />
        <dc:contributor>
          <cc:Agent>
            <dc:title>Alkis Georgopoulos</dc:title>
          </cc:Agent>
        </dc:contributor>
      </cc:Work>
      <cc:License
         rdf:about="http://creativecommons.org/licenses/by-nc-sa/4.0/">
        <cc:permits
           rdf:resource="http://creativecommons.org/ns#Reproduction" />
        <cc:permits
           rdf:resource="http://creativecommons.org/ns#Distribution" />
        <cc:requires
           rdf:resource="http://creativecommons.org/ns#Notice" />
        <cc:requires
           rdf:resource="http://creativecommons.org/ns#Attribution" />
        <cc:prohibits
           rdf:resource="http://creativecommons.org/ns#CommercialUse" />
        <cc:permits
           rdf:resource="http://creativecommons.org/ns#DerivativeWorks" />
        <cc:requires
           rdf:resource="http://creativecommons.org/ns#ShareAlike" />
      </cc:License>
    </rdf:RDF>
  </metadata>
  <g
     inkscape:groupmode="layer"
     id="layer3"
     inkscape:label="shape_circle"
     style="display:inline"
     transform="translate(-7.4999988,-7.4999984)">
    <path
       inkscape:connector-curvature="0"
       id="path30140"
       d="m 22.919877,24.709887 17.195142,-10.637533 18.758328,1.969913 8.206774,11.425496 -3.126387,16.941261 -12.114758,8.273637 -3.126387,7.485671 2.735589,7.48567 -8.206774,8.273641 L 30.73585,73.95773 v -8.273637 l 1.563196,-3.151864 -1.953994,-6.697704 3.517186,-18.123207 -7.81597,3.545844 z"
       style="opacity:1;fill:#86a9de;fill-opacity:1;fill-rule:evenodd;stroke:none;stroke-width:0.56456298px;stroke-linecap:butt;stroke-linejoin:miter;stroke-opacity:1" />
    <path
       inkscape:connector-curvature="0"
       id="text29945"
       d="m 70.49115,30.939602 c -0.566441,7.682985 -3.691414,16.427246 -9.796331,20.934644 -1.165103,0.813178 -2.740398,1.636266 -4.760187,2.43426 -1.383667,0.54667 -2.391874,1.125326 -2.62154,1.877859 -0.126707,1.246095 -0.118449,2.367174 -0.482944,3.407968 -0.23007,0.649156 -0.344958,1.066442 -0.344958,1.251903 0,0.09275 0.465427,0.48717 0.896857,1.460557 2.01378,4.54345 -0.245898,10.547195 -3.587376,13.631867 -0.527862,0.48729 -1.721784,1.121044 -3.656363,1.808304 -2.894621,1.028318 -5.473088,1.530103 -7.726688,1.530103 -2.345616,0 -4.430232,-0.592445 -6.277928,-1.738757 -2.337653,-1.450282 -3.518405,-3.431153 -3.518397,-5.981326 -8e-6,-1.066443 0.243119,-2.229632 0.75887,-3.477517 0.404127,-0.977809 1.199815,-1.890604 1.241787,-2.990662 0.01569,-0.411746 -0.918451,-0.508633 -1.51774,-1.112805 -0.371171,-0.374195 -0.482925,-1.692387 -0.482917,-3.825268 -8e-6,-3.755706 1.269435,-9.513057 3.035477,-17.457127 -0.79837,-0.621659 -2.250532,0.73397 -2.759524,1.043254 -1.695396,1.030557 -2.832314,2.086509 -3.656376,2.086509 -0.590856,0 -0.756084,-0.713608 -0.827861,-1.043254 -1.708403,-7.405922 -2.72429,-13.005598 -4.898163,-19.195887 4.510767,-8.335698 20.74319,-14.669779 28.906067,-14.814215 6.836197,-0.4126 15.011772,1.879336 18.557834,7.163682 1.078458,1.655956 1.932092,3.732438 2.621542,6.189977 0.598338,2.132779 0.89681,4.404889 0.896859,6.815931 m -6.277928,2.782012 c -5e-5,-1.947373 -0.01541,-3.038475 -0.06901,-3.268865 C 62.35728,22.754304 56.072497,18.877 45.310421,18.907398 c -3.817345,0.01079 -6.778477,1.009278 -9.796326,1.947415 -3.719957,1.156392 -6.082801,3.394066 -7.657696,5.28582 -0.586836,0.704907 -0.896849,1.344677 -0.896849,1.947411 0,1.251942 0.450124,4.216974 1.310778,8.90244 0.05925,0.322443 0.229768,1.381814 0.827856,1.112803 5.739402,-2.581517 9.175414,-4.65987 11.107118,-4.65987 2.069615,0 3.739149,0.544436 5.036139,1.599658 1.324649,1.077729 2.000633,2.619759 2.000633,4.65987 -0.887759,3.184373 -3.297154,3.272086 -5.863989,3.268865 -0.183936,0 -1.012799,0.0011 -2.48358,-0.06956 -1.427138,-0.06858 -2.230612,-0.139094 -2.414572,-0.139094 -0.551925,0 -0.843712,1.085849 -1.241791,3.199315 -0.820097,4.35405 -1.172808,7.45306 -1.172808,12.171304 0,0.324576 0.08855,0.697085 0.27595,1.112806 0.272436,0.604372 0.597898,0.904152 0.965841,0.904152 0.138021,0 1.651503,-0.343594 4.55322,-0.973701 0.08976,-0.01953 1.516504,-0.194588 4.277269,-0.556404 1.838488,-0.240944 3.31568,-0.375576 3.58738,-1.043256 0.511537,-1.257054 0.291442,-3.314651 0.75887,-5.842227 0.04751,-0.256854 1.22115,-0.375576 3.104487,-0.62595 2.302107,-0.306048 4.622175,-1.599641 6.967791,-3.825268 2.345569,-2.225589 3.930047,-4.567869 4.760192,-7.024584 0.595626,-1.762674 0.896806,-3.941153 0.896856,-6.537728 m -14.763483,32.2018 c -2.5e-5,-0.927337 -0.45758,-1.713596 -1.310771,-2.434259 -0.849232,-0.71732 -1.747719,-1.112803 -2.759529,-1.112803 -1.885706,0 -4.168268,0.63698 -6.829833,1.947406 -3.271458,1.610709 -4.898173,3.52388 -4.898173,5.703124 0,0.788233 0.169126,1.261395 0.482919,1.460558 0.928512,0.589321 1.926903,1.043973 3.03548,1.251906 0.869682,0.163126 1.655703,0.208655 2.345615,0.208655 1.379752,1.1e-5 3.036716,-0.202874 4.967159,-0.62595 1.24302,-0.272436 2.363357,-1.224844 3.449393,-2.782014 0.983975,-1.410836 1.517715,-2.596545 1.51774,-3.616616"
       style="font-style:normal;font-variant:normal;font-weight:normal;font-stretch:normal;font-size:36px;line-height:100%;font-family:'Indigo Joker';text-align:start;writing-mode:lr-tb;text-anchor:start;opacity:1;fill:#375480;fill-opacity:1;stroke:none;stroke-width:0.72831857px;stroke-linecap:butt;stroke-linejoin:miter;stroke-opacity:1"
       sodipodi:nodetypes="ccsccsssssssssssccsccccsccsssssssssccsssssssssssssccsssssssssc" />
  </g>
</svg>
