<?xml version="1.0" encoding="UTF-8"?>
<svg width="75mm" height="75mm" enable-background="new" version="1.1" viewBox="0 0 75 75" xmlns="http://www.w3.org/2000/svg" xmlns:xlink="http://www.w3.org/1999/xlink">
 <title>smiley1</title>
 <defs>
  <clipPath>
   <path d="m355.68 259.18c-28.608-15.678-48.008-46.073-48.008-80.999 0-21.732 7.511-41.711 20.078-57.481h144.44c12.568 15.77 20.079 35.749 20.079 57.481 0 34.926-19.4 65.321-48.009 80.999z"/>
  </clipPath>
  <clipPath id="clipPath1988">
   <path d="m296.85 129.56c0.21-10.913 9.232-19.591 20.148-19.382 10.916 0.211 19.595 9.23 19.384 20.142-0.209 10.919-20.692 47.809-20.692 47.809s-19.05-37.65-18.84-48.569"/>
  </clipPath>
  <radialGradient id="radialGradient2004" cx="0" cy="0" r="1" gradientTransform="matrix(5.0833,-61.883,-61.883,-5.0833,313.85,174.13)" gradientUnits="userSpaceOnUse">
   <stop stop-color="#bddee4" offset="0"/>
   <stop stop-color="#bddee4" offset=".00012086"/>
   <stop stop-color="#2fa7bf" offset=".80582"/>
   <stop stop-color="#2591d1" offset=".99976"/>
   <stop stop-color="#2591d1" offset="1"/>
  </radialGradient>
  <linearGradient id="linearGradient1108" x1="116.01" x2="50.915" y1="5.6863" y2="70.884" gradientTransform="translate(-43.627 -1.232)" gradientUnits="userSpaceOnUse">
   <stop stop-color="#ffffa6" offset="0"/>
   <stop stop-color="#ffffa6" offset=".1447"/>
   <stop stop-color="#fff98a" offset=".1447"/>
   <stop stop-color="#fff98a" offset=".17476"/>
   <stop stop-color="#fff98a" offset=".37157"/>
   <stop stop-color="#eb9708" offset=".83981"/>
   <stop stop-color="#eb9708" offset=".88136"/>
   <stop stop-color="#fa8308" offset="1"/>
  </linearGradient>
  <linearGradient id="linearGradient1136" x1="114.65" x2="50.915" y1="-.23236" y2="70.884" gradientTransform="translate(-43.627 -1.232)" gradientUnits="userSpaceOnUse">
   <stop stop-color="#ffffa6" offset="0"/>
   <stop stop-color="#ffffa6" offset=".1447"/>
   <stop stop-color="#fff98a" offset=".1447"/>
   <stop stop-color="#fff98a" offset=".1447"/>
   <stop stop-color="#fff98a" offset=".18177"/>
   <stop stop-color="#eb9708" offset=".64588"/>
   <stop stop-color="#eb9708" offset=".89649"/>
   <stop stop-color="#fa8308" offset="1"/>
  </linearGradient>
 </defs>
 <g fill-rule="evenodd">
  <ellipse cx="39.835" cy="37.099" rx="33.062" ry="33.062" fill="url(#linearGradient1108)" stroke="url(#linearGradient1136)" stroke-linecap="square" stroke-linejoin="round" stroke-miterlimit="10" stroke-width=".79375" style="paint-order:normal"/>
  <ellipse cx="26.158" cy="33.258" rx="10.981" ry="11.701" fill="#fff" style="paint-order:normal"/>
  <ellipse cx="52.726" cy="33.258" rx="10.981" ry="11.701" fill="#fff" style="paint-order:normal"/>
  <ellipse cx="51.232" cy="33.691" rx="7.1762" ry="7.6467" fill="#299ac9" style="paint-order:normal"/>
 </g>
 <path d="m47.018 33.835c0 2.4813 1.8877 4.4929 4.2164 4.4929s4.2164-2.0117 4.2164-4.4929-1.8877-4.4929-4.2164-4.4929-4.2164 2.0117-4.2164 4.4929" fill="#0a171c" stroke-width=".3582"/>
 <g transform="matrix(.3582 0 0 -.3582 15.693 21.187)">
  <path d="m0 0s0.581 0.202 1.601 0.473c0.255 0.067 0.537 0.141 0.845 0.221 0.296 0.11 0.615 0.2 0.951 0.308 0.675 0.213 1.416 0.433 2.226 0.75 0.403 0.141 0.822 0.288 1.256 0.44 0.423 0.175 0.86 0.357 1.309 0.543 0.908 0.328 1.804 0.814 2.752 1.232 0.911 0.498 1.88 0.951 2.784 1.534 0.456 0.283 0.915 0.568 1.377 0.854l1.321 0.944c0.463 0.287 0.841 0.673 1.266 1.001l0.626 0.505c0.203 0.172 0.384 0.366 0.576 0.546 0.369 0.376 0.779 0.713 1.131 1.091 0.34 0.387 0.674 0.773 1.022 1.142 0.364 0.36 0.596 0.796 0.913 1.17 0.3 0.386 0.604 0.763 0.828 1.169 0.251 0.399 0.495 0.786 0.731 1.161 0.244 0.376 0.391 0.778 0.592 1.146 0.187 0.373 0.389 0.73 0.545 1.082 0.143 0.361 0.278 0.704 0.405 1.025 0.132 0.326 0.241 0.635 0.372 0.921 0.099 0.289 0.168 0.562 0.243 0.808 0.292 0.988 0.51 1.582 0.51 1.582s0.144-0.582 0.308-1.651c0.036-0.267 0.09-0.566 0.124-0.892 0.014-0.325-3e-3 -0.675-5e-3 -1.054-7e-3 -0.383-0.015-0.791-0.023-1.221-0.026-0.429-0.133-0.866-0.204-1.336-0.094-0.463-0.158-0.965-0.308-1.454-0.167-0.488-0.339-0.993-0.515-1.512-0.159-0.534-0.434-1.024-0.692-1.543-0.271-0.508-0.515-1.062-0.863-1.549-0.333-0.5-0.691-0.997-1.053-1.503-0.369-0.499-0.81-0.942-1.232-1.412-0.416-0.48-0.873-0.919-1.366-1.321-0.492-0.401-0.944-0.866-1.476-1.213l-1.573-1.073c-0.534-0.337-1.102-0.607-1.646-0.908-0.538-0.314-1.106-0.553-1.671-0.774-0.565-0.222-1.107-0.477-1.671-0.642-1.128-0.334-2.205-0.673-3.267-0.826-0.528-0.085-1.035-0.188-1.531-0.248-0.499-0.035-0.982-0.068-1.445-0.101-0.913-0.082-1.784-0.02-2.535 0.023-0.376 0.024-0.724 0.033-1.044 0.069-0.313 0.055-0.6 0.105-0.86 0.15-1.039 0.188-1.634 0.343-1.634 0.343" fill="#6a0000"/>
 </g>
 <g transform="matrix(.3582 0 0 -.3582 63.19 21.187)">
  <path d="m0 0s-0.581 0.202-1.601 0.473c-0.255 0.067-0.537 0.141-0.845 0.221-0.296 0.11-0.615 0.2-0.951 0.308-0.675 0.213-1.416 0.433-2.226 0.75-0.403 0.141-0.822 0.288-1.256 0.44-0.423 0.175-0.86 0.357-1.309 0.543-0.908 0.328-1.804 0.814-2.752 1.232-0.911 0.498-1.88 0.951-2.784 1.534-0.456 0.283-0.915 0.568-1.377 0.854l-1.321 0.944c-0.463 0.287-0.841 0.673-1.266 1.001l-0.626 0.505c-0.203 0.172-0.384 0.366-0.576 0.546-0.369 0.376-0.779 0.713-1.131 1.091-0.34 0.387-0.674 0.773-1.022 1.142-0.364 0.36-0.596 0.796-0.913 1.17-0.3 0.386-0.604 0.763-0.828 1.169-0.251 0.399-0.495 0.786-0.731 1.161-0.244 0.376-0.391 0.778-0.592 1.146-0.187 0.373-0.389 0.73-0.545 1.082-0.143 0.361-0.278 0.704-0.405 1.025-0.132 0.326-0.241 0.635-0.372 0.921-0.099 0.289-0.168 0.562-0.243 0.808-0.292 0.988-0.51 1.582-0.51 1.582s-0.144-0.582-0.308-1.651c-0.037-0.267-0.09-0.566-0.124-0.892-0.014-0.325 3e-3 -0.675 5e-3 -1.054 7e-3 -0.383 0.015-0.791 0.023-1.221 0.026-0.429 0.133-0.866 0.204-1.336 0.094-0.463 0.158-0.965 0.308-1.454 0.167-0.488 0.339-0.993 0.515-1.512 0.159-0.534 0.434-1.024 0.692-1.543 0.271-0.508 0.515-1.062 0.863-1.549 0.333-0.5 0.691-0.997 1.053-1.503 0.369-0.499 0.81-0.942 1.232-1.412 0.416-0.48 0.873-0.919 1.366-1.321 0.492-0.401 0.943-0.866 1.476-1.213l1.573-1.073c0.534-0.337 1.102-0.607 1.646-0.908 0.538-0.314 1.106-0.553 1.671-0.774 0.565-0.222 1.107-0.477 1.671-0.642 1.128-0.334 2.205-0.673 3.267-0.826 0.528-0.085 1.035-0.188 1.531-0.248 0.499-0.035 0.982-0.068 1.445-0.101 0.913-0.082 1.784-0.02 2.535 0.023 0.376 0.024 0.724 0.033 1.044 0.069 0.313 0.055 0.6 0.105 0.86 0.15 1.039 0.188 1.634 0.343 1.634 0.343" fill="#6a0000"/>
 </g>
 <g transform="matrix(.3582 0 0 -.3582 31.841 58.042)">
  <path d="m0 0s-0.013 0.234 0.016 0.668c0.038 0.432 0.081 1.078 0.241 1.879 0.307 1.601 0.968 3.891 2.441 6.398 0.739 1.246 1.676 2.546 2.863 3.779 1.187 1.229 2.615 2.402 4.261 3.37 0.816 0.496 1.692 0.929 2.603 1.302 0.907 0.386 1.854 0.709 2.826 0.951 1.938 0.518 3.962 0.747 5.952 0.772l0.094 3e-3 0.186-3e-3 0.165-7e-3 0.332-0.013 0.662-0.027 0.332-0.014 0.398-0.036 0.793-0.075c0.541-0.042 1.027-0.129 1.521-0.222 0.495-0.08 0.984-0.195 1.47-0.319 0.488-0.11 0.968-0.248 1.442-0.404 0.475-0.149 0.94-0.322 1.395-0.515 0.46-0.176 0.907-0.376 1.344-0.593 0.444-0.197 0.863-0.44 1.275-0.683 1.658-0.954 3.1-2.118 4.297-3.343 1.197-1.231 2.147-2.527 2.886-3.778 1.477-2.513 2.128-4.812 2.423-6.416 0.154-0.803 0.193-1.45 0.226-1.882 0.025-0.435 9e-3 -0.669 9e-3 -0.669s-0.132 0.188-0.381 0.54c-0.24 0.35-0.63 0.841-1.108 1.45-0.968 1.21-2.391 2.863-4.248 4.484-1.853 1.626-4.162 3.166-6.794 4.182-0.327 0.131-0.663 0.246-1.003 0.356-0.335 0.121-0.677 0.229-1.029 0.316-0.345 0.102-0.698 0.188-1.059 0.254-0.353 0.09-0.712 0.167-1.079 0.221-0.364 0.066-0.729 0.128-1.105 0.159-0.372 0.035-0.752 0.099-1.091 0.113l-0.523 0.041-0.262 0.023-0.329 6e-3 -1.211 0.018c-1.546 0.015-3.056-0.144-4.512-0.395-0.369-0.049-0.718-0.155-1.077-0.229-0.363-0.063-0.707-0.173-1.057-0.266-0.696-0.196-1.368-0.44-2.03-0.692-2.631-1.04-4.936-2.606-6.791-4.239-1.86-1.627-3.289-3.277-4.263-4.483-0.481-0.607-0.874-1.096-1.117-1.445-0.25-0.35-0.384-0.537-0.384-0.537" fill="#6a0000"/>
 </g>
 <g transform="matrix(.3582 0 0 -.3582 -103.83 101.32)" clip-path="url(#clipPath1988)">
  <path d="m296.85 129.56c0.21-10.913 9.232-19.591 20.148-19.382 10.916 0.211 19.595 9.23 19.384 20.142-0.209 10.919-20.692 47.809-20.692 47.809s-19.05-37.65-18.84-48.569" fill="url(#radialGradient2004)"/>
 </g>
 <ellipse cx="48.092" cy="32.137" rx="1.9555" ry="1.6978" fill="#fff" fill-rule="evenodd" style="paint-order:normal"/>
 <ellipse cx="27.655" cy="33.835" rx="7.1762" ry="7.6467" fill="#299ac9" fill-rule="evenodd" style="paint-order:normal"/>
 <path d="m23.437 33.835c0 2.4813 1.8877 4.4929 4.2164 4.4929s4.2164-2.0117 4.2164-4.4929-1.8877-4.4929-4.2164-4.4929-4.2164 2.0117-4.2164 4.4929" fill="#0a171c" stroke-width=".3582"/>
 <ellipse cx="24.523" cy="32.137" rx="1.9555" ry="1.6978" fill="#fff" fill-rule="evenodd" style="paint-order:normal"/>
</svg>
