<?xml version="1.0" encoding="UTF-8"?>
<svg width="75mm" height="75mm" enable-background="new" version="1.1" viewBox="0 0 75 75" xmlns="http://www.w3.org/2000/svg">
 <title>smiley1</title>
 <defs>
  <clipPath id="clipPath1702">
   <path d="m307.67 178.18c0-50.976 41.323-92.301 92.3-92.301 50.976 0 92.301 41.325 92.301 92.301 0 50.977-41.325 92.301-92.301 92.301-50.977 0-92.3-41.324-92.3-92.301"/>
  </clipPath>
  <radialGradient id="radialGradient1724" cx="0" cy="0" r="1" gradientTransform="matrix(-106.39 -96.716 -96.716 106.39 432.88 219.86)" gradientUnits="userSpaceOnUse">
   <stop stop-color="#ffffa6" offset="0"/>
   <stop stop-color="#ffffa6" offset=".0048544"/>
   <stop stop-color="#fff98a" offset=".1447"/>
   <stop stop-color="#fff98a" offset=".17476"/>
   <stop stop-color="#fff98a" offset=".37157"/>
   <stop stop-color="#eb9708" offset=".83981"/>
   <stop stop-color="#eb9708" offset=".88136"/>
   <stop stop-color="#fa8308" offset="1"/>
  </radialGradient>
  <clipPath id="clipPath1784">
   <path d="m355.68 259.18c-28.608-15.678-48.008-46.073-48.008-80.999 0-21.732 7.511-41.711 20.078-57.481h144.44c12.568 15.77 20.079 35.749 20.079 57.481 0 34.926-19.4 65.321-48.009 80.999z"/>
  </clipPath>
  <clipPath id="clipPath1802">
   <path d="m332.24 190.01c0-18.042 13.726-32.667 30.657-32.667s30.656 14.625 30.656 32.667c0 18.041-13.725 32.667-30.656 32.667s-30.657-14.626-30.657-32.667"/>
  </clipPath>
  <radialGradient id="radialGradient1816" cx="0" cy="0" r="1" gradientTransform="matrix(46.675 -48.873 -44.034 -42.053 342.65 212.66)" gradientUnits="userSpaceOnUse">
   <stop stop-color="#fff" offset="0"/>
   <stop stop-color="#fff" offset=".0048544"/>
   <stop stop-color="#fff" offset=".55487"/>
   <stop stop-color="#d1d3d4" offset="1"/>
  </radialGradient>
  <clipPath id="clipPath1826">
   <path d="m347.04 188.4c0-11.791 8.97-21.348 20.034-21.348 11.065 0 20.034 9.557 20.034 21.348 0 11.789-8.969 21.347-20.034 21.347-11.064 0-20.034-9.558-20.034-21.347"/>
  </clipPath>
  <radialGradient id="radialGradient1838" cx="0" cy="0" r="1" gradientTransform="matrix(33.043 -40.077 -36.108 -29.771 351.58 210.51)" gradientUnits="userSpaceOnUse">
   <stop stop-color="#2fa7bf" offset="0"/>
   <stop stop-color="#2591d1" offset=".99874"/>
   <stop stop-color="#2591d1" offset="1"/>
  </radialGradient>
  <clipPath id="clipPath1848">
   <path d="m307.67 178.18c0-50.976 41.323-92.301 92.3-92.301 50.976 0 92.301 41.325 92.301 92.301 0 50.977-41.325 92.301-92.301 92.301-50.977 0-92.3-41.324-92.3-92.301"/>
  </clipPath>
  <clipPath id="clipPath1864">
   <path d="m406.41 190.01c0-18.042 13.726-32.667 30.657-32.667 16.932 0 30.657 14.625 30.657 32.667 0 18.041-13.725 32.667-30.657 32.667-16.931 0-30.657-14.626-30.657-32.667"/>
  </clipPath>
  <radialGradient id="radialGradient1878" cx="0" cy="0" r="1" gradientTransform="matrix(-46.675 -48.873 44.034 -42.053 457.32 212.66)" gradientUnits="userSpaceOnUse">
   <stop stop-color="#fff" offset="0"/>
   <stop stop-color="#fff" offset=".0048544"/>
   <stop stop-color="#fff" offset=".55487"/>
   <stop stop-color="#d1d3d4" offset="1"/>
  </radialGradient>
  <clipPath id="clipPath1888">
   <path d="m412.86 188.4c0-11.791 8.971-21.348 20.034-21.348 11.065 0 20.034 9.557 20.034 21.348 0 11.789-8.969 21.347-20.034 21.347-11.063 0-20.034-9.558-20.034-21.347"/>
  </clipPath>
  <radialGradient id="radialGradient1900" cx="0" cy="0" r="1" gradientTransform="matrix(-33.043 -40.077 36.108 -29.771 448.39 210.51)" gradientUnits="userSpaceOnUse">
   <stop stop-color="#2fa7bf" offset="0"/>
   <stop stop-color="#2591d1" offset=".99874"/>
   <stop stop-color="#2591d1" offset="1"/>
  </radialGradient>
  <clipPath id="clipPath1910">
   <path d="m307.67 178.18c0-50.976 41.323-92.301 92.3-92.301 50.976 0 92.301 41.325 92.301 92.301 0 50.977-41.325 92.301-92.301 92.301-50.977 0-92.3-41.324-92.3-92.301"/>
  </clipPath>
  <clipPath id="clipPath1938">
   <path d="m309.92 179.32c0-1.936 0.085-3.852 0.209-5.757 18.462 29.875 51.787 49.821 89.833 49.821s71.371-19.946 89.835-49.822c0.123 1.906 0.207 3.822 0.207 5.758 0 49.088-40.313 88.882-90.042 88.882s-90.042-39.794-90.042-88.882"/>
  </clipPath>
  <mask id="mask1956" x="0" y="0" width="1" height="1" maskUnits="userSpaceOnUse">
   <g clip-path="url(#clipPath1946)">
    <path d="m-32768 32767h65535v-65535h-65535z" fill="url(#linearGradient1954)"/>
   </g>
  </mask>
  <clipPath id="clipPath1946">
   <path d="m-32768 32767h65535v-65535h-65535z"/>
  </clipPath>
  <linearGradient id="linearGradient1954" x2="1" gradientTransform="matrix(0 -46.507 -46.507 0 399.97 264.98)" gradientUnits="userSpaceOnUse">
   <stop stop-color="#fff" stop-opacity=".8" offset="0"/>
   <stop stop-color="#fff" stop-opacity=".8" offset=".047646"/>
   <stop stop-color="#fff" stop-opacity="0" offset="1"/>
  </linearGradient>
  <linearGradient id="linearGradient1978" x2="1" gradientTransform="matrix(0 -46.507 -46.507 0 399.97 264.98)" gradientUnits="userSpaceOnUse">
   <stop stop-color="#fff" offset="0"/>
   <stop stop-color="#fff" offset=".047646"/>
   <stop stop-color="#fff" offset="1"/>
  </linearGradient>
  <clipPath id="clipPath1988">
   <path d="m296.85 129.56c0.21-10.913 9.232-19.591 20.148-19.382 10.916 0.211 19.595 9.23 19.384 20.142-0.209 10.919-20.692 47.809-20.692 47.809s-19.05-37.65-18.84-48.569"/>
  </clipPath>
  <radialGradient id="radialGradient2004" cx="0" cy="0" r="1" gradientTransform="matrix(5.0833 -61.883 -61.883 -5.0833 313.85 174.13)" gradientUnits="userSpaceOnUse">
   <stop stop-color="#bddee4" offset="0"/>
   <stop stop-color="#bddee4" offset=".00012086"/>
   <stop stop-color="#2fa7bf" offset=".80582"/>
   <stop stop-color="#2591d1" offset=".99976"/>
   <stop stop-color="#2591d1" offset="1"/>
  </radialGradient>
 </defs>
 <g transform="translate(-7.5 -7.5)">
  <g transform="matrix(.3582 0 0 -.3582 -96.331 108.82)">
   <g clip-path="url(#clipPath1702)">
    <path d="m307.67 178.18c0-50.976 41.323-92.301 92.3-92.301 50.976 0 92.301 41.325 92.301 92.301 0 50.977-41.325 92.301-92.301 92.301-50.977 0-92.3-41.324-92.3-92.301" fill="url(#radialGradient1724)"/>
   </g>
   <g clip-path="url(#clipPath1784)"></g>
   <g clip-path="url(#clipPath1802)">
    <path d="m332.24 190.01c0-18.042 13.726-32.667 30.657-32.667s30.656 14.625 30.656 32.667c0 18.041-13.725 32.667-30.656 32.667s-30.657-14.626-30.657-32.667" fill="url(#radialGradient1816)"/>
   </g>
   <g clip-path="url(#clipPath1826)">
    <path d="m347.04 188.4c0-11.791 8.97-21.348 20.034-21.348 11.065 0 20.034 9.557 20.034 21.348 0 11.789-8.969 21.347-20.034 21.347-11.064 0-20.034-9.558-20.034-21.347" fill="url(#radialGradient1838)"/>
   </g>
   <g clip-path="url(#clipPath1848)">
    <g transform="translate(378.84 188.4)">
     <path d="m0 0c0-6.927-5.27-12.543-11.771-12.543s-11.771 5.616-11.771 12.543 5.27 12.543 11.771 12.543 11.771-5.616 11.771-12.543" fill="#0a171c"/>
    </g>
    <g transform="translate(363.79 193.14)">
     <path d="m0 0c0-2.618-2.444-4.74-5.459-4.74-3.016 0-5.46 2.122-5.46 4.74s2.444 4.74 5.46 4.74c3.015 0 5.459-2.122 5.459-4.74" fill="#fff"/>
    </g>
   </g>
   <g clip-path="url(#clipPath1864)">
    <path d="m406.41 190.01c0-18.042 13.726-32.667 30.657-32.667 16.932 0 30.657 14.625 30.657 32.667 0 18.041-13.725 32.667-30.657 32.667-16.931 0-30.657-14.626-30.657-32.667" fill="url(#radialGradient1878)"/>
   </g>
   <g clip-path="url(#clipPath1888)">
    <path d="m412.86 188.4c0-11.791 8.971-21.348 20.034-21.348 11.065 0 20.034 9.557 20.034 21.348 0 11.789-8.969 21.347-20.034 21.347-11.063 0-20.034-9.558-20.034-21.347" fill="url(#radialGradient1900)"/>
   </g>
   <g clip-path="url(#clipPath1910)">
    <g transform="translate(421.13 188.4)">
     <path d="m0 0c0-6.927 5.27-12.543 11.771-12.543s11.771 5.616 11.771 12.543-5.27 12.543-11.771 12.543-11.771-5.616-11.771-12.543" fill="#0a171c"/>
    </g>
    <g transform="translate(418.67 193.14)">
     <path d="m0 0c0-2.618 2.444-4.74 5.459-4.74 3.016 0 5.46 2.122 5.46 4.74s-2.444 4.74-5.46 4.74c-3.015 0-5.459-2.122-5.459-4.74" fill="#fff"/>
    </g>
    <g transform="translate(333.68 223.71)">
     <path d="m0 0s0.581 0.202 1.601 0.473c0.255 0.067 0.537 0.141 0.845 0.221 0.296 0.11 0.615 0.2 0.951 0.308 0.675 0.213 1.416 0.433 2.226 0.75 0.403 0.141 0.822 0.288 1.256 0.44 0.423 0.175 0.86 0.357 1.309 0.543 0.908 0.328 1.804 0.814 2.752 1.232 0.911 0.498 1.88 0.951 2.784 1.534 0.456 0.283 0.915 0.568 1.377 0.854l1.321 0.944c0.463 0.287 0.841 0.673 1.266 1.001l0.626 0.505c0.203 0.172 0.384 0.366 0.576 0.546 0.369 0.376 0.779 0.713 1.131 1.091 0.34 0.387 0.674 0.773 1.022 1.142 0.364 0.36 0.596 0.796 0.913 1.17 0.3 0.386 0.604 0.763 0.828 1.169 0.251 0.399 0.495 0.786 0.731 1.161 0.244 0.376 0.391 0.778 0.592 1.146 0.187 0.373 0.389 0.73 0.545 1.082 0.143 0.361 0.278 0.704 0.405 1.025 0.132 0.326 0.241 0.635 0.372 0.921 0.099 0.289 0.168 0.562 0.243 0.808 0.292 0.988 0.51 1.582 0.51 1.582s0.144-0.582 0.308-1.651c0.036-0.267 0.09-0.566 0.124-0.892 0.014-0.325-3e-3 -0.675-5e-3 -1.054-7e-3 -0.383-0.015-0.791-0.023-1.221-0.026-0.429-0.133-0.866-0.204-1.336-0.094-0.463-0.158-0.965-0.308-1.454-0.167-0.488-0.339-0.993-0.515-1.512-0.159-0.534-0.434-1.024-0.692-1.543-0.271-0.508-0.515-1.062-0.863-1.549-0.333-0.5-0.691-0.997-1.053-1.503-0.369-0.499-0.81-0.942-1.232-1.412-0.416-0.48-0.873-0.919-1.366-1.321-0.492-0.401-0.944-0.866-1.476-1.213l-1.573-1.073c-0.534-0.337-1.102-0.607-1.646-0.908-0.538-0.314-1.106-0.553-1.671-0.774-0.565-0.222-1.107-0.477-1.671-0.642-1.128-0.334-2.205-0.673-3.267-0.826-0.528-0.085-1.035-0.188-1.531-0.248-0.499-0.035-0.982-0.068-1.445-0.101-0.913-0.082-1.784-0.02-2.535 0.023-0.376 0.024-0.724 0.033-1.044 0.069-0.313 0.055-0.6 0.105-0.86 0.15-1.039 0.188-1.634 0.343-1.634 0.343" fill="#6a0000"/>
    </g>
    <g transform="translate(466.28 223.71)">
     <path d="m0 0s-0.581 0.202-1.601 0.473c-0.255 0.067-0.537 0.141-0.845 0.221-0.296 0.11-0.615 0.2-0.951 0.308-0.675 0.213-1.416 0.433-2.226 0.75-0.403 0.141-0.822 0.288-1.256 0.44-0.423 0.175-0.86 0.357-1.309 0.543-0.908 0.328-1.804 0.814-2.752 1.232-0.911 0.498-1.88 0.951-2.784 1.534-0.456 0.283-0.915 0.568-1.377 0.854l-1.321 0.944c-0.463 0.287-0.841 0.673-1.266 1.001l-0.626 0.505c-0.203 0.172-0.384 0.366-0.576 0.546-0.369 0.376-0.779 0.713-1.131 1.091-0.34 0.387-0.674 0.773-1.022 1.142-0.364 0.36-0.596 0.796-0.913 1.17-0.3 0.386-0.604 0.763-0.828 1.169-0.251 0.399-0.495 0.786-0.731 1.161-0.244 0.376-0.391 0.778-0.592 1.146-0.187 0.373-0.389 0.73-0.545 1.082-0.143 0.361-0.278 0.704-0.405 1.025-0.132 0.326-0.241 0.635-0.372 0.921-0.099 0.289-0.168 0.562-0.243 0.808-0.292 0.988-0.51 1.582-0.51 1.582s-0.144-0.582-0.308-1.651c-0.037-0.267-0.09-0.566-0.124-0.892-0.014-0.325 3e-3 -0.675 5e-3 -1.054 7e-3 -0.383 0.015-0.791 0.023-1.221 0.026-0.429 0.133-0.866 0.204-1.336 0.094-0.463 0.158-0.965 0.308-1.454 0.167-0.488 0.339-0.993 0.515-1.512 0.159-0.534 0.434-1.024 0.692-1.543 0.271-0.508 0.515-1.062 0.863-1.549 0.333-0.5 0.691-0.997 1.053-1.503 0.369-0.499 0.81-0.942 1.232-1.412 0.416-0.48 0.873-0.919 1.366-1.321 0.492-0.401 0.943-0.866 1.476-1.213l1.573-1.073c0.534-0.337 1.102-0.607 1.646-0.908 0.538-0.314 1.106-0.553 1.671-0.774 0.565-0.222 1.107-0.477 1.671-0.642 1.128-0.334 2.205-0.673 3.267-0.826 0.528-0.085 1.035-0.188 1.531-0.248 0.499-0.035 0.982-0.068 1.445-0.101 0.913-0.082 1.784-0.02 2.535 0.023 0.376 0.024 0.724 0.033 1.044 0.069 0.313 0.055 0.6 0.105 0.86 0.15 1.039 0.188 1.634 0.343 1.634 0.343" fill="#6a0000"/>
    </g>
    <g transform="translate(378.76 120.82)">
     <path d="m0 0s-0.013 0.234 0.016 0.668c0.038 0.432 0.081 1.078 0.241 1.879 0.307 1.601 0.968 3.891 2.441 6.398 0.739 1.246 1.676 2.546 2.863 3.779 1.187 1.229 2.615 2.402 4.261 3.37 0.816 0.496 1.692 0.929 2.603 1.302 0.907 0.386 1.854 0.709 2.826 0.951 1.938 0.518 3.962 0.747 5.952 0.772l0.094 3e-3 0.186-3e-3 0.165-7e-3 0.332-0.013 0.662-0.027 0.332-0.014 0.398-0.036 0.793-0.075c0.541-0.042 1.027-0.129 1.521-0.222 0.495-0.08 0.984-0.195 1.47-0.319 0.488-0.11 0.968-0.248 1.442-0.404 0.475-0.149 0.94-0.322 1.395-0.515 0.46-0.176 0.907-0.376 1.344-0.593 0.444-0.197 0.863-0.44 1.275-0.683 1.658-0.954 3.1-2.118 4.297-3.343 1.197-1.231 2.147-2.527 2.886-3.778 1.477-2.513 2.128-4.812 2.423-6.416 0.154-0.803 0.193-1.45 0.226-1.882 0.025-0.435 9e-3 -0.669 9e-3 -0.669s-0.132 0.188-0.381 0.54c-0.24 0.35-0.63 0.841-1.108 1.45-0.968 1.21-2.391 2.863-4.248 4.484-1.853 1.626-4.162 3.166-6.794 4.182-0.327 0.131-0.663 0.246-1.003 0.356-0.335 0.121-0.677 0.229-1.029 0.316-0.345 0.102-0.698 0.188-1.059 0.254-0.353 0.09-0.712 0.167-1.079 0.221-0.364 0.066-0.729 0.128-1.105 0.159-0.372 0.035-0.752 0.099-1.091 0.113l-0.523 0.041-0.262 0.023-0.329 6e-3 -1.211 0.018c-1.546 0.015-3.056-0.144-4.512-0.395-0.369-0.049-0.718-0.155-1.077-0.229-0.363-0.063-0.707-0.173-1.057-0.266-0.696-0.196-1.368-0.44-2.03-0.692-2.631-1.04-4.936-2.606-6.791-4.239-1.86-1.627-3.289-3.277-4.263-4.483-0.481-0.607-0.874-1.096-1.117-1.445-0.25-0.35-0.384-0.537-0.384-0.537" fill="#6a0000"/>
    </g>
   </g>
   <g clip-path="url(#clipPath1938)">
    <g mask="url(#mask1956)">
     <path d="m309.92 179.32c0-1.936 0.085-3.852 0.209-5.757 18.462 29.875 51.787 49.821 89.833 49.821s71.371-19.946 89.835-49.822c0.123 1.906 0.207 3.822 0.207 5.758 0 49.088-40.313 88.882-90.042 88.882s-90.042-39.794-90.042-88.882" fill="url(#linearGradient1978)"/>
    </g>
   </g>
   <g clip-path="url(#clipPath1988)">
    <path d="m296.85 129.56c0.21-10.913 9.232-19.591 20.148-19.382 10.916 0.211 19.595 9.23 19.384 20.142-0.209 10.919-20.692 47.809-20.692 47.809s-19.05-37.65-18.84-48.569" fill="url(#radialGradient2004)"/>
   </g>
  </g>
 </g>
</svg>
